<svg width="18" height="16" viewBox="0 0 18 16" fill="none" xmlns="http://www.w3.org/2000/svg">
<path d="M8.77428 0C7.62526 0 6.4875 0.206917 5.42594 0.608937C4.36439 1.01096 3.39984 1.60021 2.58736 2.34304C0.946494 3.84327 0.024662 5.87801 0.024662 7.99965C0.0170129 9.84687 0.716575 11.6383 2.00207 13.0634L0.252152 14.6634C0.130744 14.7758 0.0485013 14.9187 0.0158004 15.0739C-0.0169006 15.2291 0.00140597 15.3896 0.06841 15.5353C0.141082 15.6792 0.258893 15.8002 0.406886 15.8828C0.554879 15.9654 0.726382 16.006 0.899623 15.9993H8.77428C11.0948 15.9993 13.3203 15.1565 14.9612 13.6562C16.6021 12.156 17.5239 10.1213 17.5239 7.99965C17.5239 5.87801 16.6021 3.84327 14.9612 2.34304C13.3203 0.842817 11.0948 0 8.77428 0ZM8.77428 14.3994H3.00828L3.82199 13.6554C3.98496 13.5055 4.07643 13.3028 4.07643 13.0914C4.07643 12.8801 3.98496 12.6773 3.82199 12.5274C2.67631 11.4811 1.96285 10.104 1.80319 8.63065C1.64352 7.15732 2.04752 5.67895 2.94636 4.44742C3.84519 3.21589 5.18325 2.30738 6.73257 1.8767C8.28188 1.44601 9.9466 1.51978 11.4431 2.08544C12.9396 2.6511 14.1753 3.67366 14.9396 4.97889C15.704 6.28413 15.9497 7.79129 15.635 9.2436C15.3202 10.6959 14.4644 12.0035 13.2134 12.9436C11.9624 13.8837 10.3936 14.3982 8.77428 14.3994Z" fill="#F7A440"/>
</svg>
