<svg width="20" height="21" viewBox="0 0 20 21" fill="none" xmlns="http://www.w3.org/2000/svg">
<path d="M17.9807 9.03605H11.788V2.61933C11.788 1.70049 11.0438 0.956299 10.125 0.956299C9.20614 0.956299 8.46195 1.70049 8.46195 2.61933V9.03605H1.85539C0.944139 9.03605 0.199951 9.78024 0.199951 10.6991C0.199951 11.6179 0.944139 12.3621 1.86298 12.3621H8.46955V18.7409C8.46955 19.6597 9.21373 20.4039 10.1326 20.4039C11.0514 20.4039 11.7956 19.6597 11.7956 18.7409V12.3621H17.9883C18.9072 12.3621 19.6513 11.6179 19.6513 10.6991C19.64 9.78024 18.8996 9.03605 17.9807 9.03605Z" fill="#231F20"/>
</svg>