<?xml version="1.0" encoding="utf-8"?>
<!-- Generator: Adobe Illustrator 25.4.1, SVG Export Plug-In . SVG Version: 6.00 Build 0)  -->
<svg version="1.1" xmlns="http://www.w3.org/2000/svg" xmlns:xlink="http://www.w3.org/1999/xlink" x="0px" y="0px"
	 viewBox="0 0 1080 1080" style="enable-background:new 0 0 1080 1080;" xml:space="preserve">
<style type="text/css">
	.st0{fill:#F2F6F9;}
	.st1{fill:#600C0F;}
	.st2{fill:#981B22;}
	.st3{fill:#FBCB15;}
	.st4{fill:#151515;}
	.st5{fill:#E17126;}
	.st6{fill:#F7A440;}
	.st7{fill:#600C0D;}
	.st8{fill:#E6E7E8;}
	.st9{fill:none;stroke:#000000;stroke-miterlimit:10;}
	.st10{fill:#F9E0AE;}
	.st11{fill:#FCECDD;}
	.st12{fill:#F7A440;stroke:#600D0F;stroke-width:7;stroke-miterlimit:10;}
	.st13{fill:#FFFFFF;}
	.st14{fill:#F8F6DE;stroke:#600D0F;stroke-width:7;stroke-miterlimit:10;}
	.st15{fill:#600E11;}
	.st16{fill:none;stroke:#600F12;stroke-width:7;stroke-miterlimit:10;}
	.st17{fill:#600F12;stroke:#600F12;stroke-miterlimit:10;}
	.st18{fill:#FFF8CE;}
	.st19{fill:#FCC289;}
	.st20{fill:#FFFFFF;stroke:#000000;stroke-width:3;stroke-miterlimit:10;}
	.st21{fill:url(#SVGID_1_);stroke:#000000;stroke-miterlimit:10;}
	.st22{fill:url(#SVGID_00000057844670219236860780000000883729948064470965_);stroke:#000000;stroke-miterlimit:10;}
	.st23{fill:url(#SVGID_00000096033607848949538650000013570086454109822642_);stroke:#000000;stroke-miterlimit:10;}
	.st24{fill:#E6E7E8;stroke:#000000;stroke-miterlimit:10;}
</style>
<g id="Layer_1">
	<circle class="st8" cx="540" cy="540" r="538.2"/>
</g>
<g id="Lens">
</g>
<g id="Layer_2">
</g>
<g id="Layer_4">
</g>
<g id="Layer_5">
	<g>
		<path class="st5" d="M277.4,717c-8.2,9.7-12.7,15.1-16.5,21.2c-4.4,9.2-8.5,19.4-11.8,30.6c-11.2,38.3-9.3,74.1-3.9,101.8
			c-9.7,9-16.4,17.8-20.7,24.3c-8.2-14.8-19.7-39.9-23.6-73.1c-3.4-29.4,0.4-54.4,4.9-72.2c2.3-2.9,4.6-5.6,6.7-8
			c11.9-15,23.1-26.2,31.8-34.2c14.7-13.4,23.1-18.2,33-18.9c0.8,0,14.3-0.8,16.5,4.7C295.4,697.3,290.3,701.6,277.4,717z"/>
		<path class="st5" d="M867.4,895.9c-3.5-5.5-9.7-14-19.2-22.3c4.3-26.5,5-59.2-5.3-94c-3.3-11.2-7.4-21.5-11.8-30.6
			c-3.8-6.1-8.3-11.5-16.5-21.2c-12.9-15.4-18-19.7-16.5-23.6c2.2-5.5,15.7-4.8,16.5-4.7c9.9,0.7,18.4,5.5,33,18.9
			c8.7,7.9,20,19.2,31.8,34.2c3.5,4,7.4,8.7,11.5,14.2v0c3.6,10.7,6.7,24.1,7.1,39.6C899.2,852.7,875.5,885.6,867.4,895.9z"/>
		<path class="st10" d="M714.3,398.2c5.5,8,15.8,21.5,32.9,35.2c5.3-12.5,10.9-27.8,19.4-43.6c10.9-20.1,28.1-44,57.2-68.8
			c-12.7,4.4-26.4,10.1-40,17.6C745.8,359.4,724.6,384.1,714.3,398.2z"/>
		<path class="st12" d="M214.4,161.9c5.4-4.1,25.4,9.7,37.7,26.2c11.1,14.8,15,30.2,16.5,40.1c22.5,6.7,50.5,17.5,80.2,35.4
			c48.7,29.3,80.4,64.8,99,89.6c23.1-4.8,50.9-8.7,82.5-9.4c45.2-1,83.7,4.9,113.2,11.8c17.6-22.7,44.4-52.3,82.5-80.2
			c38.1-27.8,74.4-44.3,101.4-54.2c1-6,3.7-17,11.8-28.3c9.1-12.7,30-27.5,35.4-28.6c1.7-0.4,3.4-0.7,4.7,0
			c6.4,3.4,1.6,28.7-4.7,47.4c-3.1,9.2-6.2,15.6-4.7,16.5c2,1.3,8.8-9.9,23.6-18.9c5.4-3.3,16.9-10.3,21.2-7.1
			c4,3,2.8,15.4-16.5,54.2c9.8,27.9,22,74.3,18.9,132c-4,73.7-31.1,128.2-47.1,155.6c1.6,36.1,3.1,72.3,4.7,108.4
			c8.8,3.9,27.9,13.9,42.4,35.4c19.8,29.3,17.5,59.8,16.5,68.4c-17.3-3.9-34.6-7.9-51.9-11.8c5.8,11.7,13.5,31.4,14.1,56.6
			c1.2,46.4-22.5,79.3-30.6,89.6c-5.4-8.5-17.1-24-37.7-35.4c-13.8-7.6-26.6-10.5-35.4-11.8c1.3,6.8,3,21-2.4,37.7
			c-5.6,17.5-16.1,28.3-21.2,33c-9-10.7-23.7-24.7-44.8-30.6c-38.1-10.8-73.9,11-89.6,18.9c-38.3,19.1-104.6,29.1-226.3-18.9
			c-9-1.4-33.4-4-58.9,9.4c-15.5,8.1-25.3,19-30.6,25.9c-4.8-6-12.5-17.1-16.5-33c-4.8-18.9-1.9-34.7,0-42.4
			c-10.6,2.7-26.1,7.9-42.4,18.9c-19.3,12.9-31.2,28-37.7,37.7c-8.2-14.8-19.7-39.9-23.6-73.1c-4.6-39.1,3.7-70.4,9.4-87.2
			c-20.4,3.9-40.9,7.9-61.3,11.8c2.9-14.1,10.3-40.2,30.6-66c16.7-21.2,35.3-33.5,47.1-40.1c0-33.8,0-67.6,0-101.4
			c-15-27.6-33.5-69.3-42.4-122.6c-12.7-75.3-0.3-137.2,9.4-172.1c-12.3-31.1-12.5-40.6-9.4-42.4c7.3-4.4,34.3,33.2,42.4,28.3
			c4.9-3,1-20.1-4.7-44.8C214.5,170.3,211.5,164.1,214.4,161.9z"/>
		<path class="st5" d="M291.4,717.4c-6.4,6.2-10.8,10.5-14.3,14.5c-1.5,1.7-2.9,3.3-4.2,5c-2.6,4.3-5.2,9-7.7,13.8
			c0,0-3.8,7.5-7.1,15.5c-4.4,10.9-12.3,48.6-15.1,100.5c-4,3.4-8.2,7.5-12.5,12.2c-3.4,3.7-6.3,7.4-8.9,10.8
			c-7.3-14.9-17.7-40.6-19.7-74.1c-1.8-29.8,3.6-54,8.2-69.1c11-17.5,20-24.7,26.3-28c2.3-1.2,48.3-29.7,57.8-29.3
			c0.8,0,14.3,0.6,16,6.3C311.3,699.6,305.8,703.3,291.4,717.4z"/>
		<path class="st13" d="M664.9,881.5c-12.2,4.6-22.3,10.2-28.8,13.4c-34.6,16.9-92.1,26.5-192.6-6.4
			c-31.9-42.4-52.1-96.2-30.4-137.7c1.2-2.2,20.1-37.2,54.2-43.8c12-2.3,21-0.2,29.8,3c14.1,5.1,27.8,13,52.7,10.8
			c22-2,29.4-9.9,47-12.8c4.1-0.7,8.8-1.1,14.3-1.1c7.7,0,32.7,0.1,49.5,11.5C697.3,743.3,695.6,821.7,664.9,881.5z"/>
		<path class="st14" d="M842.6,316.4c4.6,21.6,8.9,54.2,3.5,93.1c-3.9,28.2-11.6,51.3-18.9,68.4c-12.9-1.5-34.1-5.7-56.6-18.9
			c-31.6-18.6-47.7-44.4-54.2-56.6c7.7-13.3,23.5-36.8,51.9-56.6C798.2,325.1,827.2,318.7,842.6,316.4z"/>
		<g>
			<path class="st14" d="M253.3,313.9c-4.6,21.6-8.9,54.2-3.5,93.1c3.9,28.2,11.6,51.3,18.9,68.4c12.9-1.5,34.1-5.7,56.6-18.9
				c31.6-18.6,47.7-44.4,54.2-56.6c-7.7-13.3-23.5-36.8-51.9-56.6C297.7,322.6,268.6,316.2,253.3,313.9z"/>
		</g>
		<ellipse class="st7" cx="403" cy="629.8" rx="40.1" ry="50.7"/>
		<ellipse class="st7" cx="688.2" cy="629.8" rx="40.1" ry="50.7"/>
		
			<ellipse transform="matrix(0.6295 -0.777 0.777 0.6295 -324.3222 529.937)" class="st13" cx="393.5" cy="605.1" rx="14.1" ry="11.8"/>
		
			<ellipse transform="matrix(0.6295 -0.777 0.777 0.6295 -217.4176 749.0699)" class="st13" cx="676.8" cy="602.5" rx="14.1" ry="11.8"/>
		
			<ellipse transform="matrix(0.8046 -0.5938 0.5938 0.8046 -186.2412 496.8759)" class="st15" cx="661.9" cy="531.4" rx="25.9" ry="19.3"/>
		
			<ellipse transform="matrix(0.5938 -0.8046 0.8046 0.5938 -251.3219 563.063)" class="st15" cx="432" cy="530.4" rx="19.3" ry="25.9"/>
		<ellipse class="st5" cx="547.9" cy="449.5" rx="27.1" ry="58.9"/>
		
			<ellipse transform="matrix(0.9312 -0.3646 0.3646 0.9312 -117.7026 264.6695)" class="st5" cx="642.1" cy="444.1" rx="21.3" ry="35.7"/>
		
			<ellipse transform="matrix(0.3318 -0.9433 0.9433 0.3318 -114.374 720.2438)" class="st5" cx="451.2" cy="440.9" rx="35.7" ry="21.3"/>
		
			<ellipse transform="matrix(0.7711 -0.6368 0.6368 0.7711 -296.6748 315.8587)" class="st5" cx="290.9" cy="570.5" rx="35.7" ry="21.3"/>
		
			<ellipse transform="matrix(0.42 -0.9075 0.9075 0.42 -54.643 1062.6545)" class="st5" cx="804.1" cy="574.1" rx="21.3" ry="35.7"/>
		<ellipse transform="matrix(0.866 -0.5 0.5 0.866 -301.531 206.3374)" class="st5" cx="234.3" cy="665.8" rx="35.7" ry="15.7"/>
		<ellipse transform="matrix(0.5 -0.866 0.866 0.5 -145.8252 1079.8596)" class="st5" cx="862.3" cy="666.2" rx="15.7" ry="35.7"/>
		<path class="st5" d="M339.3,733.2c-18.7,4.9-30.1,26.8-33,44.8c-2,12.3-2,35.5,9.4,40.1c6.8,2.8,16.1-1.8,21.2-7.1
			c6-6.2,3.6-10.7,9.4-25.9c5.1-13.5,8.5-13.9,11.8-25.9c2.3-8.3,5-18.2,0-23.6C352.6,729.6,340.9,732.7,339.3,733.2z"/>
		<path class="st5" d="M759.3,737.4c18.7,4.9,30.1,26.8,33,44.8c2,12.3,2,35.5-9.4,40.1c-6.8,2.8-16.1-1.8-21.2-7.1
			c-6-6.2-3.6-10.7-9.4-25.9c-5.1-13.5-8.5-13.9-11.8-25.9c-2.3-8.3-5-18.2,0-23.6C746,733.8,757.7,736.9,759.3,737.4z"/>
		<g>
			<g>
				<path class="st15" d="M575,701.7c11.9,2.5,17.9,3.9,21.2,9.4c6.5,10.7-3.6,26.6-4.7,28.3c-12,18.3-35.5,20.9-42.4,21.2
					c-0.8,0-2.3,0.1-4.3,0.1c-2,0-37.6-1.1-47.6-23.7c-0.6-1.4-5.9-13.7,0-23.6c4.1-6.9,11.5-8.8,23.6-11.8
					C526.7,700.3,547.1,695.7,575,701.7z"/>
				<g>
					<path class="st16" d="M549.1,777.1c-9.7,23.3-32.1,37.5-54.2,35.4c-22.9-2.2-35.8-20.7-37.7-23.6"/>
					<path class="st16" d="M546.8,730c0.8,15.7,1.6,31.4,2.4,47.1c4.4,17.9,18.2,31.7,35.4,35.4c20.3,4.4,41.9-6.2,51.9-25.9"/>
				</g>
				
					<ellipse transform="matrix(0.6295 -0.777 0.777 0.6295 -441.0374 644.1911)" class="st17" cx="455" cy="784.6" rx="20.1" ry="8.8"/>
			</g>
			
				<ellipse transform="matrix(0.777 -0.6295 0.6295 0.777 -352.836 576.2906)" class="st17" cx="637" cy="786.1" rx="8.8" ry="20.1"/>
		</g>
		<path class="st18" d="M781.3,250.3c-18.4,10.6-42.5,27.1-66,52.3c-33.1,35.4-50.1,72-58.8,95.5c-15.2-4.9-36.9-10.7-63.5-14
			c-8.9-1.1-30.3-3.4-58.8-2.3c-70.2,2.6-89.1,21.9-108.2,7c-2.7-2.1-12.8-16.9-32.9-46.6c-1.9-2.8-3.5-5.2-4.9-7.3
			c-2.6-3.8-4.4-6.6-4.5-6.7c-2.7-4.1-20.4-23.1-66.7-70.8c9.8,3.7,20,8.2,30.4,13.8c48.1,25.5,79.5,61.1,98.8,88.5
			c23.1-4.8,50.9-8.6,82.4-9.3c45.1-1,83.6,4.9,113,11.6c17.5-23.2,44.1-52.7,82.4-79.2C744.2,268.6,763.9,258.1,781.3,250.3z"/>
		<path class="st5" d="M796.5,708.9c6.6,6.4,11.2,10.8,14.9,14.9c1.5,1.7,3,3.4,4.3,5.1c2.7,4.4,5.3,9.1,7.8,14.1
			c0,0,3.8,7.7,7,15.7c4.4,11.1,11.2,47.9,11.5,98.2c3.7,3.5,7.6,7.3,11.5,11.5c4.2,4.5,8.1,8.9,11.5,13.2
			c7.3-10.6,21.8-34.8,24.7-69.1c2.7-32.3-6.4-57.3-11.5-69.1c-3.9-6.5-7.6-11.3-10.1-14.4c-10.7-12.9-22.8-21.9-36.6-31.8
			c-0.8-0.5-1.5-1.1-2.2-1.6c-15.3-11.1-24.4-14.9-34.7-14.9c-0.8,0-15.5,0.2-17.5,5.9C775.8,690.5,781.6,694.4,796.5,708.9z"/>
		<path class="st19" d="M291,332.8c12.6,10.6,31.6,29.7,44.8,58.9c6.3,14,9.8,27,11.8,37.7c5.1-4.4,11.1-10.5,16.5-18.9
			c2.4-3.7,4.3-7.3,5.9-10.6c-6-11.1-17.5-29-37.7-44.8C316.8,343.1,301.7,336.5,291,332.8z"/>
		<path class="st19" d="M725.8,401.7c6.6-11.7,20.5-32.5,45.4-50c25.8-18.1,50.9-23.9,64.3-26c-13.7,5.4-41.4,18.6-64.4,47.5
			c-16.2,20.5-23.8,40.8-27.5,53.9c-3.6-3.4-7.9-8.1-11.8-14.1C729.2,408.9,727.3,405.1,725.8,401.7z"/>
	</g>
</g>
</svg>
