<svg width="16" height="13" viewBox="0 0 16 13" fill="none" xmlns="http://www.w3.org/2000/svg">
<path d="M8.74981 12.4561C9.48922 11.7327 9.48922 10.5552 8.74981 9.83002L7.24827 8.35727L14.1065 8.35727C15.1517 8.35727 16 7.52618 16 6.50009C16 5.47492 15.1517 4.6429 14.1065 4.6429L7.24827 4.6429L8.74981 3.17016C9.48922 2.44678 9.48922 1.26933 8.74981 0.5441C8.37963 0.18102 7.89585 -5.53864e-05 7.41111 -5.54288e-05C6.92638 -5.54711e-05 6.44259 0.18102 6.07241 0.5441L-2.44622e-05 6.50009L6.07241 12.4561C6.81182 13.1813 8.0104 13.1813 8.74981 12.4561V12.4561Z" fill="#222222"/>
</svg>