<svg width="33" height="20" viewBox="0 0 42 21" fill="none" xmlns="http://www.w3.org/2000/svg">
<path d="M41.3708 13.6165C41.4751 13.7971 41.5428 13.9965 41.57 14.2033C41.5972 14.4101 41.5835 14.6202 41.5295 14.8217C41.4755 15.0232 41.3824 15.212 41.2554 15.3775C41.1284 15.543 40.9701 15.6818 40.7895 15.7861C40.6089 15.8904 40.4095 15.9581 40.2027 15.9853C39.9959 16.0126 39.7857 15.9988 39.5843 15.9448C39.3828 15.8909 39.1939 15.7977 39.0285 15.6708C38.863 15.5438 38.7241 15.3855 38.6198 15.2048L34.9701 8.88344C32.8197 10.3236 30.4551 11.4144 27.9638 12.1154L29.1179 18.6604C29.191 19.0753 29.0964 19.5022 28.8548 19.8473C28.6131 20.1924 28.2444 20.4274 27.8295 20.5006C27.7378 20.5167 27.6448 20.5248 27.5517 20.5249C27.1786 20.5243 26.8175 20.3925 26.5319 20.1525C26.2462 19.9125 26.0541 19.5796 25.9893 19.2122L24.8539 12.7739C22.2543 13.1537 19.6132 13.1528 17.0139 12.7712L15.8787 19.2095C15.8139 19.577 15.6218 19.9099 15.3362 20.1499C15.0505 20.3899 14.6895 20.5218 14.3163 20.5223C14.2233 20.5223 14.1304 20.5142 14.0387 20.4981C13.6238 20.4249 13.255 20.19 13.0133 19.8449C12.7717 19.4999 12.677 19.0729 12.7501 18.6581L13.9045 12.1104C11.4162 11.4083 9.05452 10.3172 6.90686 8.87772L3.23574 15.2362C3.13144 15.4169 2.99259 15.5752 2.82712 15.7022C2.66164 15.8291 2.47277 15.9223 2.2713 15.9762C2.06983 16.0302 1.8597 16.044 1.6529 16.0168C1.44611 15.9895 1.24671 15.9218 1.06608 15.8175C0.885447 15.7132 0.727128 15.5744 0.600159 15.4089C0.47319 15.2434 0.380058 15.0546 0.32608 14.8531C0.272102 14.6516 0.258336 14.4415 0.285567 14.2347C0.312798 14.0279 0.380493 13.8285 0.484786 13.6479L4.35591 6.94297C3.00574 5.78102 1.7642 4.49852 0.646687 3.11135C0.381958 2.78368 0.258239 2.36427 0.302746 1.94538C0.347253 1.52649 0.55634 1.14243 0.884012 0.877705C1.21168 0.612976 1.6311 0.489256 2.04999 0.533763C2.46888 0.57827 2.85293 0.787357 3.11766 1.11503C4.35804 2.6585 5.77362 4.05257 7.3359 5.26918C7.34835 5.2781 7.35974 5.2879 7.37186 5.2971C11.2485 8.31306 16.0314 9.92873 20.9428 9.88131C25.853 9.92869 30.6349 8.31378 34.5109 5.29914C34.5213 5.29129 34.5311 5.28295 34.5418 5.27539C36.1071 4.05728 37.5253 2.6611 38.7678 1.11503C39.0326 0.787712 39.4166 0.578947 39.8353 0.534616C40.254 0.490285 40.6732 0.614018 41.0007 0.878618C41.3282 1.14322 41.5372 1.52703 41.5819 1.9457C41.6265 2.36437 41.5031 2.78364 41.2387 3.11135C40.119 4.50123 38.8749 5.78605 37.5217 6.94984L41.3708 13.6165Z" fill="black"/>
</svg>
