<svg width="15" height="16" viewBox="0 0 15 16" fill="none" xmlns="http://www.w3.org/2000/svg">
<path d="M7.3239 10.1333C8.40254 10.1333 9.27695 9.17818 9.27695 7.99997C9.27695 6.82176 8.40254 5.86664 7.3239 5.86664C6.24526 5.86664 5.37085 6.82176 5.37085 7.99997C5.37085 9.17818 6.24526 10.1333 7.3239 10.1333Z" fill="black"/>
<path d="M5.49276 1.33337L4.37586 2.66671H2.44112C1.76975 2.66671 1.22046 3.26671 1.22046 4.00004V12C1.22046 12.7334 1.76975 13.3334 2.44112 13.3334H12.2064C12.8777 13.3334 13.427 12.7334 13.427 12V4.00004C13.427 3.26671 12.8777 2.66671 12.2064 2.66671H10.2716L9.15473 1.33337H5.49276ZM7.32375 11.3334C5.63924 11.3334 4.2721 9.84004 4.2721 8.00004C4.2721 6.16004 5.63924 4.66671 7.32375 4.66671C9.00825 4.66671 10.3754 6.16004 10.3754 8.00004C10.3754 9.84004 9.00825 11.3334 7.32375 11.3334Z" fill="black"/>
</svg>
