<svg width="15" height="16" viewBox="0 0 15 16" fill="none" xmlns="http://www.w3.org/2000/svg">
<path d="M7.5 0.0769043C9.48675 0.0769043 11.3993 0.864365 12.8018 2.27429C14.2118 3.68497 15 5.58913 15 7.58402C15 10.2089 13.6193 12.6463 11.3693 14.0037C9.11925 15.3611 6.32175 15.4361 3.9975 14.1987H3.97425C3.75 14.1087 3.56925 13.9512 3.35925 13.8462C3.1275 13.7487 2.86425 13.7337 2.625 13.8095C2.06925 14.0037 1.50675 14.1612 0.92925 14.2962C0.62925 14.3037 0.53925 14.1237 0.53925 13.8312C0.67425 13.2387 0.85425 12.653 1.065 12.0838C1.14675 11.8363 1.125 11.5738 0.9975 11.3406L0.8475 11.0489C0.29175 9.9914 0 8.81396 0 7.62227V7.57653C0 5.58913 0.78675 3.67672 2.19675 2.27429C3.60675 0.864365 5.51175 0.0769043 7.5 0.0769043ZM10.9567 6.62407C10.4318 6.62407 9.9975 7.05155 9.9975 7.58402C9.9975 8.109 10.4318 8.54398 10.9567 8.54398C11.4893 8.54398 11.9167 8.109 11.9167 7.58402C11.9167 7.05155 11.4893 6.62407 10.9567 6.62407ZM7.5 6.62407C6.9675 6.62407 6.53925 7.05155 6.53925 7.58402C6.53925 8.109 6.9675 8.54398 7.5 8.54398C8.0325 8.54398 8.45925 8.109 8.45925 7.58402C8.45925 7.05155 8.0325 6.62407 7.5 6.62407ZM4.04175 6.62407C3.50925 6.62407 3.08175 7.05155 3.08175 7.58402C3.08175 8.109 3.50925 8.54398 4.04175 8.54398C4.56675 8.54398 5.0025 8.109 5.0025 7.58402C5.0025 7.05155 4.56675 6.62407 4.04175 6.62407Z" fill="#F7A440"/>
</svg>
