<svg width="10" height="10" viewBox="0 0 10 10" fill="none" xmlns="http://www.w3.org/2000/svg">
<path d="M9.5 3H6V0.5C6 0.367392 5.94732 0.240215 5.85355 0.146447C5.75979 0.0526784 5.63261 0 5.5 0H0.5C0.367392 0 0.240215 0.0526784 0.146447 0.146447C0.0526784 0.240215 0 0.367392 0 0.5V9.5C0 9.63261 0.0526784 9.75979 0.146447 9.85355C0.240215 9.94732 0.367392 10 0.5 10H1.5V7.5C1.5 7.36739 1.55268 7.24021 1.64645 7.14645C1.74021 7.05268 1.86739 7 2 7H4C4.13261 7 4.25979 7.05268 4.35355 7.14645C4.44732 7.24021 4.5 7.36739 4.5 7.5V10H9.5C9.63261 10 9.75979 9.94732 9.85355 9.85355C9.94732 9.75979 10 9.63261 10 9.5V3.5C10 3.36739 9.94732 3.24021 9.85355 3.14645C9.75979 3.05268 9.63261 3 9.5 3ZM4 5H2C1.86739 5 1.74021 4.94732 1.64645 4.85355C1.55268 4.75979 1.5 4.63261 1.5 4.5C1.5 4.36739 1.55268 4.24021 1.64645 4.14645C1.74021 4.05268 1.86739 4 2 4H4C4.13261 4 4.25979 4.05268 4.35355 4.14645C4.44732 4.24021 4.5 4.36739 4.5 4.5C4.5 4.63261 4.44732 4.75979 4.35355 4.85355C4.25979 4.94732 4.13261 5 4 5ZM4 3H2C1.86739 3 1.74021 2.94732 1.64645 2.85355C1.55268 2.75979 1.5 2.63261 1.5 2.5C1.5 2.36739 1.55268 2.24021 1.64645 2.14645C1.74021 2.05268 1.86739 2 2 2H4C4.13261 2 4.25979 2.05268 4.35355 2.14645C4.44732 2.24021 4.5 2.36739 4.5 2.5C4.5 2.63261 4.44732 2.75979 4.35355 2.85355C4.25979 2.94732 4.13261 3 4 3ZM8 8C8 8.13261 7.94732 8.25979 7.85355 8.35355C7.75979 8.44732 7.63261 8.5 7.5 8.5C7.36739 8.5 7.24021 8.44732 7.14645 8.35355C7.05268 8.25979 7 8.13261 7 8V7.5C7 7.36739 7.05268 7.24021 7.14645 7.14645C7.24021 7.05268 7.36739 7 7.5 7C7.63261 7 7.75979 7.05268 7.85355 7.14645C7.94732 7.24021 8 7.36739 8 7.5V8ZM8 5.5C8 5.63261 7.94732 5.75979 7.85355 5.85355C7.75979 5.94732 7.63261 6 7.5 6C7.36739 6 7.24021 5.94732 7.14645 5.85355C7.05268 5.75979 7 5.63261 7 5.5V5C7 4.86739 7.05268 4.74021 7.14645 4.64645C7.24021 4.55268 7.36739 4.5 7.5 4.5C7.63261 4.5 7.75979 4.55268 7.85355 4.64645C7.94732 4.74021 8 4.86739 8 5V5.5Z" fill="black"/>
</svg>