<svg width="20" height="20" viewBox="0 0 20 20" fill="none" xmlns="http://www.w3.org/2000/svg">
<g opacity="0.6">
<path d="M16.6937 16.6625H3.30615C2.60192 16.6617 1.92678 16.3816 1.42881 15.8836C0.930849 15.3856 0.650729 14.7105 0.649902 14.0063V5.99377C0.650729 5.28955 0.930849 4.6144 1.42881 4.11644C1.92678 3.61847 2.60192 3.33835 3.30615 3.33752H16.6937C17.3979 3.33835 18.073 3.61847 18.571 4.11644C19.069 4.6144 19.3491 5.28955 19.3499 5.99377V14.0063C19.3491 14.7105 19.069 15.3856 18.571 15.8836C18.073 16.3816 17.3979 16.6617 16.6937 16.6625ZM3.30615 4.27502C2.85031 4.27502 2.41314 4.45611 2.09081 4.77843C1.76848 5.10076 1.5874 5.53793 1.5874 5.99377V14.0063C1.5874 14.4621 1.76848 14.8993 2.09081 15.2216C2.41314 15.5439 2.85031 15.725 3.30615 15.725H16.6937C17.1495 15.725 17.5867 15.5439 17.909 15.2216C18.2313 14.8993 18.4124 14.4621 18.4124 14.0063V5.99377C18.4124 5.53793 18.2313 5.10076 17.909 4.77843C17.5867 4.45611 17.1495 4.27502 16.6937 4.27502H3.30615Z" fill="#858585"/>
<path d="M10.0001 11.8999C9.42184 11.9009 8.85904 11.7133 8.39698 11.3656L1.1001 5.84682C1.04855 5.81064 1.00481 5.76443 0.971511 5.71097C0.938209 5.65751 0.916023 5.59788 0.906279 5.53566C0.896534 5.47343 0.89943 5.40988 0.914795 5.34879C0.930159 5.28771 0.957676 5.23035 0.995702 5.18014C1.03373 5.12992 1.08148 5.08789 1.13612 5.05655C1.19075 5.0252 1.25114 5.00519 1.31368 4.99771C1.37622 4.99022 1.43963 4.99542 1.50011 5.01298C1.5606 5.03055 1.61693 5.06012 1.66573 5.09994L8.9626 10.6249C9.26225 10.8486 9.62617 10.9695 10.0001 10.9695C10.374 10.9695 10.738 10.8486 11.0376 10.6249L18.3345 5.09994C18.3833 5.06012 18.4396 5.03055 18.5001 5.01298C18.5606 4.99542 18.624 4.99022 18.6865 4.99771C18.7491 5.00519 18.8095 5.0252 18.8641 5.05655C18.9187 5.08789 18.9665 5.12992 19.0045 5.18014C19.0425 5.23035 19.07 5.28771 19.0854 5.34879C19.1008 5.40988 19.1037 5.47343 19.0939 5.53566C19.0842 5.59788 19.062 5.65751 19.0287 5.71097C18.9954 5.76443 18.9517 5.81064 18.9001 5.84682L11.6032 11.3656C11.1412 11.7133 10.5784 11.9009 10.0001 11.8999Z" fill="#858585"/>
<path d="M1.30318 15.3562C1.20811 15.3564 1.11524 15.3276 1.0369 15.2737C0.958564 15.2199 0.898456 15.1435 0.864555 15.0546C0.830654 14.9658 0.824562 14.8688 0.847088 14.7764C0.869614 14.6841 0.919693 14.6007 0.990679 14.5375L6.74068 9.40937C6.8335 9.32649 6.95545 9.28388 7.0797 9.29091C7.20394 9.29794 7.3203 9.35404 7.40318 9.44687C7.48606 9.5397 7.52867 9.66164 7.52164 9.78589C7.51461 9.91013 7.4585 10.0265 7.36568 10.1094L1.61568 15.2375C1.53029 15.3152 1.41862 15.3576 1.30318 15.3562ZM18.6969 15.3562C18.5815 15.3576 18.4698 15.3152 18.3844 15.2375L12.6344 10.1094C12.5416 10.0265 12.4855 9.91013 12.4785 9.78589C12.4714 9.66164 12.514 9.5397 12.5969 9.44687C12.6798 9.35404 12.7962 9.29794 12.9204 9.29091C13.0447 9.28388 13.1666 9.32649 13.2594 9.40937L19.0063 14.5375C19.0773 14.6007 19.1274 14.6841 19.1499 14.7764C19.1724 14.8688 19.1663 14.9658 19.1324 15.0546C19.0985 15.1435 19.0384 15.2199 18.9601 15.2737C18.8817 15.3276 18.7889 15.3564 18.6938 15.3562H18.6969Z" fill="#858585"/>
</g>
</svg>
