<svg width="80" height="70" viewBox="0 0 80 70" fill="none" xmlns="http://www.w3.org/2000/svg">
<path d="M2.0596 64.3091C4.57598 67.8726 8.93483 70 13.7209 70H66.2791C71.0652 70 75.424 67.8726 77.9404 64.3091C80.4562 60.7461 80.6804 56.382 78.5404 52.6352L52.2612 6.63293C49.9241 2.54173 45.2262 0 40 0C34.7738 0 30.0759 2.54173 27.7388 6.63293L1.45965 52.6352C-0.680433 56.382 -0.45619 60.7461 2.0596 64.3091ZM3.62753 53.5839L29.9067 7.58168C31.8598 4.16267 35.6329 2.12121 40 2.12121C44.3671 2.12121 48.1402 4.16267 50.0933 7.58168L76.3725 53.5839C78.1345 56.6678 77.9499 60.2609 75.8784 63.1941C73.8076 66.1273 70.2191 67.8788 66.2791 67.8788H13.7209C9.78093 67.8788 6.19243 66.1273 4.12158 63.1941C2.05013 60.2609 1.86553 56.6678 3.62753 53.5839Z" fill="#F7A440"/>
<path d="M37.1133 20.2181C37.1133 18.5187 38.4082 17.1358 39.9995 17.1358C41.5913 17.1358 42.8862 18.5187 42.8862 20.2181V40.8777C42.8862 42.5771 41.5913 43.96 39.9995 43.96C38.4082 43.96 37.1133 42.5771 37.1133 40.8777V31.8717V20.2181Z" fill="#F7A440"/>
<path d="M40 50.4567C41.6543 50.4567 43 51.8938 43 53.6604C43 55.4271 41.6543 56.8642 40 56.8642C38.3457 56.8642 37 55.4271 37 53.6604C37 51.8938 38.3457 50.4567 40 50.4567Z" fill="#F7A440"/>
</svg>
