<svg width="33" height="20" viewBox="0 0 33 20" fill="none" xmlns="http://www.w3.org/2000/svg">
<path d="M16.0017 20C13.9617 20 11.855 19.4933 9.735 18.5C8.075 17.72 6.40167 16.64 4.76167 15.2867C1.995 13 0.288333 10.7333 0.215 10.64C-0.0716667 10.26 -0.0716667 9.74 0.215 9.36C0.288333 9.26667 1.995 7 4.76167 4.71333C6.40167 3.36 8.075 2.28 9.735 1.5C11.855 0.506667 13.9617 0 16.0017 0C18.0417 0 20.1483 0.506667 22.2683 1.5C23.9283 2.28 25.6017 3.36 27.2417 4.71333C30.0083 7 31.7217 9.26667 31.7883 9.36C32.075 9.74 32.075 10.26 31.7883 10.64C31.715 10.7333 30.0083 13 27.2417 15.2867C25.6017 16.64 23.9283 17.72 22.2683 18.5C20.1483 19.4933 18.0417 20 16.0017 20ZM2.44167 10C4.115 11.98 9.64167 17.8667 16.0017 17.8667C22.375 17.8667 27.8883 11.98 29.5617 10C27.8883 8.02 22.3617 2.13333 16.0017 2.13333C9.62833 2.13333 4.115 8.02 2.44167 10Z" fill="black"/>
<path d="M16.0017 14.8C13.355 14.8 11.2017 12.6467 11.2017 10C11.2017 7.35333 13.355 5.2 16.0017 5.2C18.6483 5.2 20.8017 7.35333 20.8017 10C20.8017 12.6467 18.6483 14.8 16.0017 14.8ZM16.0017 7.33333C14.5283 7.33333 13.335 8.52666 13.335 10C13.335 11.4733 14.5283 12.6667 16.0017 12.6667C17.475 12.6667 18.6683 11.4733 18.6683 10C18.6683 8.52666 17.475 7.33333 16.0017 7.33333Z" fill="black"/>
</svg>
