<svg width="405" height="464" viewBox="0 0 405 464" fill="none" xmlns="http://www.w3.org/2000/svg">
<path d="M2.45178 272.786L11.0211 270.977L13.1938 281.331L43.3928 274.983L45.6626 285.749L15.4636 292.097L17.612 302.329L9.04264 304.138L2.45178 272.786Z" fill="#FBCA10"/>
<path d="M9.79526 254.272L16.2405 253.823L15.3665 241.2L23.7174 240.629L24.5913 253.253L31.7162 252.755L30.7209 238.469L39.5209 237.862L41.2687 263.145L1.74785 265.876L0 240.593L8.79995 239.986L9.79526 254.272Z" fill="#FBCA10"/>
<path d="M34.9142 209.835L33.6882 223.817L39.9392 226.512L38.9197 238.043L0.721802 220.2L1.82635 207.553L42.5489 196.665L41.5293 208.269L34.9142 209.835ZM26.272 211.837L13.1267 214.969L25.5316 220.285L26.272 211.837Z" fill="#FBCA10"/>
<path d="M23.2758 192.528C19.5131 191.494 16.3785 189.785 13.869 187.406C11.3625 185.027 9.68748 182.169 8.84389 178.825C7.99424 175.475 8.08831 171.927 9.12306 168.18C10.4431 163.416 12.8221 159.756 16.2601 157.207C19.7012 154.652 23.734 153.505 28.3616 153.772L25.2179 165.206C23.5853 165.497 22.2259 166.147 21.1395 167.148C20.0471 168.143 19.2825 169.436 18.8455 171.02C18.1658 173.472 18.4996 175.675 19.8408 177.623C21.1851 179.565 23.3213 180.937 26.2496 181.738C29.2112 182.557 31.7723 182.478 33.9329 181.507C36.0873 180.53 37.5014 178.813 38.1811 176.361C38.6181 174.777 38.6241 173.275 38.1932 171.858C37.7654 170.434 36.9279 169.181 35.6807 168.095L38.8244 156.661C42.9331 158.806 45.8158 161.856 47.4666 165.813C49.1173 169.764 49.2812 174.121 47.9642 178.885C46.9264 182.633 45.1877 185.728 42.7449 188.171C40.3113 190.608 37.4043 192.207 34.03 192.965C30.6496 193.727 27.0628 193.581 23.2758 192.528Z" fill="#FBCA10"/>
<path d="M33.235 109.677L68.9203 126.876L64.138 136.805L49.8153 129.898L43.9891 141.988L58.3118 148.894L53.5173 158.823L17.832 141.624L22.6265 131.695L36.0388 138.152L41.865 126.063L28.4527 119.606L33.235 109.677Z" fill="#FBCA10"/>
<path d="M74.3824 55.1722L104.776 80.5889L97.7114 89.049L80.949 75.0297L92.9169 94.7659L86.9936 101.842L65.279 93.4914L82.1749 107.62L75.0985 116.068L44.7053 90.6512L53.2625 80.4311L79.3711 89.316L65.8738 65.3437L74.3824 55.1722Z" fill="white"/>
<path d="M96.2424 48.5003L100.381 53.4647L110.092 45.3445L115.469 51.7654L105.758 59.8856L110.334 65.3598L121.331 56.1715L126.988 62.9444L107.543 79.197L82.1382 48.8038L101.583 32.5512L107.239 39.312L96.2424 48.5003Z" fill="white"/>
<path d="M144.303 12.5838L147.241 20.8436L137.287 24.3848L147.629 53.458L137.248 57.148L126.907 28.0748L117.069 31.5765L114.131 23.3137L144.303 12.5838Z" stroke="white" stroke-width="1.68601"/>
<path d="M163.42 17.2023L164.819 23.5109L177.169 20.7769L178.981 28.9608L166.631 31.6949L168.172 38.662L182.173 35.5608L184.079 44.1756L159.324 49.6559L150.758 10.9695L175.513 5.48622L177.421 14.1011L163.42 17.2023Z" stroke="white" stroke-width="1.68601"/>
<path d="M210.206 41.5751L196.423 25.2649L197.828 42.5796L186.846 43.4717L183.642 3.97509L194.624 3.08296L196.004 20.1245L206.889 2.08766L219.552 1.05897L206.598 21.399L223.484 40.4979L210.206 41.5751Z" stroke="white" stroke-width="1.68601"/>
<path d="M261.1 43.4929L250.115 42.619L237.246 19.3841L235.495 41.4598L224.51 40.5859L227.648 1.08627L238.63 1.95717L251.478 25.4834L253.253 3.11937L264.234 3.99026L261.1 43.4929Z" stroke="white" stroke-width="1.68601"/>
<path d="M282.55 48.9641C278.949 48.0599 275.85 46.3848 273.256 43.9421C270.668 41.4902 268.865 38.5438 267.852 35.1027C266.85 31.6616 266.823 28.0536 267.77 24.2727C268.719 20.4948 270.449 17.3268 272.959 14.7687C275.477 12.2137 278.454 10.481 281.889 9.57068C285.327 8.65124 288.847 8.64213 292.449 9.54944C296.075 10.4598 299.179 12.1287 301.756 14.5593C304.338 16.9808 306.119 19.9091 307.105 23.3441C308.101 26.7822 308.122 30.3902 307.175 34.1681C306.225 37.949 304.499 41.117 301.998 43.6781C299.507 46.2392 296.539 47.987 293.098 48.9247C289.66 49.8532 286.143 49.8654 282.55 48.9641ZM285.042 39.0384C287.767 39.7211 290.14 39.3752 292.164 37.9976C294.191 36.6108 295.581 34.426 296.327 31.4462C297.095 28.3935 296.91 25.7899 295.772 23.6385C294.634 21.4749 292.704 20.0517 289.982 19.369C287.224 18.6771 284.835 19.0139 282.824 20.3855C280.821 21.751 279.437 23.9601 278.669 27.0098C277.911 30.026 278.093 32.6144 279.21 34.7719C280.338 36.9234 282.283 38.3435 285.042 39.0384Z" stroke="white" stroke-width="1.68601"/>
<path d="M352.798 32.2442L329.318 51.5707L324.344 63.1441L314.173 58.7714L319.146 47.198L317.013 16.8625L328.583 21.836L328.954 38.6317L341.392 27.3405L352.798 32.2442Z" stroke="white" stroke-width="1.68601"/>
<path d="M124.483 375.666C119.189 371.752 110.533 363.034 109.011 360.38C105.432 362.965 54.2855 400.056 36.7439 418.43C34.8798 420.362 30.8967 424.743 29.2873 431.516C29.2873 431.516 29.2501 431.665 29.219 431.802C28.1005 436.63 27.9016 446.715 33.8172 454.321C41.4602 464.151 54.2483 463.368 56.9326 463.207C71.6842 462.3 80.222 450.574 81.5207 448.729L129.491 379.438C128.379 378.587 126.639 377.263 124.483 375.666Z" fill="#E6E7E8"/>
<path d="M231.634 52.5414C327.371 52.5414 405 130.152 405 225.907C405 321.662 327.389 399.273 231.634 399.273C135.879 399.273 58.2687 321.662 58.2687 225.907C58.2687 130.152 135.892 52.5414 231.634 52.5414ZM231.044 358.174C305.691 358.174 366.201 297.459 366.201 222.564C366.201 147.669 305.691 86.9535 231.044 86.9535C156.397 86.9535 95.8809 147.669 95.8809 222.564C95.8809 297.459 156.397 358.174 231.044 358.174V358.174Z" fill="#E6E7E8"/>
<path d="M332.087 259.48C335.163 263.153 336.866 265.178 338.301 267.496C340.102 271.217 341.596 275.078 342.769 279.041C347.013 293.513 346.267 307.004 344.223 317.493C347.179 320.231 349.802 323.307 352.04 326.658C361.333 309.968 363.854 290.343 359.08 271.846C358.198 270.74 357.353 269.739 356.563 268.826C352.911 264.208 348.892 259.892 344.546 255.92C339.009 250.874 335.847 249.085 332.087 248.799C331.801 248.799 326.681 248.482 325.873 250.582C325.277 252.061 327.209 253.67 332.087 259.48Z" fill="#E17126"/>
<path d="M109.328 327.056C111.342 323.921 113.783 321.081 116.579 318.617C114.585 306.79 115.264 294.667 118.568 283.136C119.734 279.171 121.222 275.308 123.017 271.585C124.471 269.273 126.167 267.235 129.231 263.575C134.108 257.759 136.066 256.119 135.444 254.671C134.618 252.583 129.504 252.875 129.231 252.894C125.502 253.148 122.296 254.975 116.766 260.015C112.42 263.985 108.403 268.301 104.754 272.921C103.425 274.431 101.946 276.22 100.405 278.296C98.7661 283.114 97.8632 288.152 97.7266 293.24C97.3227 310.732 106.258 323.16 109.328 327.056Z" fill="#E17126"/>
<path d="M167.116 139.112C163.649 144.129 159.461 148.608 154.689 152.404C152.675 147.694 150.563 141.902 147.356 135.956C143.261 128.35 136.743 119.352 125.782 109.963C131 111.749 136.057 113.974 140.9 116.612C155.266 124.466 163.239 133.818 167.116 139.112Z" fill="#F9E0AE"/>
<path d="M355.886 49.8943C353.867 48.3347 346.317 53.5729 341.644 59.7992C338.363 64.2566 336.229 69.4529 335.43 74.9298C308.376 82.9577 284.635 99.5028 267.737 122.105C243.341 117.019 218.128 117.322 193.861 122.994C175.94 99.9023 151.883 82.3201 124.44 72.2579C123.806 68.3988 122.292 64.7376 120.016 61.5577C116.567 56.773 108.682 51.1868 106.668 50.7643C106.09 50.5678 105.463 50.5678 104.885 50.7643C102.474 52.007 104.264 61.595 106.668 68.6787C107.843 72.1522 109.005 74.557 108.446 74.8925C107.7 75.3648 105.14 71.1642 99.5473 67.7715C97.5092 66.5287 93.1533 63.8941 91.5377 65.0995C90.0402 66.218 90.4876 70.9281 97.7515 85.5741C91.4991 103.356 89.2153 122.292 91.0606 141.051C92.9059 159.81 98.8355 177.937 108.433 194.161C107.845 207.831 107.252 221.479 106.656 235.104C100.179 237.994 94.6342 242.631 90.6429 248.494C83.1491 259.561 84.0501 271.075 84.4291 274.307L104.009 269.857C100.698 276.506 98.8762 283.796 98.6712 291.221C98.2238 308.737 107.172 321.14 110.241 325.042C113.805 319.477 118.7 314.888 124.483 311.689C128.629 309.415 133.15 307.908 137.831 307.24C136.909 312.083 137.243 317.082 138.802 321.76C140.361 326.437 143.092 330.637 146.735 333.959C150.14 329.92 155.677 324.639 163.643 322.389C178.009 318.319 191.543 326.552 197.465 329.51C211.931 336.737 236.954 340.484 282.917 322.389C290.524 321.182 298.318 322.429 305.169 325.95C309.689 328.338 313.637 331.679 316.739 335.743C319.913 331.802 322.126 327.177 323.205 322.233C324.283 317.29 324.197 312.163 322.953 307.258C335.34 310.385 346.125 317.998 353.22 328.622C358.309 319.472 361.415 309.354 362.335 298.926C363.254 288.497 361.967 277.991 358.558 268.093L381.698 272.542C379.985 264.141 376.473 256.211 371.402 249.298C366.332 242.384 359.823 236.652 352.326 232.494V194.192C370.892 160.181 375.367 120.241 364.791 82.9643C369.42 71.2326 369.507 67.641 368.351 66.9451C365.611 65.286 355.401 79.497 352.326 77.6266C350.461 76.4957 351.971 70.0209 354.109 60.7126C355.855 53.0944 356.98 50.7394 355.886 49.8943Z" fill="#F7A440" stroke="#600D0F" stroke-width="4.34968" stroke-miterlimit="10"/>
<path d="M355.886 49.8943C353.867 48.3347 346.317 53.5729 341.644 59.7992C338.363 64.2566 336.229 69.4529 335.43 74.9298C308.376 82.9577 284.635 99.5028 267.737 122.105C243.341 117.019 218.128 117.322 193.861 122.994C175.94 99.9023 151.883 82.3201 124.44 72.2579C123.806 68.3988 122.292 64.7376 120.016 61.5577C116.567 56.773 108.682 51.1868 106.668 50.7643C106.09 50.5678 105.463 50.5678 104.885 50.7643C102.474 52.007 104.264 61.595 106.668 68.6787C107.843 72.1522 109.005 74.557 108.446 74.8925C107.7 75.3648 105.14 71.1642 99.5473 67.7715C97.5092 66.5287 93.1533 63.8941 91.5377 65.0995C90.0402 66.218 90.4876 70.9281 97.7515 85.5741C91.4991 103.356 89.2153 122.292 91.0606 141.051C92.9059 159.81 98.8355 177.937 108.433 194.161C107.845 207.831 107.252 221.479 106.656 235.104C100.179 237.994 94.6342 242.631 90.6429 248.494C83.1491 259.561 84.0501 271.075 84.4291 274.307L104.009 269.857C100.698 276.506 98.8762 283.796 98.6712 291.221C98.2238 308.737 107.172 321.14 110.241 325.042C113.805 319.477 118.7 314.888 124.483 311.689C128.629 309.415 133.15 307.908 137.831 307.24C136.909 312.083 137.243 317.082 138.802 321.76C140.361 326.437 143.092 330.637 146.735 333.959C150.14 329.92 155.677 324.639 163.643 322.389C178.009 318.319 191.543 326.552 197.465 329.51C211.931 336.737 236.954 340.484 282.917 322.389C290.524 321.182 298.318 322.429 305.169 325.95C309.689 328.338 313.637 331.679 316.739 335.743C319.913 331.802 322.126 327.177 323.205 322.233C324.283 317.29 324.197 312.163 322.953 307.258C335.34 310.385 346.125 317.998 353.22 328.622C358.309 319.472 361.415 309.354 362.335 298.926C363.254 288.497 361.967 277.991 358.558 268.093L381.698 272.542C379.985 264.141 376.473 256.211 371.402 249.298C366.332 242.384 359.823 236.652 352.326 232.494V194.192C370.892 160.181 375.367 120.241 364.791 82.9643C369.42 71.2326 369.507 67.641 368.351 66.9451C365.611 65.286 355.401 79.497 352.326 77.6266C350.461 76.4957 351.971 70.0209 354.109 60.7126C355.855 53.0944 356.98 50.7394 355.886 49.8943Z" fill="#F7A440" stroke="#600D0F" stroke-width="4.34968" stroke-miterlimit="10"/>
<path d="M326.811 259.636C329.222 261.991 330.875 263.594 332.224 265.098C332.789 265.719 333.311 266.341 333.808 266.962C334.809 268.602 335.79 270.342 336.729 272.188C336.729 272.188 338.17 275.027 339.394 278.035C341.066 282.148 344.049 296.378 345.099 315.989C346.76 317.43 348.333 318.97 349.809 320.6C351.089 322.01 352.207 323.383 353.177 324.688C361.488 307.888 363.044 288.541 357.526 270.628C353.369 264.017 349.977 261.307 347.584 260.065C346.72 259.623 329.34 248.88 325.749 248.985C325.463 248.985 320.343 249.203 319.728 251.378C319.311 252.944 321.381 254.342 326.811 259.636Z" fill="#E17126"/>
<path d="M185.801 321.594C189.513 323.086 193.143 324.775 196.675 326.652C209.724 333.033 231.435 336.644 269.377 324.235C281.407 308.246 289.05 287.896 280.86 272.256C280.425 271.411 273.267 258.213 260.386 255.721C255.874 254.851 252.475 255.653 249.12 256.871C243.813 258.803 238.606 261.798 229.236 260.941C220.915 260.189 218.144 257.212 211.508 256.125C209.718 255.837 207.908 255.702 206.095 255.721C203.193 255.721 193.767 255.758 187.404 260.071C173.56 269.447 174.194 299.044 185.801 321.594Z" fill="white"/>
<path d="M118.686 108.236C114.276 128.669 116.297 149.966 124.471 169.206C132.01 168.345 139.286 165.92 145.834 162.085C154.476 156.965 161.554 149.579 166.302 140.728C161.333 132.069 154.468 124.647 146.221 119.02C137.975 113.392 128.561 109.706 118.686 108.236V108.236Z" fill="#F8F6DE" stroke="#600D0F" stroke-width="4.34968" stroke-miterlimit="10"/>
<path d="M341.203 107.304C345.612 127.737 343.592 149.034 335.418 168.274C327.879 167.413 320.602 164.988 314.055 161.153C305.4 156.037 298.309 148.651 293.549 139.796C298.52 131.137 305.387 123.716 313.634 118.089C321.882 112.461 331.296 108.774 341.172 107.304H341.203Z" fill="#F8F6DE" stroke="#600D0F" stroke-width="4.34968" stroke-miterlimit="10"/>
<path d="M284.682 245.717C276.325 245.717 269.551 237.148 269.551 226.578C269.551 216.008 276.325 207.44 284.682 207.44C293.038 207.44 299.812 216.008 299.812 226.578C299.812 237.148 293.038 245.717 284.682 245.717Z" fill="#600C0D"/>
<path d="M176.984 245.717C168.627 245.717 161.853 237.148 161.853 226.578C161.853 216.008 168.627 207.44 176.984 207.44C185.34 207.44 192.115 216.008 192.115 226.578C192.115 237.148 185.34 245.717 176.984 245.717Z" fill="#600C0D"/>
<path d="M283.751 219.385C281.894 217.086 281.942 213.967 283.858 212.419C285.775 210.871 288.834 211.48 290.691 213.78C292.549 216.079 292.5 219.198 290.584 220.746C288.667 222.294 285.608 221.685 283.751 219.385Z" fill="white"/>
<path d="M177.852 219.044C175.997 216.753 176.04 213.643 177.95 212.096C179.859 210.549 182.911 211.152 184.767 213.443C186.622 215.734 186.579 218.844 184.669 220.391C182.76 221.938 179.708 221.335 177.852 219.044Z" fill="white"/>
<path d="M182.589 195.259C178.246 192.053 176.658 186.836 179.042 183.605C181.426 180.375 186.88 180.355 191.223 183.56C195.567 186.766 197.155 191.984 194.77 195.214C192.386 198.445 186.932 198.465 182.589 195.259Z" fill="#600E11"/>
<path d="M265.851 194.888C263.466 191.657 265.054 186.44 269.398 183.234C273.741 180.028 279.195 180.049 281.579 183.279C283.964 186.51 282.376 191.727 278.032 194.933C273.689 198.139 268.235 198.119 265.851 194.888Z" fill="#600E11"/>
<path d="M229.944 180.739C224.292 180.739 219.71 170.776 219.71 158.487C219.71 146.198 224.292 136.235 229.944 136.235C235.597 136.235 240.179 146.198 240.179 158.487C240.179 170.776 235.597 180.739 229.944 180.739Z" fill="#E17126"/>
<path d="M189.474 169.023C185.338 167.405 184.188 160.468 186.904 153.53C189.62 146.593 195.174 142.281 199.309 143.9C203.445 145.519 204.595 152.455 201.879 159.393C199.163 166.331 193.609 170.642 189.474 169.023Z" fill="#E17126"/>
<path d="M260.194 158.428C257.736 151.424 259.127 144.559 263.301 143.094C267.475 141.628 272.852 146.118 275.311 153.121C277.77 160.124 276.379 166.99 272.204 168.455C268.03 169.921 262.653 165.431 260.194 158.428Z" fill="#E17126"/>
<path d="M321.86 210.388C316.116 205.643 313.751 199.022 316.578 195.598C319.406 192.174 326.355 193.244 332.1 197.988C337.845 202.732 340.21 209.353 337.382 212.778C334.555 216.202 327.605 215.132 321.86 210.388Z" fill="#E17126"/>
<path d="M120.973 211.239C119.108 207.209 123.077 201.405 129.838 198.275C136.599 195.145 143.592 195.875 145.458 199.905C147.323 203.935 143.355 209.739 136.593 212.869C129.832 215.999 122.839 215.269 120.973 211.239Z" fill="#E17126"/>
<path d="M345.409 245.31C338.957 241.585 335.052 236.269 336.687 233.437C338.323 230.604 344.879 231.328 351.331 235.053C357.783 238.778 361.688 244.094 360.053 246.927C358.418 249.759 351.862 249.035 345.409 245.31Z" fill="#E17126"/>
<path d="M99.5795 247.07C97.9442 244.238 101.849 238.922 108.301 235.197C114.754 231.471 121.31 230.747 122.945 233.58C124.58 236.412 120.676 241.728 114.223 245.453C107.771 249.179 101.215 249.902 99.5795 247.07Z" fill="#E17126"/>
<path d="M308.748 265.601C315.819 267.465 320.119 275.736 321.213 282.509C321.958 287.157 321.977 295.899 317.652 297.639C315.067 298.683 311.575 296.975 309.636 294.974C307.368 292.619 308.263 290.922 306.076 285.181C304.143 280.098 302.876 279.93 301.627 275.388C300.769 272.281 299.763 268.503 301.627 266.489C303.684 264.271 308.127 265.439 308.748 265.601Z" fill="#E17126"/>
<path d="M150.128 267.185C143.063 269.05 138.763 277.32 137.669 284.093C136.917 288.741 136.899 297.478 141.23 299.224C143.808 300.268 147.301 298.559 149.239 296.558C151.507 294.203 150.613 292.507 152.8 286.765C154.732 281.682 156.006 281.515 157.249 276.972C158.106 273.865 159.113 270.087 157.249 268.074C155.167 265.856 150.731 267.024 150.128 267.185Z" fill="#E17126"/>
<path d="M219.704 253.726C215.23 254.683 212.956 255.211 211.694 257.281C209.24 261.332 213.061 267.328 213.478 267.962C218.001 274.884 226.887 275.848 229.497 275.978C229.814 275.978 230.367 276.015 231.112 275.978C231.858 275.941 245.292 275.568 249.077 267.049C249.313 266.527 251.301 261.866 249.077 258.151C247.523 255.547 244.727 254.82 240.178 253.701C237.972 253.18 230.249 251.458 219.704 253.726Z" fill="#600E11"/>
<path d="M229.497 282.204C233.169 291.009 241.601 296.353 249.971 295.558C258.602 294.738 263.486 287.728 264.207 286.653" stroke="#600F12" stroke-width="4.34968" stroke-miterlimit="10"/>
<path d="M230.385 264.402C230.091 270.334 229.795 276.268 229.497 282.204C227.85 288.946 222.662 294.166 216.143 295.558C208.476 297.198 200.323 293.228 196.564 285.765" stroke="#600F12" stroke-width="4.34968" stroke-miterlimit="10"/>
<path d="M262.456 287.072C259.823 283.821 258.845 280.249 260.272 279.093C261.698 277.938 264.989 279.636 267.623 282.887C270.256 286.137 271.234 289.709 269.807 290.865C268.381 292.021 265.09 290.322 262.456 287.072Z" fill="#600F12" stroke="#600F12" stroke-width="0.621382" stroke-miterlimit="10"/>
<path d="M191.563 291.524C190.136 290.368 191.115 286.796 193.748 283.546C196.381 280.295 199.672 278.597 201.099 279.752C202.526 280.908 201.547 284.48 198.914 287.731C196.281 290.981 192.99 292.68 191.563 291.524Z" fill="#600F12" stroke="#600F12" stroke-width="0.621382" stroke-miterlimit="10"/>
<path d="M141.826 83.306C163.589 95.7936 180.266 115.537 188.939 139.081C196.756 136.583 204.787 134.817 212.931 133.806C220.299 132.929 227.725 132.636 235.139 132.93C261.653 133.911 268.768 141.194 276.007 135.564C277.039 134.769 280.842 129.176 288.435 117.985C289.156 116.929 289.777 116.009 290.299 115.239C291.268 113.803 291.971 112.753 291.996 112.71C293.027 111.169 299.682 103.973 317.161 85.9904C313.236 87.4855 309.407 89.2225 305.697 91.1914C287.54 100.823 275.672 114.245 268.377 124.597C258.149 122.482 247.749 121.305 237.308 121.08C222.966 120.775 208.641 122.251 194.662 125.473C185.951 113.931 175.464 103.843 163.593 95.5846C156.731 90.8294 149.445 86.719 141.826 83.306V83.306Z" fill="#FFF8CE"/>
<path d="M136.091 256.423C133.605 258.84 131.865 260.493 130.498 262.016C129.914 262.637 129.38 263.296 128.864 263.948C127.853 265.605 126.876 267.374 125.931 269.255C125.931 269.255 124.483 272.15 123.296 275.17C121.65 279.352 119.071 293.259 118.947 312.267C117.536 313.59 116.076 315.038 114.597 316.616C113.006 318.313 111.559 319.984 110.247 321.588C105.043 314.03 101.854 305.269 100.984 296.135C100.115 287 101.592 277.795 105.276 269.391C106.41 267.49 107.686 265.677 109.092 263.967C113.118 259.095 117.698 255.709 122.917 251.955C123.197 251.75 123.47 251.545 123.744 251.334C129.541 247.152 132.946 245.704 136.83 245.742C137.141 245.742 142.684 245.81 143.435 247.966C143.926 249.507 141.739 250.974 136.091 256.423Z" fill="#E17126"/>
<path d="M326.961 114.425C319.737 120.491 313.959 128.093 310.047 136.677C307.998 141.228 306.504 146.01 305.598 150.919C303.203 148.848 301.111 146.451 299.384 143.798C298.554 142.515 297.81 141.178 297.159 139.796C303.549 127.882 314.201 118.821 326.986 114.425H326.961Z" fill="#FCC289"/>
<path d="M162.785 140.473C158.484 132.88 152.525 126.355 145.35 121.386C138.176 116.418 129.972 113.133 121.351 111.778C130.889 115.534 139.278 121.72 145.684 129.723C150.456 135.747 153.986 142.658 156.068 150.055C157.757 148.456 159.25 146.662 160.517 144.711C161.391 143.365 162.15 141.947 162.785 140.473V140.473Z" fill="#FCC289"/>
</svg>
