<svg width="73" height="73" viewBox="0 0 73 73" fill="none" xmlns="http://www.w3.org/2000/svg">
<path d="M34.8043 14.3242C24.3903 14.3242 15.9459 22.7666 15.9459 33.1826C15.9459 43.5986 24.3882 52.0409 34.8043 52.0409C45.2203 52.0409 53.6626 43.5986 53.6626 33.1826C53.6626 22.7666 45.2196 14.3242 34.8043 14.3242ZM34.8718 47.5703C26.7519 47.5703 20.1698 40.9659 20.1698 32.8189C20.1698 24.672 26.7486 18.0675 34.8685 18.0675C42.9884 18.0675 49.5712 24.6713 49.5712 32.8189C49.5712 40.9665 42.989 47.5703 34.8685 47.5703H34.8718Z" fill="#600C0F"/>
<path d="M46.6208 49.1445C47.1967 48.7187 48.1383 47.7704 48.3039 47.4811C48.6932 47.7629 54.2575 51.7975 56.1649 53.7956C56.5581 54.1887 56.8382 54.6804 56.976 55.2191C56.976 55.2191 56.9801 55.236 56.9835 55.2508C57.1051 55.776 57.1268 56.8731 56.4833 57.7004C55.6519 58.7697 54.2608 58.6846 53.9688 58.6663C52.3642 58.5683 51.4355 57.2921 51.2942 57.0914L46.076 49.5541C46.197 49.4615 46.3863 49.3176 46.6208 49.1445Z" fill="#600C0F"/>
<path d="M23.738 37.0408C23.4034 37.4396 23.2182 37.6606 23.0621 37.912C22.8664 38.3187 22.7038 38.7405 22.5761 39.1733C22.1144 40.7475 22.1955 42.215 22.4172 43.3559C22.0959 43.6538 21.8107 43.9884 21.5676 44.3529C20.556 42.5366 20.2818 40.4008 20.8018 38.3879C20.8971 38.2676 20.9897 38.1581 21.0755 38.0594C21.4728 37.557 21.91 37.0875 22.3828 36.6555C22.985 36.1066 23.3291 35.9079 23.738 35.8809C23.7691 35.8809 24.326 35.8464 24.4139 36.0749C24.4788 36.2357 24.2659 36.4108 23.738 37.0408Z" fill="#E17126"/>
<path d="M47.969 44.3928C47.7496 44.052 47.4839 43.7433 47.1796 43.4756C47.3971 42.1891 47.3234 40.8702 46.9639 39.616C46.8369 39.1841 46.6751 38.7632 46.48 38.3574C46.3218 38.1053 46.1373 37.8843 45.804 37.4862C45.2734 36.8535 45.0605 36.6751 45.1281 36.5176C45.2187 36.2905 45.775 36.3222 45.804 36.3243C46.2096 36.352 46.5584 36.5507 47.1559 37.0989C47.6293 37.5306 48.0667 38.0001 48.4638 38.5028C48.6085 38.667 48.7687 38.8617 48.937 39.0875C49.1149 39.6117 49.2131 40.1597 49.2283 40.7131C49.2749 42.6192 48.3029 43.969 47.969 44.3928Z" fill="#E17126"/>
<path d="M41.683 23.9494C42.06 24.495 42.5156 24.982 43.0348 25.3946C43.2538 24.8829 43.4836 24.2522 43.8324 23.6061C44.2779 22.7787 44.9869 21.7993 46.1792 20.7787C45.6117 20.9729 45.0615 21.2149 44.5347 21.5019C42.974 22.3563 42.1041 23.3735 41.683 23.9494Z" fill="#F9E0AE"/>
<path d="M21.1484 14.2445C21.3687 14.0748 22.19 14.6446 22.6976 15.3219C23.0547 15.8067 23.2869 16.372 23.3735 16.9678C26.3144 17.8418 28.8949 19.6412 30.7317 22.0987C33.3855 21.5463 36.128 21.5795 38.7677 22.1961C40.7176 19.6844 43.3346 17.7719 46.3199 16.6771C46.3902 16.2579 46.5558 15.8604 46.8038 15.5152C47.1796 14.9948 48.0367 14.3871 48.2564 14.3411C48.3193 14.3198 48.3875 14.3198 48.4504 14.3411C48.7126 14.4763 48.518 15.5193 48.2564 16.2898C48.1286 16.6677 48.0022 16.9293 48.0631 16.9658C48.1442 17.0171 48.4227 16.5602 49.031 16.1912C49.2527 16.056 49.7265 15.7694 49.9023 15.9005C50.0652 16.0222 50.0165 16.5345 49.2263 18.1311C49.9062 20.0655 50.1546 22.1253 49.954 24.1659C49.7533 26.2065 49.1086 28.1785 48.0651 29.9435C48.1291 31.4279 48.1935 32.9124 48.2584 34.3972C48.9629 34.7102 49.5663 35.2132 50.0009 35.8498C50.8161 37.0529 50.7188 38.3061 50.6769 38.6576L48.547 38.1736C48.9071 38.8966 49.1053 39.6894 49.1277 40.4968C49.1756 42.4029 48.203 43.752 47.8691 44.1765C47.4816 43.571 46.9491 43.0717 46.3199 42.724C45.8689 42.4767 45.3771 42.3127 44.868 42.24C44.9678 42.7668 44.9312 43.3105 44.7617 43.8192C44.5921 44.3279 44.2953 44.7848 43.8994 45.1465C43.529 44.7064 42.926 44.1326 42.0602 43.8879C40.4968 43.4452 39.0253 44.3401 38.3804 44.6625C36.8075 45.4479 34.0856 45.8562 29.0858 43.8879C28.2592 43.7564 27.4121 43.8913 26.6673 44.2732C26.1757 44.5327 25.7462 44.896 25.4087 45.3378C25.0633 44.9094 24.8223 44.4064 24.705 43.8687C24.5877 43.331 24.5972 42.7734 24.7328 42.24C23.3856 42.5802 22.2127 43.4083 21.441 44.5638C20.8875 43.5686 20.5497 42.468 20.4496 41.3336C20.3496 40.1991 20.4896 39.0564 20.8604 37.9796L18.3406 38.4602C18.5274 37.5465 18.9097 36.684 19.4612 35.9319C20.0127 35.1799 20.7204 34.556 21.5357 34.1032V29.9435C19.5168 26.2436 19.0302 21.8993 20.1804 17.8445C19.6769 16.5683 19.6674 16.1776 19.7931 16.1019C20.0912 15.9215 21.2018 17.4673 21.5357 17.2632C21.7385 17.1408 21.5749 16.4365 21.3424 15.424C21.1524 14.5926 21.0301 14.3364 21.1484 14.2445Z" fill="#F7A440" stroke="#600D0F" stroke-width="0.473148" stroke-miterlimit="10"/>
<path d="M21.1484 14.2445C21.3687 14.0748 22.19 14.6446 22.6976 15.3219C23.0547 15.8067 23.2869 16.372 23.3735 16.9678C26.3144 17.8418 28.8949 19.6412 30.7317 22.0987C33.3855 21.5463 36.128 21.5795 38.7677 22.1961C40.7176 19.6844 43.3346 17.7719 46.3199 16.6771C46.3902 16.2579 46.5558 15.8604 46.8038 15.5152C47.1796 14.9948 48.0367 14.3871 48.2564 14.3411C48.3193 14.3198 48.3875 14.3198 48.4504 14.3411C48.7126 14.4763 48.518 15.5193 48.2564 16.2898C48.1286 16.6677 48.0022 16.9293 48.0631 16.9658C48.1442 17.0171 48.4227 16.5602 49.031 16.1912C49.2527 16.056 49.7265 15.7694 49.9023 15.9005C50.0652 16.0222 50.0165 16.5345 49.2263 18.1311C49.9062 20.0655 50.1546 22.1253 49.954 24.1659C49.7533 26.2065 49.1086 28.1785 48.0651 29.9435C48.1291 31.4279 48.1935 32.9124 48.2584 34.3972C48.9629 34.7102 49.5663 35.2132 50.0009 35.8498C50.8161 37.0529 50.7188 38.3061 50.6769 38.6576L48.547 38.1736C48.9071 38.8966 49.1053 39.6894 49.1277 40.4968C49.1756 42.4029 48.203 43.752 47.8691 44.1765C47.4816 43.571 46.9491 43.0717 46.3199 42.724C45.8689 42.4767 45.3771 42.3127 44.868 42.24C44.9678 42.7668 44.9312 43.3105 44.7617 43.8192C44.5921 44.3279 44.2953 44.7848 43.8994 45.1465C43.529 44.7064 42.926 44.1326 42.0602 43.8879C40.4968 43.4452 39.0253 44.3401 38.3804 44.6625C36.8075 45.4479 34.0856 45.8562 29.0858 43.8879C28.2592 43.7564 27.4121 43.8913 26.6673 44.2732C26.1757 44.5327 25.7462 44.896 25.4087 45.3378C25.0633 44.9094 24.8223 44.4064 24.705 43.8687C24.5877 43.331 24.5972 42.7734 24.7328 42.24C23.3856 42.5802 22.2127 43.4083 21.441 44.5638C20.8875 43.5686 20.5497 42.468 20.4496 41.3336C20.3496 40.1991 20.4896 39.0564 20.8604 37.9796L18.3406 38.4602C18.5274 37.5465 18.9097 36.684 19.4612 35.9319C20.0127 35.1799 20.7204 34.556 21.5357 34.1032V29.9435C19.5168 26.2436 19.0302 21.8993 20.1804 17.8445C19.6769 16.5683 19.6674 16.1776 19.7931 16.1019C20.0912 15.9215 21.2018 17.4673 21.5357 17.2632C21.7385 17.1408 21.5749 16.4365 21.3424 15.424C21.1524 14.5926 21.0301 14.3364 21.1484 14.2445Z" fill="#F7A440" stroke="#600D0F" stroke-width="0.473148" stroke-miterlimit="10"/>
<path d="M24.3117 37.0597C24.0495 37.3159 23.8697 37.4902 23.7223 37.6538C23.6615 37.7214 23.6047 37.789 23.55 37.8566C23.4409 38.0368 23.3353 38.2263 23.233 38.4251C23.233 38.4251 23.0762 38.734 22.943 39.0611C22.7612 39.5079 22.4367 41.0564 22.3225 43.1897C22.1417 43.3466 21.9704 43.514 21.8095 43.6912C21.6709 43.844 21.5492 43.994 21.4438 44.1359C20.5397 42.3084 20.3704 40.2039 20.9706 38.2554C21.4228 37.5355 21.7912 37.2415 22.0521 37.1063C22.1454 37.0577 24.0366 35.8897 24.4273 35.9011C24.4584 35.9011 25.0154 35.9248 25.0823 36.1614C25.1289 36.3304 24.9025 36.4838 24.3117 37.0597Z" fill="#E17126"/>
<path d="M39.6506 43.8C39.2468 43.9622 38.852 44.1459 38.4678 44.3502C37.0483 45.0437 34.6866 45.4371 30.5594 44.0866C29.2495 42.3461 28.4215 40.1345 29.3124 38.4331C29.3597 38.3412 30.1383 36.9056 31.5389 36.6345C32.0302 36.5399 32.4 36.6271 32.765 36.7596C33.3415 36.9698 33.908 37.2956 34.9279 37.2023C35.833 37.1198 36.1345 36.7967 36.8564 36.6778C37.0515 36.6469 37.2489 36.6326 37.4464 36.6352C37.7621 36.6352 38.7875 36.6392 39.4796 37.1083C40.9822 38.127 40.9133 41.3464 39.6506 43.8Z" fill="white"/>
<path d="M46.9514 20.5907C47.4311 22.8134 47.2112 25.1301 46.3221 27.2229C45.502 27.1293 44.7105 26.8655 43.9983 26.4483C43.0584 25.8911 42.2887 25.0875 41.7725 24.1245C42.3134 23.1828 43.0604 22.3757 43.9575 21.7638C44.8546 21.1518 45.8786 20.7508 46.9528 20.5907H46.9514Z" fill="#F8F6DE" stroke="#600D0F" stroke-width="0.473148" stroke-miterlimit="10"/>
<path d="M22.7462 20.4893C22.2666 22.712 22.4864 25.0287 23.3755 27.1215C24.1956 27.0279 24.9871 26.7641 25.6993 26.3469C26.6394 25.7897 27.4093 24.9861 27.9258 24.0231C27.3852 23.0813 26.6383 22.2742 25.7413 21.6622C24.8442 21.0502 23.8203 20.6492 22.7462 20.4893V20.4893Z" fill="#F8F6DE" stroke="#600D0F" stroke-width="0.473148" stroke-miterlimit="10"/>
<path d="M28.8945 35.5449C29.8035 35.5449 30.5404 34.6129 30.5404 33.4631C30.5404 32.3133 29.8035 31.3812 28.8945 31.3812C27.9855 31.3812 27.2487 32.3133 27.2487 33.4631C27.2487 34.6129 27.9855 35.5449 28.8945 35.5449Z" fill="#600C0D"/>
<path d="M40.6095 35.5449C41.5185 35.5449 42.2554 34.6129 42.2554 33.4631C42.2554 32.3133 41.5185 31.3812 40.6095 31.3812C39.7005 31.3812 38.9636 32.3133 38.9636 33.4631C38.9636 34.6129 39.7005 35.5449 40.6095 35.5449Z" fill="#600C0D"/>
<path d="M28.9961 32.682C29.1982 32.4319 29.1929 32.0926 28.9844 31.9242C28.776 31.7559 28.4432 31.8221 28.2412 32.0722C28.0391 32.3224 28.0444 32.6616 28.2529 32.83C28.4613 32.9984 28.7941 32.9321 28.9961 32.682Z" fill="white"/>
<path d="M40.5155 32.6444C40.7174 32.3953 40.7126 32.0569 40.505 31.8886C40.2973 31.7204 39.9653 31.786 39.7634 32.0352C39.5616 32.2843 39.5663 32.6227 39.774 32.791C39.9817 32.9592 40.3137 32.8936 40.5155 32.6444Z" fill="white"/>
<path d="M39.9998 30.0572C40.4723 29.7085 40.645 29.1409 40.3856 28.7895C40.1263 28.4381 39.533 28.4359 39.0605 28.7846C38.5881 29.1333 38.4153 29.7009 38.6747 30.0523C38.9341 30.4037 39.5273 30.4059 39.9998 30.0572Z" fill="#600E11"/>
<path d="M30.9431 30.0164C31.2025 29.6649 31.0297 29.0974 30.5573 28.7487C30.0848 28.4 29.4916 28.4022 29.2322 28.7536C28.9728 29.105 29.1456 29.6725 29.618 30.0213C30.0905 30.37 30.6837 30.3678 30.9431 30.0164Z" fill="#600E11"/>
<path d="M34.8488 28.4768C35.4637 28.4768 35.9621 27.3931 35.9621 26.0563C35.9621 24.7195 35.4637 23.6358 34.8488 23.6358C34.234 23.6358 33.7356 24.7195 33.7356 26.0563C33.7356 27.3931 34.234 28.4768 34.8488 28.4768Z" fill="#E17126"/>
<path d="M39.2506 27.2028C39.7004 27.0267 39.8255 26.2721 39.5301 25.5175C39.2346 24.7628 38.6305 24.2938 38.1807 24.4699C37.7309 24.646 37.6057 25.4005 37.9012 26.1552C38.1966 26.9098 38.8008 27.3789 39.2506 27.2028Z" fill="#E17126"/>
<path d="M31.5574 26.0487C31.8249 25.2869 31.6736 24.5401 31.2195 24.3807C30.7654 24.2213 30.1805 24.7096 29.9131 25.4714C29.6456 26.2333 29.7969 26.9801 30.251 27.1395C30.7051 27.2989 31.29 26.8105 31.5574 26.0487Z" fill="#E17126"/>
<path d="M24.8505 31.7024C25.4754 31.1864 25.7326 30.4661 25.425 30.0936C25.1174 29.7212 24.3615 29.8376 23.7366 30.3536C23.1117 30.8697 22.8545 31.5899 23.162 31.9624C23.4696 32.3349 24.2256 32.2185 24.8505 31.7024Z" fill="#E17126"/>
<path d="M46.7014 31.7945C46.9044 31.3561 46.4726 30.7248 45.7372 30.3843C45.0017 30.0438 44.241 30.1232 44.0381 30.5616C43.8352 31 44.2669 31.6313 45.0023 31.9718C45.7378 32.3122 46.4985 32.2328 46.7014 31.7945Z" fill="#E17126"/>
<path d="M22.2888 35.5011C22.9906 35.0959 23.4154 34.5177 23.2375 34.2096C23.0597 33.9015 22.3465 33.9802 21.6446 34.3854C20.9428 34.7906 20.518 35.3689 20.6959 35.677C20.8737 35.9851 21.5869 35.9064 22.2888 35.5011Z" fill="#E17126"/>
<path d="M49.0293 35.6928C49.2072 35.3847 48.7824 34.8064 48.0805 34.4012C47.3787 33.996 46.6655 33.9172 46.4876 34.2253C46.3097 34.5334 46.7345 35.1117 47.4364 35.5169C48.1382 35.9221 48.8514 36.0009 49.0293 35.6928Z" fill="#E17126"/>
<path d="M26.2794 37.7086C25.5102 37.9113 25.0425 38.811 24.9235 39.5478C24.8424 40.0527 24.8397 41.0037 25.3108 41.1936C25.592 41.3072 25.9718 41.1213 26.1821 40.903C26.4294 40.6475 26.3314 40.463 26.5694 39.8384C26.7803 39.2855 26.9181 39.2672 27.054 38.7731C27.1473 38.4352 27.2568 38.0242 27.054 37.8052C26.8276 37.5639 26.3443 37.691 26.2794 37.7086Z" fill="#E17126"/>
<path d="M43.5298 37.8802C44.2984 38.083 44.7661 38.9833 44.8851 39.7201C44.9668 40.225 44.9689 41.176 44.4978 41.366C44.2166 41.4795 43.8367 41.2937 43.6265 41.0753C43.3798 40.8198 43.4771 40.6353 43.2392 40.0107C43.029 39.4578 42.8904 39.4396 42.7552 38.9455C42.6619 38.6075 42.5524 38.1959 42.7552 37.9776C42.983 37.7363 43.4656 37.8633 43.5298 37.8802Z" fill="#E17126"/>
<path d="M35.9591 36.4162C36.4465 36.521 36.6939 36.5784 36.8311 36.8035C37.0981 37.2435 36.6824 37.8965 36.6371 37.9654C36.145 38.7184 35.1784 38.8232 34.8945 38.8367C34.8601 38.8367 34.7992 38.8414 34.7188 38.8367C34.6384 38.832 33.1763 38.7921 32.764 37.8654C32.739 37.8079 32.5227 37.3017 32.764 36.8975C32.9337 36.6142 33.2372 36.5352 33.7326 36.4128C33.9753 36.3574 34.8155 36.1702 35.9591 36.4162Z" fill="#600E11"/>
<path d="M34.8974 39.5146C34.4972 40.4724 33.5807 41.0537 32.6702 40.9672C31.7313 40.878 31.2001 40.1155 31.121 39.9986" stroke="#600F12" stroke-width="0.473148" stroke-miterlimit="10"/>
<path d="M34.8008 37.5815C34.8328 38.2268 34.865 38.8723 34.8974 39.518C35.0766 40.2514 35.641 40.8192 36.3493 40.9706C37.1834 41.149 38.0709 40.7164 38.4798 39.9053" stroke="#600F12" stroke-width="0.473148" stroke-miterlimit="10"/>
<path d="M31.3117 40.0437C31.5981 39.6901 31.7045 39.3015 31.5494 39.1758C31.3942 39.0501 31.0362 39.2348 30.7497 39.5884C30.4633 39.942 30.3569 40.3306 30.5121 40.4563C30.6673 40.582 31.0253 40.3973 31.3117 40.0437Z" fill="#600F12" stroke="#600F12" stroke-width="0.0675926" stroke-miterlimit="10"/>
<path d="M39.0237 40.5282C39.1789 40.4025 39.0725 40.014 38.7861 39.6604C38.4996 39.3068 38.1416 39.122 37.9864 39.2477C37.8312 39.3735 37.9376 39.762 38.2241 40.1156C38.5105 40.4692 38.8685 40.6539 39.0237 40.5282Z" fill="#600F12" stroke="#600F12" stroke-width="0.0675926" stroke-miterlimit="10"/>
<path d="M44.434 17.8755C42.0665 19.2336 40.2523 21.3814 39.3092 23.9427C38.46 23.6711 37.5875 23.479 36.7028 23.3688C35.9013 23.2734 35.0935 23.2416 34.287 23.2735C31.4029 23.3803 30.6289 24.1725 29.8415 23.5601C29.7293 23.4736 29.3156 22.8652 28.4896 21.6479C28.4112 21.533 28.3436 21.4332 28.2868 21.3485L28.1023 21.074C27.9901 20.9064 27.2662 20.123 25.3641 18.1675C25.7913 18.3301 26.208 18.5188 26.6119 18.7326C28.5863 19.781 29.878 21.241 30.6708 22.3671C33.3204 21.8206 36.0568 21.8531 38.6927 22.4624C39.6403 21.2068 40.781 20.1095 42.0723 19.2112C42.8168 18.6942 43.6074 18.2471 44.434 17.8755V17.8755Z" fill="#FFF8CE"/>
<path d="M45.058 36.7102C45.3283 36.9731 45.5176 37.1529 45.6663 37.3185C45.7292 37.3861 45.7873 37.4578 45.8434 37.5288C45.9536 37.7099 46.061 37.9025 46.1631 38.106C46.1631 38.106 46.3206 38.421 46.4497 38.7495C46.6281 39.2044 46.9093 40.7171 46.9228 42.7848C47.0763 42.9287 47.2351 43.0862 47.396 43.2579C47.569 43.4424 47.7265 43.6243 47.8691 43.7986C48.4353 42.9766 48.7821 42.0236 48.8767 41.03C48.9714 40.0363 48.8107 39.035 48.4099 38.1209C48.2867 37.9137 48.1478 37.7165 47.9942 37.5308C47.5569 37.0009 47.0587 36.6325 46.4909 36.2242C46.4605 36.2019 46.4301 36.1796 46.4004 36.1566C45.7704 35.7017 45.4 35.5442 44.9809 35.5483C44.9471 35.5483 44.3442 35.5557 44.2624 35.7903C44.2056 35.9593 44.4436 36.1174 45.058 36.7102Z" fill="#E17126"/>
<path d="M24.2954 21.2639C25.081 21.9239 25.7093 22.7508 26.1346 23.6844C26.358 24.1794 26.5207 24.6996 26.6193 25.2337C26.88 25.0086 27.1076 24.7478 27.2952 24.459C27.3862 24.3197 27.467 24.174 27.5372 24.0231C26.8421 22.7273 25.6833 21.7419 24.2927 21.2639H24.2954Z" fill="#FCC289"/>
<path d="M42.1536 24.0947C42.6216 23.2688 43.2701 22.5591 44.0506 22.0187C44.8311 21.4782 45.7235 21.1209 46.6613 20.9733C45.7519 21.3267 44.9372 21.8868 44.2818 22.6095C43.6263 23.3322 43.1481 24.1975 42.8849 25.137C42.5733 24.8425 42.3245 24.4879 42.1536 24.0947V24.0947Z" fill="#FCC289"/>
</svg>
