<svg width="32" height="36" viewBox="0 0 32 36" fill="none" xmlns="http://www.w3.org/2000/svg">
<path d="M23.7339 28.5864C24.1819 28.2552 24.9142 27.5176 25.043 27.2931C25.3458 27.5118 29.6732 30.6499 31.1574 32.2045C31.3151 32.368 31.6521 32.7387 31.7882 33.3117C31.7882 33.3117 31.7914 33.3244 31.794 33.3359C31.8887 33.7444 31.9055 34.5977 31.405 35.2412C30.7583 36.0729 29.6764 36.0067 29.4492 35.993C28.2011 35.9163 27.4788 34.9242 27.3689 34.768L23.3102 28.9055C23.4043 28.8335 23.5515 28.7215 23.7339 28.5864Z" fill="#E6E7E8"/>
<path d="M14.6681 1.24747C6.56805 1.24747 0 7.81395 0 15.9156C0 24.0172 6.56648 30.5837 14.6681 30.5837C22.7698 30.5837 29.3362 24.0172 29.3362 15.9156C29.3362 7.81395 22.7687 1.24747 14.6681 1.24747ZM14.7181 27.1065C8.40236 27.1065 3.28271 21.9695 3.28271 15.6327C3.28271 9.296 8.40236 4.15901 14.7181 4.15901C21.0338 4.15901 26.1539 9.296 26.1539 15.6327C26.1539 21.9695 21.0338 27.1065 14.7181 27.1065Z" fill="#E6E7E8"/>
<path d="M6.16905 18.7561C5.90881 19.0668 5.76476 19.2382 5.64332 19.4343C5.49096 19.7491 5.36454 20.0758 5.26531 20.4112C4.90623 21.6356 4.96932 22.777 5.14229 23.6644C4.89219 23.8961 4.67021 24.1564 4.48091 24.4399C3.69461 23.0278 3.48135 21.3674 3.88524 19.8024C3.9599 19.7088 4.0314 19.6241 4.09817 19.5468C4.40719 19.1561 4.74722 18.7909 5.11495 18.4549C5.58338 18.028 5.85098 17.8766 6.16905 17.8524C6.19324 17.8524 6.62645 17.8256 6.69479 18.0033C6.74526 18.1284 6.58176 18.2646 6.16905 18.7561Z" fill="#E17126"/>
<path d="M25.0162 24.4736C24.8458 24.2083 24.6393 23.968 24.4027 23.7596C24.5715 22.7589 24.514 21.7332 24.2345 20.7576C24.1358 20.4222 24.0099 20.0953 23.858 19.7803C23.735 19.5847 23.5915 19.4123 23.3323 19.1026C22.9196 18.6105 22.754 18.4717 22.8066 18.3492C22.8765 18.1726 23.3092 18.1973 23.3323 18.1989C23.6478 18.2204 23.919 18.375 24.3869 18.8014C24.7546 19.1373 25.0945 19.5025 25.4032 19.8933C25.5157 20.0211 25.6408 20.1725 25.7712 20.3481C25.9099 20.7558 25.9862 21.182 25.9978 21.6125C26.032 23.0924 25.276 24.1439 25.0162 24.4736Z" fill="#E17126"/>
<path d="M20.1268 8.57205C20.4202 8.9965 20.7745 9.37542 21.1783 9.6966C21.3486 9.29809 21.5274 8.8081 21.7987 8.30497C22.1451 7.66147 22.6966 6.9002 23.624 6.1058C23.1826 6.25692 22.7547 6.44511 22.3449 6.66835C21.1294 7.33288 20.4549 8.12412 20.1268 8.57205Z" fill="#F9E0AE"/>
<path d="M4.15548 1.02351C4.32634 0.891549 4.96511 1.33475 5.36047 1.86154C5.63808 2.23867 5.81863 2.67832 5.88621 3.14171C8.17524 3.82093 10.1839 5.22078 11.6136 7.13312C13.6777 6.7028 15.8109 6.72845 17.8641 7.2083C19.3803 5.25458 21.4158 3.76699 23.7377 2.91564C23.7913 2.58914 23.9194 2.27937 24.112 2.01032C24.4038 1.6055 25.0709 1.13286 25.2413 1.09711C25.2902 1.08049 25.3433 1.08049 25.3922 1.09711C25.5962 1.20226 25.4447 2.01348 25.2413 2.61282C25.1419 2.90671 25.0436 3.11017 25.0909 3.13856C25.154 3.17851 25.3706 2.82311 25.8438 2.53606C26.0162 2.43091 26.3848 2.208 26.5215 2.30999C26.6482 2.40463 26.6103 2.80314 25.9957 4.0423C26.5247 5.54683 26.718 7.14893 26.5618 8.73608C26.4057 10.3232 25.904 11.857 25.092 13.2296C25.1417 14.3862 25.1919 15.5409 25.2423 16.6937C25.7904 16.9383 26.2595 17.3306 26.5972 17.8267C27.2312 18.763 27.155 19.7372 27.1229 20.0106L25.4663 19.6341C25.7464 20.1966 25.9006 20.8135 25.9179 21.4416C25.9558 22.9237 25.1987 23.9731 24.939 24.3032C24.6374 23.8323 24.2233 23.444 23.734 23.1734C23.3833 22.9811 23.0007 22.8535 22.6047 22.797C22.6827 23.2068 22.6544 23.6297 22.5225 24.0255C22.3907 24.4212 22.1596 24.7766 21.8513 25.0577C21.5632 24.7159 21.0948 24.2691 20.4208 24.0787C19.2053 23.7344 18.0602 24.431 17.5592 24.6812C16.3353 25.2927 14.2181 25.6097 10.3292 24.0787C9.6856 23.9766 9.02619 24.0821 8.44656 24.38C8.0641 24.582 7.73009 24.8647 7.46763 25.2085C7.1991 24.8751 7.01181 24.4838 6.92057 24.0656C6.82932 23.6473 6.83662 23.2135 6.94189 22.7986C5.89387 23.0631 4.98132 23.7072 4.38102 24.6061C3.95044 23.832 3.6877 22.9759 3.60989 22.0935C3.53208 21.2112 3.64095 20.3223 3.92941 19.4848L1.97156 19.8613C2.11649 19.1505 2.41369 18.4796 2.8427 17.8946C3.27171 17.3097 3.82235 16.8247 4.45672 16.4729V13.2322C2.8859 10.3546 2.5072 6.97543 3.40209 3.82149C3.01042 2.8289 3.00306 2.52502 3.10084 2.46614C3.33269 2.32577 4.19648 3.52813 4.45672 3.36988C4.61445 3.2742 4.48669 2.72638 4.30584 1.93882C4.15811 1.29427 4.06295 1.09501 4.15548 1.02351Z" fill="#F7A440" stroke="#600D0F" stroke-width="0.368017" stroke-miterlimit="10"/>
<path d="M6.6154 18.7693C6.41142 18.9686 6.27157 19.1042 6.15748 19.2314C6.10964 19.284 6.06548 19.3366 6.02342 19.3892C5.93878 19.528 5.85571 19.6752 5.77632 19.8313C5.77632 19.8313 5.65435 20.0716 5.55078 20.326C5.40936 20.6741 5.157 21.878 5.06815 23.5372C4.92761 23.6592 4.79454 23.7894 4.66964 23.9273C4.56134 24.0467 4.46671 24.1629 4.38469 24.2733C3.68152 22.8518 3.54981 21.2149 4.01667 19.6993C4.36839 19.14 4.65545 18.9107 4.85786 18.8056C4.93093 18.7683 6.40143 17.8593 6.7053 17.8682C6.72949 17.8682 7.1627 17.8866 7.21474 18.0706C7.24997 18.2031 7.0749 18.3214 6.6154 18.7693Z" fill="#E17126"/>
<path d="M18.546 24.0114C18.2319 24.1377 17.9248 24.2805 17.6259 24.4394C16.5219 24.9793 14.6849 25.2847 11.4748 24.2348C10.4569 22.8821 9.81029 21.1603 10.5032 19.837C10.54 19.7655 11.1457 18.6489 12.2355 18.438C12.6172 18.3644 12.9048 18.4323 13.1887 18.5353C13.6377 18.6988 14.0782 18.9522 14.8711 18.8797C15.575 18.8161 15.8095 18.5642 16.371 18.4722C16.5224 18.4479 16.6756 18.4365 16.8289 18.438C17.0744 18.438 17.872 18.4412 18.4103 18.8061C19.5817 19.5994 19.528 22.1035 18.546 24.0114Z" fill="white"/>
<path d="M24.2244 5.95969C24.5975 7.68851 24.4265 9.49043 23.735 11.1182C23.0971 11.0454 22.4814 10.8402 21.9275 10.5157C21.1963 10.0825 20.5975 9.45768 20.1957 8.70878C20.6161 7.97613 21.197 7.34819 21.8947 6.87208C22.5924 6.39596 23.3889 6.08403 24.2244 5.95969Z" fill="#F8F6DE" stroke="#600D0F" stroke-width="0.368017" stroke-miterlimit="10"/>
<path d="M5.39779 5.88083C5.02471 7.60966 5.19568 9.41157 5.88725 11.0394C6.52512 10.9666 7.14076 10.7614 7.69474 10.4369C8.42699 10.004 9.02693 9.37915 9.42968 8.62992C9.00909 7.89731 8.42812 7.26941 7.73031 6.79331C7.0325 6.3172 6.23596 6.00525 5.40042 5.88083H5.39779Z" fill="#F8F6DE" stroke="#600D0F" stroke-width="0.368017" stroke-miterlimit="10"/>
<path d="M10.1798 17.5916C10.8869 17.5916 11.46 16.8667 11.46 15.9724C11.46 15.0781 10.8869 14.3531 10.1798 14.3531C9.47281 14.3531 8.89966 15.0781 8.89966 15.9724C8.89966 16.8667 9.47281 17.5916 10.1798 17.5916Z" fill="#600C0D"/>
<path d="M19.292 17.5916C19.999 17.5916 20.5722 16.8667 20.5722 15.9724C20.5722 15.0781 19.999 14.3531 19.292 14.3531C18.585 14.3531 18.0118 15.0781 18.0118 15.9724C18.0118 16.8667 18.585 17.5916 19.292 17.5916Z" fill="#600C0D"/>
<path d="M10.2587 15.3638C10.4158 15.1693 10.4118 14.9054 10.2496 14.7744C10.0874 14.6434 9.82861 14.695 9.67148 14.8895C9.51434 15.0841 9.51842 15.3479 9.68058 15.4789C9.84274 15.6099 10.1016 15.5584 10.2587 15.3638Z" fill="white"/>
<path d="M19.2185 15.3349C19.3755 15.1411 19.3718 14.8779 19.2103 14.7471C19.0487 14.6162 18.7905 14.6672 18.6335 14.861C18.4765 15.0548 18.4802 15.318 18.6417 15.4489C18.8033 15.5798 19.0615 15.5287 19.2185 15.3349Z" fill="white"/>
<path d="M18.8177 13.3225C19.1852 13.0513 19.3195 12.6099 19.1178 12.3365C18.9161 12.0632 18.4546 12.0615 18.0871 12.3327C17.7197 12.6039 17.5853 13.0454 17.787 13.3187C17.9888 13.5921 18.4502 13.5938 18.8177 13.3225Z" fill="#600E11"/>
<path d="M11.7732 13.2912C11.9749 13.0178 11.8406 12.5764 11.4731 12.3051C11.1056 12.0339 10.6442 12.0356 10.4424 12.309C10.2407 12.5823 10.375 13.0237 10.7425 13.295C11.11 13.5662 11.5714 13.5645 11.7732 13.2912Z" fill="#600E11"/>
<path d="M14.8111 12.094C15.2893 12.094 15.677 11.2511 15.677 10.2113C15.677 9.17154 15.2893 8.32864 14.8111 8.32864C14.3329 8.32864 13.9452 9.17154 13.9452 10.2113C13.9452 11.2511 14.3329 12.094 14.8111 12.094Z" fill="#E17126"/>
<path d="M18.2352 11.1028C18.5851 10.9658 18.6824 10.3789 18.4526 9.79192C18.2228 9.20493 17.7529 8.84012 17.403 8.97709C17.0532 9.11406 16.9558 9.70095 17.1856 10.2879C17.4154 10.8749 17.8853 11.2397 18.2352 11.1028Z" fill="#E17126"/>
<path d="M12.2517 10.2063C12.4597 9.61376 12.342 9.0329 11.9889 8.90891C11.6357 8.78492 11.1807 9.16476 10.9727 9.7573C10.7647 10.3498 10.8824 10.9307 11.2356 11.0547C11.5887 11.1787 12.0437 10.7989 12.2517 10.2063Z" fill="#E17126"/>
<path d="M7.0343 14.6025C7.52035 14.2011 7.72043 13.6409 7.48119 13.3512C7.24195 13.0615 6.65398 13.152 6.16792 13.5534C5.68187 13.9548 5.48179 14.515 5.72103 14.8047C5.96027 15.0944 6.54824 15.0039 7.0343 14.6025Z" fill="#E17126"/>
<path d="M24.0309 14.6746C24.1888 14.3336 23.853 13.8425 23.2809 13.5777C22.7089 13.3129 22.1172 13.3746 21.9594 13.7156C21.8015 14.0566 22.1373 14.5476 22.7094 14.8125C23.2814 15.0773 23.8731 15.0155 24.0309 14.6746Z" fill="#E17126"/>
<path d="M5.04186 17.5572C5.58777 17.242 5.91817 16.7923 5.77981 16.5526C5.64145 16.313 5.08675 16.3742 4.54083 16.6894C3.99492 17.0046 3.66453 17.4544 3.80288 17.694C3.94124 17.9336 4.49595 17.8724 5.04186 17.5572Z" fill="#E17126"/>
<path d="M25.841 17.7061C25.9793 17.4665 25.6489 17.0167 25.103 16.7015C24.5571 16.3864 24.0024 16.3251 23.864 16.5648C23.7257 16.8044 24.0561 17.2542 24.602 17.5693C25.1479 17.8845 25.7026 17.9458 25.841 17.7061Z" fill="#E17126"/>
<path d="M8.14368 19.274C7.54539 19.4317 7.18158 20.1315 7.08905 20.7045C7.02596 21.0978 7.02438 21.8375 7.3903 21.9847C7.609 22.073 7.90447 21.9284 8.0685 21.7591C8.26039 21.5599 8.18469 21.4164 8.36975 20.9306C8.53325 20.5005 8.6405 20.4863 8.74618 20.102C8.81873 19.8391 8.9039 19.5195 8.74618 19.3492C8.57216 19.1615 8.19625 19.2603 8.14368 19.274Z" fill="#E17126"/>
<path d="M21.5642 19.4081C22.162 19.5658 22.5258 20.2656 22.6183 20.8386C22.6819 21.2319 22.6835 21.9711 22.317 22.1188C22.0989 22.2071 21.8034 22.0625 21.6394 21.8932C21.4475 21.694 21.5232 21.5505 21.3381 21.0647C21.1746 20.6346 21.0668 20.6204 20.9617 20.2361C20.8891 19.9732 20.804 19.6536 20.9617 19.4833C21.1378 19.2956 21.5132 19.3944 21.5642 19.4081Z" fill="#E17126"/>
<path d="M15.6776 18.2693C16.0561 18.3503 16.2485 18.395 16.3552 18.57C16.5629 18.9128 16.2396 19.4201 16.2044 19.4738C15.8216 20.0594 15.0698 20.1409 14.849 20.152C14.8222 20.152 14.7754 20.1551 14.7123 20.152C14.6492 20.1488 13.5126 20.1173 13.1924 19.3965C13.1724 19.3523 13.0042 18.958 13.1924 18.6436C13.3238 18.4233 13.5604 18.3618 13.9453 18.2672C14.1319 18.223 14.7854 18.0774 15.6776 18.2693Z" fill="#600E11"/>
<path d="M14.849 20.6788C14.5383 21.4237 13.8249 21.8759 13.1167 21.8086C12.3864 21.7392 11.9732 21.1462 11.9122 21.0552" stroke="#600F12" stroke-width="0.368017" stroke-miterlimit="10"/>
<path d="M14.7738 19.1725C14.7987 19.6744 14.8237 20.1765 14.849 20.6788C14.9883 21.2492 15.4273 21.6908 15.9788 21.8086C16.6276 21.9474 17.3173 21.6114 17.6354 20.98" stroke="#600F12" stroke-width="0.368017" stroke-miterlimit="10"/>
<path d="M12.0604 21.0906C12.2832 20.8156 12.3659 20.5134 12.2452 20.4156C12.1245 20.3178 11.846 20.4615 11.6233 20.7365C11.4005 21.0116 11.3177 21.3138 11.4384 21.4116C11.5591 21.5094 11.8376 21.3657 12.0604 21.0906Z" fill="#600F12" stroke="#600F12" stroke-width="0.0525739" stroke-miterlimit="10"/>
<path d="M18.0584 21.4673C18.1791 21.3695 18.0964 21.0673 17.8736 20.7923C17.6508 20.5173 17.3723 20.3736 17.2516 20.4714C17.1309 20.5691 17.2137 20.8714 17.4365 21.1464C17.6593 21.4214 17.9377 21.5651 18.0584 21.4673Z" fill="#600F12" stroke="#600F12" stroke-width="0.0525739" stroke-miterlimit="10"/>
<path d="M22.2667 3.85037C20.4254 4.90692 19.0143 6.57739 18.2805 8.5694C17.6192 8.35805 16.9396 8.20863 16.2506 8.12305C15.6272 8.04888 14.9989 8.02409 14.3716 8.04892C12.1283 8.13199 11.5263 8.74816 10.9139 8.27184C10.8266 8.20454 10.5048 7.73138 9.86238 6.78452C9.80139 6.69514 9.74882 6.61734 9.70465 6.55214C9.62264 6.4307 9.56323 6.34185 9.56113 6.33817C9.47385 6.20779 8.91079 5.59898 7.43188 4.07749C7.764 4.20399 8.08795 4.35095 8.40187 4.51754C9.93808 5.33243 10.9422 6.46803 11.5595 7.34391C12.4248 7.16495 13.3047 7.06535 14.1882 7.04634C15.4016 7.02058 16.6136 7.14543 17.7963 7.41804C18.5334 6.44145 19.4206 5.58792 20.425 4.88923C21.0055 4.48691 21.6221 4.13914 22.2667 3.85037Z" fill="#FFF8CE"/>
<path d="M22.7518 18.4975C22.9621 18.702 23.1093 18.8419 23.225 18.9707C23.2744 19.0232 23.3196 19.079 23.3633 19.1342C23.4488 19.2744 23.5315 19.424 23.6114 19.5831C23.6114 19.5831 23.7339 19.8281 23.8343 20.0836C23.9737 20.4375 24.1918 21.6141 24.2024 23.2223C24.3217 23.3343 24.4452 23.4568 24.5704 23.5903C24.705 23.7339 24.8275 23.8753 24.9384 24.0109C25.3787 23.3715 25.6485 22.6303 25.7221 21.8574C25.7957 21.0846 25.6707 20.3057 25.359 19.5947C25.263 19.4338 25.1551 19.2804 25.0362 19.1357C24.6955 18.7236 24.308 18.437 23.8664 18.1195C23.8427 18.1021 23.8196 18.0848 23.7965 18.0669C23.306 17.7131 23.0179 17.5906 22.6893 17.5937C22.663 17.5937 22.194 17.5995 22.1304 17.782C22.0889 17.9123 22.2739 18.0364 22.7518 18.4975Z" fill="#E17126"/>
<path d="M6.60281 6.48331C7.21399 6.99655 7.70289 7.63975 8.03387 8.36598C8.20721 8.7511 8.3336 9.15567 8.4103 9.57097C8.61293 9.39578 8.78991 9.19296 8.93604 8.96848C9.00629 8.85996 9.06917 8.74684 9.12425 8.6299C8.58364 7.62192 7.68235 6.85525 6.60071 6.48331H6.60281Z" fill="#FCC289"/>
<path d="M20.4933 8.68723C20.8572 8.04475 21.3614 7.49272 21.9684 7.07233C22.5754 6.65194 23.2695 6.37404 23.9989 6.25937C23.1919 6.57714 22.4821 7.1006 21.9401 7.7777C21.5364 8.28735 21.2378 8.87205 21.0616 9.49792C20.9187 9.3626 20.7924 9.21083 20.6852 9.04578C20.6112 8.93188 20.547 8.81194 20.4933 8.68723Z" fill="#FCC289"/>
</svg>
