<svg width="20" height="21" viewBox="0 0 20 21" fill="none" xmlns="http://www.w3.org/2000/svg">
<path d="M9.84 0.959961C4.47456 0.959961 0.119995 5.31452 0.119995 10.68C0.119995 16.0454 4.47456 20.4 9.84 20.4C15.2054 20.4 19.56 16.0454 19.56 10.68C19.56 5.31452 15.2054 0.959961 9.84 0.959961ZM9.84 18.456C5.54376 18.456 2.064 14.9762 2.064 10.68C2.064 8.88176 2.67636 7.22936 3.70668 5.91716L14.6028 16.8133C13.2906 17.8436 11.6382 18.456 9.84 18.456ZM15.9733 15.4428L5.0772 4.54664C6.3894 3.51632 8.0418 2.90396 9.84 2.90396C14.1362 2.90396 17.616 6.38372 17.616 10.68C17.616 12.4782 17.0036 14.1306 15.9733 15.4428Z" fill="black"/>
</svg>
