<svg width="11" height="10" viewBox="0 0 11 10" fill="none" xmlns="http://www.w3.org/2000/svg">
<path d="M5.963 5.30107C6.6049 5.30107 7.12526 5.81195 7.12526 6.44214L7.12465 7.01143C7.20436 8.40851 6.10832 9.10524 4.07581 9.10524C2.04985 9.10524 0.92981 8.41763 0.92981 7.03136V6.44214C0.92981 5.81195 1.45017 5.30107 2.09207 5.30107H5.963ZM9.06282 5.30107C9.70472 5.30107 10.2251 5.81195 10.2251 6.44214L10.2245 6.84271C10.2946 8.09595 9.3261 8.72427 7.55592 8.72427C7.31563 8.72427 7.08973 8.71277 6.87876 8.68978C7.10398 8.48639 7.27173 8.24359 7.37863 7.96156L7.55592 7.96356C8.9384 7.96356 9.49111 7.60497 9.45024 6.86355V6.44214C9.45024 6.23207 9.27679 6.06178 9.06282 6.06178L7.46385 6.06177C7.38541 5.76257 7.2166 5.499 6.98768 5.30076L9.06282 5.30107ZM5.963 6.06178H2.09207C1.8781 6.06178 1.70465 6.23207 1.70465 6.44214V7.03136C1.70465 7.90312 2.42366 8.34453 4.07581 8.34453C5.7214 8.34453 6.40004 7.91313 6.35042 7.0327V6.44214C6.35042 6.23207 6.17697 6.06178 5.963 6.06178ZM4.02917 0.736816C5.09917 0.736816 5.96658 1.58841 5.96658 2.6389C5.96658 3.68939 5.09917 4.54098 4.02917 4.54098C2.95916 4.54098 2.09175 3.68939 2.09175 2.6389C2.09175 1.58841 2.95916 0.736816 4.02917 0.736816ZM7.90336 1.49753C8.75923 1.49753 9.45304 2.17869 9.45304 3.01895C9.45304 3.8592 8.75923 4.54036 7.90336 4.54036C7.0475 4.54036 6.35368 3.8592 6.35368 3.01895C6.35368 2.17869 7.0475 1.49753 7.90336 1.49753ZM4.02917 1.49753C3.3871 1.49753 2.86659 2.00854 2.86659 2.6389C2.86659 3.26926 3.3871 3.78027 4.02917 3.78027C4.67124 3.78027 5.19174 3.26926 5.19174 2.6389C5.19174 2.00854 4.67124 1.49753 4.02917 1.49753ZM7.90336 2.25824C7.47543 2.25824 7.12852 2.59882 7.12852 3.01895C7.12852 3.43907 7.47543 3.77965 7.90336 3.77965C8.3313 3.77965 8.6782 3.43907 8.6782 3.01895C8.6782 2.59882 8.3313 2.25824 7.90336 2.25824Z" fill="#212121"/>
</svg>
