<svg width="13" height="12" viewBox="0 0 13 12" fill="none" xmlns="http://www.w3.org/2000/svg">
<path d="M0 7.7208V12H2.79227V7.7208H0ZM1.72617 11.2224C1.66101 11.2219 1.59744 11.2029 1.5435 11.1676C1.48955 11.1324 1.44764 11.0826 1.42304 11.0244C1.39844 10.9663 1.39226 10.9024 1.40527 10.8409C1.41829 10.7794 1.44991 10.7229 1.49617 10.6787C1.54242 10.6345 1.60123 10.6044 1.66519 10.5923C1.72914 10.5803 1.79537 10.5867 1.85553 10.6108C1.9157 10.635 1.96709 10.6757 2.00325 10.728C2.03941 10.7802 2.0587 10.8416 2.0587 10.9044C2.05874 10.9464 2.05014 10.9879 2.03341 11.0267C2.01668 11.0654 1.99215 11.1006 1.96123 11.1302C1.93031 11.1597 1.89362 11.1831 1.85328 11.199C1.81293 11.2148 1.76973 11.2227 1.72617 11.2224ZM6.49009 11.387H3.20675V8.34024L3.24361 8.27388C3.44603 7.93181 3.74998 7.65587 4.11641 7.48152C4.46033 7.32226 4.83533 7.23494 5.21677 7.22531C5.59821 7.21567 5.97745 7.28393 6.32955 7.4256C6.5562 7.51486 6.77741 7.61642 6.99212 7.7298C7.16872 7.81896 7.33561 7.90332 7.50798 7.97352C7.5806 7.99918 7.65496 8.01999 7.73054 8.0358C7.99121 8.09772 8.34828 8.18256 8.49511 8.50596C8.57921 8.71318 8.61134 8.9366 8.58889 9.15804L10.1563 9.13572L10.9703 8.26716C11.122 8.10767 11.3329 8.01234 11.5571 8.00192C11.7814 7.99149 12.0008 8.0668 12.1677 8.21148C12.3347 8.35615 12.4355 8.55848 12.4484 8.77444C12.4613 8.9904 12.3851 9.20253 12.2365 9.36468L11.0099 10.6835L6.49009 11.387ZM3.83009 10.7864H6.44002L10.6928 10.1245L11.7724 8.96376C11.7931 8.94137 11.8089 8.91511 11.8188 8.8866C11.8286 8.8581 11.8323 8.82795 11.8296 8.79802C11.8269 8.76809 11.8179 8.73901 11.8031 8.71257C11.7882 8.68614 11.768 8.66291 11.7435 8.64432C11.6979 8.61001 11.6406 8.59356 11.583 8.59828C11.5254 8.603 11.4718 8.62853 11.433 8.66976L10.437 9.73236L6.57739 9.78732L6.5683 9.18684L7.96418 9.16692C7.9833 9.0258 7.96969 8.88236 7.92433 8.74692C7.90042 8.69484 7.69268 8.6454 7.58121 8.61888C7.47356 8.59619 7.36791 8.56542 7.26525 8.52684C7.06897 8.4468 6.88265 8.35272 6.70256 8.26164C6.50851 8.15889 6.30864 8.06671 6.10388 7.98552C5.83413 7.87475 5.54314 7.82013 5.24996 7.82524C4.95678 7.83035 4.66803 7.89507 4.40261 8.01516C4.17192 8.12545 3.97471 8.29129 3.83009 8.4966V10.7864ZM7.3401 2.9004C6.9599 2.90052 6.58827 3.00926 6.27221 3.21289C5.95616 3.41651 5.70986 3.70586 5.56448 4.04435C5.4191 4.38284 5.38116 4.75527 5.45545 5.11453C5.52974 5.4738 5.71294 5.80378 5.98187 6.06273C6.2508 6.32168 6.59338 6.49798 6.9663 6.56933C7.33922 6.64068 7.72573 6.60388 8.07694 6.46358C8.42815 6.32328 8.7283 6.08579 8.93942 5.78113C9.15055 5.47647 9.26317 5.11833 9.26305 4.752C9.26226 4.26095 9.05937 3.79025 8.69888 3.44314C8.33839 3.09603 7.84974 2.90084 7.3401 2.9004ZM6.3851 0H7.00781V2.22H6.3851V0ZM7.672 0.68004H8.29472V2.22H7.672V0.68004Z" fill="black"/>
</svg>
