<svg width="11" height="10" viewBox="0 0 11 10" fill="none" xmlns="http://www.w3.org/2000/svg">
<path d="M6.7262 2.71873C6.7262 2.80467 6.72018 2.89061 6.70914 2.97557C6.71416 2.94139 6.71918 2.90623 6.72319 2.87205C6.6991 3.04198 6.65293 3.20701 6.58568 3.36522C6.59873 3.33397 6.61278 3.30272 6.62583 3.27147C6.55858 3.42576 6.47226 3.5703 6.36686 3.70311L6.4301 3.62401C6.32571 3.75487 6.20426 3.87303 6.06976 3.97459L6.15106 3.91307C6.01455 4.01463 5.866 4.09959 5.7074 4.16502C5.73952 4.15233 5.77164 4.13865 5.80376 4.12596C5.64116 4.19139 5.47152 4.23631 5.29687 4.25975C5.332 4.25487 5.36814 4.24998 5.40327 4.24608C5.22761 4.26854 5.05096 4.26854 4.8753 4.24608C4.91043 4.25096 4.94657 4.25584 4.9817 4.25975C4.80705 4.23631 4.63741 4.19139 4.47481 4.12596C4.50693 4.13865 4.53905 4.15233 4.57117 4.16502C4.41258 4.09959 4.26402 4.01561 4.12751 3.91307L4.20882 3.97459C4.07431 3.87303 3.95286 3.75487 3.84847 3.62401L3.91171 3.70311C3.80732 3.5703 3.71999 3.42576 3.65274 3.27147C3.66579 3.30272 3.67984 3.33397 3.69289 3.36522C3.62564 3.20701 3.57947 3.04198 3.55538 2.87205C3.5604 2.90623 3.56542 2.94139 3.56943 2.97557C3.54635 2.80467 3.54635 2.6328 3.56943 2.4619C3.56441 2.49608 3.55939 2.53123 3.55538 2.56541C3.57947 2.39549 3.62564 2.23045 3.69289 2.07225C3.67984 2.1035 3.66579 2.13475 3.65274 2.166C3.71999 2.0117 3.80631 1.86717 3.91171 1.73436L3.84847 1.81346C3.95286 1.6826 4.07431 1.56444 4.20882 1.46287L4.12751 1.5244C4.26402 1.42283 4.41258 1.33787 4.57117 1.27244C4.53905 1.28514 4.50693 1.29881 4.47481 1.31151C4.63741 1.24608 4.80705 1.20115 4.9817 1.17772C4.94657 1.1826 4.91043 1.18748 4.8753 1.19139C5.05096 1.16893 5.22761 1.16893 5.40327 1.19139C5.36814 1.18651 5.332 1.18162 5.29687 1.17772C5.47152 1.20115 5.64116 1.24608 5.80376 1.31151C5.77164 1.29881 5.73952 1.28514 5.7074 1.27244C5.866 1.33787 6.01455 1.42186 6.15106 1.5244L6.06976 1.46287C6.20426 1.56444 6.32571 1.6826 6.4301 1.81346L6.36686 1.73436C6.47125 1.86717 6.55858 2.0117 6.62583 2.166C6.61278 2.13475 6.59873 2.1035 6.58568 2.07225C6.65293 2.23045 6.6991 2.39549 6.72319 2.56541C6.71817 2.53123 6.71315 2.49608 6.70914 2.4619C6.72018 2.54686 6.7252 2.6328 6.7262 2.71873C6.72721 2.92283 6.90989 3.11912 7.1277 3.10936C7.34451 3.09959 7.5302 2.93748 7.5292 2.71873C7.52719 2.25096 7.38265 1.77244 7.0996 1.39158C7.02331 1.28905 6.94201 1.18846 6.85167 1.09764C6.76033 1.00584 6.65996 0.926741 6.55557 0.849592C6.36586 0.708967 6.15407 0.605451 5.92923 0.525373C5.02285 0.202131 3.92978 0.490217 3.31649 1.21678C3.23217 1.31639 3.15187 1.4199 3.08362 1.53123C3.01537 1.64158 2.96217 1.75877 2.91298 1.87791C2.82064 2.09862 2.77346 2.33299 2.75439 2.5703C2.71725 3.03514 2.84172 3.52049 3.09065 3.91893C3.33054 4.30369 3.69289 4.63377 4.11647 4.8203C4.24094 4.87498 4.36841 4.92576 4.50091 4.9619C4.6324 4.99705 4.76589 5.01658 4.9014 5.03221C5.14832 5.06053 5.40026 5.041 5.64417 4.99315C6.57062 4.80955 7.34652 4.03319 7.49005 3.12205C7.51113 2.98924 7.52719 2.85643 7.52719 2.72166C7.52819 2.51756 7.3415 2.32127 7.12569 2.33104C6.90888 2.33787 6.7262 2.49998 6.7262 2.71873ZM8.05817 8.82518H2.90796C2.68012 8.82518 2.45227 8.82713 2.22442 8.82518C2.19932 8.82518 2.17423 8.82323 2.15014 8.8203C2.18527 8.82518 2.2214 8.83006 2.25654 8.83397C2.21639 8.82811 2.17824 8.81737 2.14111 8.80272C2.17322 8.81541 2.20534 8.82908 2.23746 8.84178C2.19731 8.82518 2.16018 8.80369 2.12505 8.77733L2.20635 8.83885C2.17624 8.81444 2.14813 8.78807 2.12404 8.75877L2.18728 8.83787C2.16018 8.80369 2.1391 8.76756 2.12103 8.7285C2.13408 8.75975 2.14813 8.791 2.16118 8.82225C2.14612 8.78612 2.13609 8.74803 2.12906 8.70994C2.13408 8.74412 2.1391 8.77928 2.14311 8.81346C2.12705 8.6953 2.13809 8.5703 2.13809 8.45115V8.03319C2.13809 7.92869 2.14412 7.82518 2.15817 7.72166C2.15315 7.75584 2.14813 7.791 2.14412 7.82518C2.17222 7.62498 2.22642 7.42869 2.30773 7.24217C2.29468 7.27342 2.28063 7.30467 2.26758 7.33592C2.34587 7.15819 2.44624 6.99119 2.5677 6.83787L2.50446 6.91697C2.62591 6.76561 2.76543 6.62889 2.92202 6.51073L2.84071 6.57225C2.9983 6.45408 3.16994 6.35643 3.35262 6.28026C3.3205 6.29295 3.28838 6.30662 3.25626 6.31932C3.44798 6.24119 3.64873 6.18748 3.8555 6.16014C3.82037 6.16502 3.78423 6.1699 3.7491 6.17381C3.89766 6.15526 4.04521 6.15428 4.19476 6.15428H6.03161C6.19723 6.15428 6.36184 6.1533 6.52746 6.17381C6.49233 6.16893 6.4562 6.16404 6.42107 6.16014C6.62683 6.18748 6.82859 6.24022 7.0203 6.31932C6.98818 6.30662 6.95606 6.29295 6.92394 6.28026C7.10662 6.35643 7.27826 6.45408 7.43585 6.57225L7.35455 6.51073C7.51013 6.62889 7.65065 6.76463 7.7721 6.91697L7.70887 6.83787C7.83032 6.99119 7.9307 7.15819 8.00899 7.33592C7.99594 7.30467 7.98189 7.27342 7.96884 7.24217C8.04914 7.42869 8.10434 7.62401 8.13245 7.82518C8.12743 7.791 8.12241 7.75584 8.11839 7.72166C8.13747 7.86912 8.13847 8.01561 8.13847 8.16405V8.64744C8.13847 8.70311 8.14048 8.75877 8.13345 8.81346C8.13847 8.77928 8.14349 8.74412 8.1475 8.70994C8.14148 8.74901 8.13044 8.78612 8.11538 8.82225C8.12843 8.791 8.14248 8.75975 8.15553 8.7285C8.13847 8.76756 8.11639 8.80369 8.08929 8.83787L8.15252 8.75877C8.12743 8.78807 8.10033 8.81541 8.07022 8.83885L8.15152 8.77733C8.11639 8.80369 8.07925 8.8242 8.0391 8.84178C8.07122 8.82908 8.10334 8.81541 8.13546 8.80272C8.09832 8.81737 8.05917 8.82713 8.02003 8.83397C8.05516 8.82908 8.09129 8.8242 8.12642 8.8203C8.10434 8.82323 8.08126 8.8242 8.05817 8.82518C7.95478 8.82615 7.84839 8.86815 7.77411 8.93944C7.70485 9.00682 7.65165 9.11815 7.65667 9.2158C7.66671 9.42479 7.83333 9.60936 8.05817 9.60643C8.44863 9.60057 8.79191 9.35252 8.90633 8.98826C8.9515 8.84373 8.94146 8.68846 8.94146 8.54002C8.94146 8.20018 8.95251 7.86326 8.89228 7.52635C8.80395 7.03319 8.549 6.56932 8.1997 6.20506C7.8504 5.8408 7.38064 5.57322 6.88379 5.45408C6.59873 5.38573 6.31166 5.37498 6.02057 5.37498H4.23993C3.94182 5.37498 3.64572 5.38865 3.35563 5.46385C2.8628 5.5908 2.39907 5.86131 2.05679 6.2285C1.7115 6.59862 1.46157 7.06346 1.38027 7.55955C1.32607 7.89256 1.33711 8.22654 1.33711 8.56248C1.33711 8.71678 1.32807 8.87791 1.38529 9.02537C1.45956 9.21483 1.57801 9.36424 1.75165 9.47655C1.88716 9.56346 2.0588 9.60545 2.2194 9.6074C2.29769 9.60838 2.37598 9.6074 2.45427 9.6074H8.05917C8.26896 9.6074 8.47071 9.42772 8.46067 9.21678C8.45063 9.00389 8.28401 8.82518 8.05817 8.82518Z" fill="white"/>
</svg>
