<svg width="7" height="8" viewBox="0 0 7 8" fill="none" xmlns="http://www.w3.org/2000/svg">
<path d="M4.6158 2.20738C4.6158 2.27733 4.61085 2.34728 4.60178 2.41644C4.6059 2.38862 4.61002 2.36 4.61332 2.33218C4.59353 2.47049 4.55559 2.60483 4.50034 2.7336C4.51106 2.70817 4.52261 2.68273 4.53333 2.65729C4.47807 2.78289 4.40715 2.90053 4.32056 3.00864L4.37251 2.94425C4.28674 3.05077 4.18696 3.14695 4.07645 3.22962L4.14325 3.17954C4.03109 3.26221 3.90903 3.33137 3.77873 3.38462C3.80512 3.37429 3.83151 3.36316 3.8579 3.35283C3.7243 3.40609 3.58493 3.44265 3.44143 3.46173C3.4703 3.45775 3.49999 3.45378 3.52885 3.4506C3.38453 3.46888 3.23938 3.46888 3.09506 3.4506C3.12393 3.45457 3.15361 3.45855 3.18248 3.46173C3.03898 3.44265 2.89961 3.40609 2.76601 3.35283C2.7924 3.36316 2.81879 3.37429 2.84518 3.38462C2.71488 3.33137 2.59282 3.263 2.48066 3.17954L2.54746 3.22962C2.43696 3.14695 2.33717 3.05077 2.2514 2.94425L2.30336 3.00864C2.21759 2.90053 2.14584 2.78289 2.09058 2.65729C2.10131 2.68273 2.11285 2.70817 2.12357 2.7336C2.06832 2.60483 2.03038 2.47049 2.01059 2.33218C2.01471 2.36 2.01884 2.38862 2.02213 2.41644C2.00317 2.27733 2.00317 2.13743 2.02213 1.99832C2.01801 2.02614 2.01389 2.05476 2.01059 2.08258C2.03038 1.94427 2.06832 1.80993 2.12357 1.68116C2.11285 1.70659 2.10131 1.73203 2.09058 1.75747C2.14584 1.63187 2.21676 1.51423 2.30336 1.40612L2.2514 1.47051C2.33717 1.36399 2.43696 1.26781 2.54746 1.18514L2.48066 1.23522C2.59282 1.15255 2.71488 1.08339 2.84518 1.03014C2.81879 1.04047 2.7924 1.0516 2.76601 1.06193C2.89961 1.00867 3.03898 0.972109 3.18248 0.953031C3.15361 0.957006 3.12393 0.96098 3.09506 0.96416C3.23938 0.945877 3.38453 0.945877 3.52885 0.96416C3.49999 0.960186 3.4703 0.956211 3.44143 0.953031C3.58493 0.972109 3.7243 1.00867 3.8579 1.06193C3.83151 1.0516 3.80512 1.04047 3.77873 1.03014C3.90903 1.08339 4.03109 1.15176 4.14325 1.23522L4.07645 1.18514C4.18696 1.26781 4.28674 1.36399 4.37251 1.47051L4.32056 1.40612C4.40632 1.51423 4.47807 1.63187 4.53333 1.75747C4.52261 1.73203 4.51106 1.70659 4.50034 1.68116C4.55559 1.80993 4.59353 1.94427 4.61332 2.08258C4.6092 2.05476 4.60507 2.02614 4.60178 1.99832C4.61085 2.06748 4.61497 2.13743 4.6158 2.20738C4.61662 2.37351 4.76671 2.53329 4.94567 2.52534C5.12381 2.51739 5.27638 2.38544 5.27555 2.20738C5.2739 1.82662 5.15515 1.43712 4.92258 1.12711C4.8599 1.04365 4.7931 0.961775 4.71888 0.88785C4.64384 0.81313 4.56137 0.748743 4.4756 0.685946C4.31973 0.571481 4.14572 0.487221 3.96099 0.42204C3.21629 0.158929 2.3182 0.393423 1.81431 0.984827C1.74504 1.06591 1.67906 1.15017 1.62298 1.24078C1.5669 1.33061 1.5232 1.426 1.48279 1.52297C1.40691 1.70262 1.36815 1.8934 1.35248 2.08656C1.32197 2.46493 1.42423 2.85999 1.62876 3.18431C1.82586 3.4975 2.12357 3.76617 2.47159 3.918C2.57385 3.96251 2.67859 4.00385 2.78745 4.03326C2.89549 4.06188 3.00517 4.07777 3.1165 4.09049C3.31938 4.11354 3.52638 4.09765 3.72678 4.0587C4.48797 3.90926 5.12546 3.27731 5.24339 2.53567C5.26071 2.42757 5.2739 2.31946 5.2739 2.20976C5.27473 2.04363 5.12133 1.88386 4.94402 1.89181C4.76589 1.89737 4.6158 2.02932 4.6158 2.20738V2.20738ZM5.71016 7.17788H1.47866C1.29146 7.17788 1.10425 7.17947 0.917045 7.17788C0.896428 7.17788 0.87581 7.17629 0.856018 7.1739C0.884882 7.17788 0.914571 7.18185 0.943435 7.18503C0.910448 7.18026 0.879109 7.17152 0.848596 7.15959C0.874986 7.16993 0.901376 7.18105 0.927766 7.19139C0.894778 7.17788 0.864265 7.16039 0.8354 7.13893L0.902201 7.189C0.87746 7.16913 0.854368 7.14767 0.834576 7.12382L0.886531 7.18821C0.864265 7.16039 0.846946 7.13098 0.832102 7.09918C0.842823 7.12462 0.854368 7.15005 0.865089 7.17549C0.852719 7.14608 0.844472 7.11508 0.838699 7.08408C0.842823 7.1119 0.846946 7.14052 0.850245 7.16834C0.83705 7.07215 0.846121 6.97041 0.846121 6.87343V6.53321C0.846121 6.44816 0.85107 6.3639 0.862615 6.27964C0.858492 6.30746 0.854368 6.33608 0.85107 6.3639C0.874161 6.20095 0.918694 6.04117 0.985495 5.88935C0.974774 5.91478 0.963228 5.94022 0.952507 5.96566C1.01683 5.82098 1.0993 5.68506 1.19909 5.56026L1.14713 5.62465C1.24692 5.50144 1.36156 5.39015 1.49021 5.29397L1.42341 5.34405C1.55288 5.24786 1.69391 5.16837 1.844 5.10637C1.81761 5.11671 1.79122 5.12783 1.76483 5.13817C1.92235 5.07458 2.08729 5.03086 2.25717 5.0086C2.22831 5.01257 2.19862 5.01655 2.16975 5.01973C2.29181 5.00463 2.41304 5.00383 2.53592 5.00383H4.04511C4.18118 5.00383 4.31643 5.00304 4.45251 5.01973C4.42364 5.01575 4.39395 5.01178 4.36509 5.0086C4.53415 5.03086 4.69991 5.07378 4.85743 5.13817C4.83104 5.12783 4.80465 5.11671 4.77826 5.10637C4.92835 5.16837 5.06938 5.24786 5.19885 5.34405L5.13205 5.29397C5.25988 5.39015 5.37534 5.50064 5.47513 5.62465L5.42317 5.56026C5.52296 5.68506 5.60543 5.82098 5.66975 5.96566C5.65903 5.94022 5.64749 5.91478 5.63677 5.88935C5.70274 6.04117 5.7481 6.20015 5.77119 6.3639C5.76707 6.33608 5.76294 6.30746 5.75965 6.27964C5.77531 6.39967 5.77614 6.51891 5.77614 6.63973V7.0332C5.77614 7.07851 5.77779 7.12382 5.77202 7.16834C5.77614 7.14052 5.78026 7.1119 5.78356 7.08408C5.77861 7.11587 5.76954 7.14608 5.75717 7.17549C5.76789 7.15005 5.77944 7.12462 5.79016 7.09918C5.77614 7.13098 5.758 7.16039 5.73573 7.18821L5.78769 7.12382C5.76707 7.14767 5.7448 7.16993 5.72006 7.189L5.78686 7.13893C5.758 7.16039 5.72748 7.17708 5.6945 7.19139C5.72089 7.18105 5.74728 7.16993 5.77367 7.15959C5.74315 7.17152 5.71099 7.17946 5.67883 7.18503C5.70769 7.18105 5.73738 7.17708 5.76624 7.1739C5.7481 7.17629 5.72913 7.17708 5.71016 7.17788C5.62522 7.17867 5.5378 7.21285 5.47678 7.27088C5.41987 7.32573 5.37616 7.41634 5.38029 7.49583C5.38853 7.66594 5.52543 7.81618 5.71016 7.81379C6.03097 7.80902 6.31302 7.60712 6.40703 7.31062C6.44414 7.19298 6.43589 7.06659 6.43589 6.94577C6.43589 6.66914 6.44497 6.3949 6.39548 6.12066C6.32291 5.71924 6.11344 5.34166 5.82645 5.04516C5.53945 4.74867 5.1535 4.53087 4.74527 4.43389C4.51106 4.37825 4.2752 4.3695 4.03604 4.3695H2.57303C2.3281 4.3695 2.08481 4.38063 1.84647 4.44184C1.44155 4.54517 1.06054 4.76536 0.779321 5.06424C0.495627 5.36551 0.290278 5.74388 0.223478 6.14769C0.178944 6.41875 0.188016 6.6906 0.188016 6.96405C0.188016 7.08964 0.180594 7.2208 0.227601 7.34083C0.288629 7.49504 0.385943 7.61666 0.528614 7.70807C0.639948 7.77882 0.780971 7.813 0.912922 7.81459C0.977248 7.81538 1.04157 7.81459 1.1059 7.81459H5.71099C5.88335 7.81459 6.04911 7.66833 6.04087 7.49663C6.03262 7.32334 5.89572 7.17788 5.71016 7.17788V7.17788Z" fill="black"/>
</svg>
