<svg width="12" height="12" viewBox="0 0 12 12" fill="none" xmlns="http://www.w3.org/2000/svg">
<path d="M5.57895 0C2.5027 0 0 2.5027 0 5.57895C0 8.65519 2.5027 11.1579 5.57895 11.1579C8.65519 11.1579 11.1579 8.65519 11.1579 5.57895C11.1579 2.5027 8.65519 0 5.57895 0ZM5.57895 10.9254C2.63091 10.9254 0.232463 8.52699 0.232463 5.57895C0.232463 2.63091 2.63091 0.232463 5.57895 0.232463C8.52699 0.232463 10.9254 2.63091 10.9254 5.57895C10.9254 8.52699 8.52699 10.9254 5.57895 10.9254Z" fill="black"/>
<path d="M5.57893 0.92981C3.01542 0.92981 0.92981 3.01542 0.92981 5.57893C0.92981 8.14245 3.01542 10.2281 5.57893 10.2281C8.14245 10.2281 10.2281 8.14245 10.2281 5.57893C10.2281 3.01542 8.14245 0.92981 5.57893 0.92981ZM5.57893 9.98336C3.1503 9.98336 1.17451 8.00756 1.17451 5.57893C1.17451 3.1503 3.1503 1.17451 5.57893 1.17451C8.00756 1.17451 9.98336 3.1503 9.98336 5.57893C9.98336 8.00756 8.00756 9.98336 5.57893 9.98336Z" fill="black"/>
<mask id="path-3-inside-1_925_1209" fill="white">
<path d="M7.7193 4.3139C7.7193 4.24267 7.67152 4.18492 7.61259 4.18492H7.24539C7.06579 3.46232 6.51741 3.00119 5.92585 3.00119H4.61549L4.61059 3C4.55166 3 4.50388 3.05775 4.50388 3.12898V3.13016V4.18492H4.10671C4.04778 4.18492 4 4.24267 4 4.3139C4 4.38512 4.04778 4.44288 4.10671 4.44288H4.50388V4.89371H4.10671C4.04778 4.89371 4 4.95146 4 5.02269C4 5.09391 4.04778 5.15167 4.10671 5.15167H4.50388C4.50388 8.93911 4.50388 5.33499 4.50388 8.44997C4.50388 8.52119 4.55166 8.57895 4.61059 8.57895C4.66952 8.57895 4.7173 8.52119 4.7173 8.44997V6.33535H5.83725C6.49522 6.33535 7.06145 5.83731 7.24291 5.15167H7.61257C7.6715 5.15167 7.71928 5.09391 7.71928 5.02269C7.71928 4.95146 7.6715 4.89371 7.61257 4.89371H7.29096C7.3061 4.76159 7.31299 4.62886 7.29256 4.44288H7.61257C7.67152 4.4429 7.7193 4.38515 7.7193 4.3139ZM4.7173 3.25914H5.92583C6.40558 3.25914 6.85103 3.61783 7.02137 4.18492H4.71728L4.7173 3.25914ZM5.83727 6.0774H4.71732V5.15169H7.01717C6.84226 5.6923 6.3757 6.0774 5.83727 6.0774ZM7.07595 4.89371H4.7173V4.44288H7.07587C7.0981 4.61254 7.09514 4.75443 7.07595 4.89371Z"/>
</mask>
<path d="M7.7193 4.3139C7.7193 4.24267 7.67152 4.18492 7.61259 4.18492H7.24539C7.06579 3.46232 6.51741 3.00119 5.92585 3.00119H4.61549L4.61059 3C4.55166 3 4.50388 3.05775 4.50388 3.12898V3.13016V4.18492H4.10671C4.04778 4.18492 4 4.24267 4 4.3139C4 4.38512 4.04778 4.44288 4.10671 4.44288H4.50388V4.89371H4.10671C4.04778 4.89371 4 4.95146 4 5.02269C4 5.09391 4.04778 5.15167 4.10671 5.15167H4.50388C4.50388 8.93911 4.50388 5.33499 4.50388 8.44997C4.50388 8.52119 4.55166 8.57895 4.61059 8.57895C4.66952 8.57895 4.7173 8.52119 4.7173 8.44997V6.33535H5.83725C6.49522 6.33535 7.06145 5.83731 7.24291 5.15167H7.61257C7.6715 5.15167 7.71928 5.09391 7.71928 5.02269C7.71928 4.95146 7.6715 4.89371 7.61257 4.89371H7.29096C7.3061 4.76159 7.31299 4.62886 7.29256 4.44288H7.61257C7.67152 4.4429 7.7193 4.38515 7.7193 4.3139ZM4.7173 3.25914H5.92583C6.40558 3.25914 6.85103 3.61783 7.02137 4.18492H4.71728L4.7173 3.25914ZM5.83727 6.0774H4.71732V5.15169H7.01717C6.84226 5.6923 6.3757 6.0774 5.83727 6.0774ZM7.07595 4.89371H4.7173V4.44288H7.07587C7.0981 4.61254 7.09514 4.75443 7.07595 4.89371Z" fill="black"/>
<path d="M7.24539 4.18492L4.33398 4.90856L4.89978 7.18492H7.24539V4.18492ZM4.61549 3.00119L3.91042 5.91716L4.25795 6.00119H4.61549V3.00119ZM4.61059 3L5.31566 0.0840304L4.96813 0H4.61059V3ZM4.50388 4.18492V7.18492H7.50388V4.18492H4.50388ZM4.50388 4.44288H7.50388V1.44288H4.50388V4.44288ZM4.50388 4.89371V7.89371H7.50388V4.89371H4.50388ZM4.50388 5.15167H7.50388V2.15167H4.50388V5.15167ZM4.7173 6.33535V3.33535H1.7173V6.33535H4.7173ZM7.24291 5.15167V2.15167H4.93361L4.34277 4.3841L7.24291 5.15167ZM7.29096 4.89371L4.31048 4.55201L3.92737 7.89371H7.29096V4.89371ZM7.29256 4.44288V1.44288H3.94497L4.31049 4.77045L7.29256 4.44288ZM7.61257 4.44288L7.6138 1.44288H7.61257V4.44288ZM4.7173 3.25914V0.259143H1.71736L1.7173 3.25908L4.7173 3.25914ZM7.02137 4.18492V7.18492H11.0549L9.89455 3.32188L7.02137 4.18492ZM4.71728 4.18492L1.71728 4.18486L1.71721 7.18492H4.71728V4.18492ZM4.71732 6.0774H1.71732V9.0774H4.71732V6.0774ZM4.71732 5.15169V2.15169H1.71732V5.15169H4.71732ZM7.01717 5.15169L9.8715 6.07515L11.1409 2.15169H7.01717V5.15169ZM7.07595 4.89371V7.89371H9.69098L10.0479 5.30316L7.07595 4.89371ZM4.7173 4.89371H1.7173V7.89371H4.7173V4.89371ZM4.7173 4.44288V1.44288H1.7173V4.44288H4.7173ZM7.07587 4.44288L10.0504 4.05311L9.70842 1.44288H7.07587V4.44288ZM10.7193 4.3139C10.7193 3.143 9.83539 1.18492 7.61259 1.18492V7.18492C5.50764 7.18492 4.7193 5.34235 4.7193 4.3139H10.7193ZM7.61259 1.18492H7.24539V7.18492H7.61259V1.18492ZM10.1568 3.46128C9.71893 1.69958 8.18081 0.00118542 5.92585 0.00118542V6.00119C4.85401 6.00119 4.41265 5.22506 4.33398 4.90856L10.1568 3.46128ZM5.92585 0.00118542H4.61549V6.00119H5.92585V0.00118542ZM5.32056 0.0852156L5.31566 0.0840304L3.90552 5.91597L3.91042 5.91716L5.32056 0.0852156ZM4.61059 0C2.38779 0 1.50388 1.95808 1.50388 3.12898H7.50388C7.50388 4.15743 6.71553 6 4.61059 6V0ZM1.50388 3.12898V3.13016H7.50388V3.12898H1.50388ZM1.50388 3.13016V4.18492H7.50388V3.13016H1.50388ZM4.50388 1.18492H4.10671V7.18492H4.50388V1.18492ZM4.10671 1.18492C1.8839 1.18492 1 3.14301 1 4.3139H7C7 5.34234 6.21166 7.18492 4.10671 7.18492V1.18492ZM1 4.3139C1 5.4848 1.88391 7.44288 4.10671 7.44288V1.44288C6.21165 1.44288 7 3.28545 7 4.3139H1ZM4.10671 7.44288H4.50388V1.44288H4.10671V7.44288ZM1.50388 4.44288V4.89371H7.50388V4.44288H1.50388ZM4.50388 1.89371H4.10671V7.89371H4.50388V1.89371ZM4.10671 1.89371C1.88391 1.89371 1 3.85179 1 5.02269H7C7 6.05114 6.21165 7.89371 4.10671 7.89371V1.89371ZM1 5.02269C1 6.19358 1.88391 8.15167 4.10671 8.15167V2.15167C6.21166 2.15167 7 3.99424 7 5.02269H1ZM4.10671 8.15167H4.50388V2.15167H4.10671V8.15167ZM1.50388 5.15167C1.50388 5.15906 1.50388 5.16643 1.50388 5.17377C1.50388 5.18112 1.50388 5.18843 1.50388 5.19571C1.50388 5.203 1.50388 5.21026 1.50388 5.21748C1.50388 5.22471 1.50388 5.23192 1.50388 5.23909C1.50388 5.24626 1.50388 5.25341 1.50388 5.26053C1.50388 5.26764 1.50388 5.27473 1.50388 5.2818C1.50388 5.28886 1.50388 5.2959 1.50388 5.3029C1.50388 5.30991 1.50388 5.31689 1.50388 5.32384C1.50388 5.3308 1.50388 5.33772 1.50388 5.34462C1.50388 5.35152 1.50388 5.35839 1.50388 5.36523C1.50388 5.37208 1.50388 5.37889 1.50388 5.38568C1.50388 5.39247 1.50388 5.39924 1.50388 5.40597C1.50388 5.41271 1.50388 5.41942 1.50388 5.4261C1.50388 5.43278 1.50388 5.43944 1.50388 5.44606C1.50388 5.45269 1.50388 5.4593 1.50388 5.46587C1.50388 5.47245 1.50388 5.47899 1.50388 5.48552C1.50388 5.49204 1.50388 5.49853 1.50388 5.505C1.50388 5.51147 1.50388 5.51791 1.50388 5.52433C1.50388 5.53075 1.50388 5.53714 1.50388 5.5435C1.50388 5.54986 1.50388 5.5562 1.50388 5.56251C1.50388 5.56883 1.50388 5.57511 1.50388 5.58137C1.50388 5.58763 1.50388 5.59386 1.50388 5.60007C1.50388 5.60628 1.50388 5.61246 1.50388 5.61862C1.50388 5.62477 1.50388 5.6309 1.50388 5.63701C1.50388 5.64311 1.50388 5.64919 1.50388 5.65524C1.50388 5.6613 1.50388 5.66732 1.50388 5.67333C1.50388 5.67933 1.50388 5.6853 1.50388 5.69126C1.50388 5.69721 1.50388 5.70313 1.50388 5.70903C1.50388 5.71494 1.50388 5.72081 1.50388 5.72666C1.50388 5.73251 1.50388 5.73834 1.50388 5.74414C1.50388 5.74994 1.50388 5.75571 1.50388 5.76146C1.50388 5.76721 1.50388 5.77294 1.50388 5.77864C1.50388 5.78434 1.50388 5.79001 1.50388 5.79566C1.50388 5.80132 1.50388 5.80694 1.50388 5.81254C1.50388 5.81815 1.50388 5.82372 1.50388 5.82927C1.50388 5.83483 1.50388 5.84035 1.50388 5.84586C1.50388 5.85136 1.50388 5.85684 1.50388 5.8623C1.50388 5.86775 1.50388 5.87318 1.50388 5.87859C1.50388 5.88399 1.50388 5.88937 1.50388 5.89473C1.50388 5.90009 1.50388 5.90542 1.50388 5.91073C1.50388 5.91604 1.50388 5.92133 1.50388 5.92659C1.50388 5.93185 1.50388 5.93709 1.50388 5.94231C1.50388 5.94752 1.50388 5.95271 1.50388 5.95788C1.50388 5.96304 1.50388 5.96819 1.50388 5.97331C1.50388 5.97843 1.50388 5.98352 1.50388 5.9886C1.50388 5.99367 1.50388 5.99872 1.50388 6.00374C1.50388 6.00877 1.50388 6.01377 1.50388 6.01875C1.50388 6.02373 1.50388 6.02869 1.50388 6.03362C1.50388 6.03855 1.50388 6.04346 1.50388 6.04835C1.50388 6.05323 1.50388 6.0581 1.50388 6.06294C1.50388 6.06778 1.50388 6.0726 1.50388 6.07739C1.50388 6.08218 1.50388 6.08696 1.50388 6.09171C1.50388 6.09646 1.50388 6.10118 1.50388 6.10589C1.50388 6.11059 1.50388 6.11527 1.50388 6.11993C1.50388 6.12459 1.50388 6.12922 1.50388 6.13384C1.50388 6.13845 1.50388 6.14304 1.50388 6.14761C1.50388 6.15218 1.50388 6.15673 1.50388 6.16125C1.50388 6.16578 1.50388 6.17028 1.50388 6.17476C1.50388 6.17924 1.50388 6.1837 1.50388 6.18813C1.50388 6.19257 1.50388 6.19698 1.50388 6.20138C1.50388 6.20577 1.50388 6.21014 1.50388 6.21449C1.50388 6.21884 1.50388 6.22316 1.50388 6.22747C1.50388 6.23177 1.50388 6.23606 1.50388 6.24032C1.50388 6.24458 1.50388 6.24882 1.50388 6.25304C1.50388 6.25726 1.50388 6.26146 1.50388 6.26563C1.50388 6.26981 1.50388 6.27396 1.50388 6.2781C1.50388 6.28223 1.50388 6.28634 1.50388 6.29043C1.50388 6.29452 1.50388 6.29859 1.50388 6.30264C1.50388 6.30669 1.50388 6.31072 1.50388 6.31472C1.50388 6.31873 1.50388 6.32272 1.50388 6.32668C1.50388 6.33065 1.50388 6.33459 1.50388 6.33851C1.50388 6.34244 1.50388 6.34634 1.50388 6.35022C1.50388 6.3541 1.50388 6.35797 1.50388 6.36181C1.50388 6.36565 1.50388 6.36947 1.50388 6.37327C1.50388 6.37707 1.50388 6.38085 1.50388 6.38461C1.50388 6.38837 1.50388 6.3921 1.50388 6.39582C1.50388 6.39954 1.50388 6.40324 1.50388 6.40692C1.50388 6.4106 1.50388 6.41426 1.50388 6.41789C1.50388 6.42153 1.50388 6.42515 1.50388 6.42875C1.50388 6.43235 1.50388 6.43593 1.50388 6.43949C1.50388 6.44304 1.50388 6.44658 1.50388 6.4501C1.50388 6.45362 1.50388 6.45712 1.50388 6.4606C1.50388 6.46408 1.50388 6.46754 1.50388 6.47098C1.50388 6.47442 1.50388 6.47784 1.50388 6.48125C1.50388 6.48465 1.50388 6.48803 1.50388 6.4914C1.50388 6.49476 1.50388 6.4981 1.50388 6.50143C1.50388 6.50475 1.50388 6.50806 1.50388 6.51135C1.50388 6.51463 1.50388 6.5179 1.50388 6.52115C1.50388 6.5244 1.50388 6.52763 1.50388 6.53084C1.50388 6.53405 1.50388 6.53724 1.50388 6.54042C1.50388 6.54359 1.50388 6.54675 1.50388 6.54988C1.50388 6.55302 1.50388 6.55613 1.50388 6.55923C1.50388 6.56233 1.50388 6.56541 1.50388 6.56848C1.50388 6.57154 1.50388 6.57458 1.50388 6.57761C1.50388 6.58063 1.50388 6.58364 1.50388 6.58663C1.50388 6.58962 1.50388 6.59259 1.50388 6.59554C1.50388 6.59849 1.50388 6.60143 1.50388 6.60434C1.50388 6.60726 1.50388 6.61016 1.50388 6.61304C1.50388 6.61592 1.50388 6.61878 1.50388 6.62163C1.50388 6.62447 1.50388 6.6273 1.50388 6.63011C1.50388 6.63292 1.50388 6.63571 1.50388 6.63848C1.50388 6.64126 1.50388 6.64401 1.50388 6.64675C1.50388 6.64949 1.50388 6.65221 1.50388 6.65492C1.50388 6.65762 1.50388 6.66031 1.50388 6.66298C1.50388 6.66565 1.50388 6.6683 1.50388 6.67093C1.50388 6.67357 1.50388 6.67619 1.50388 6.67879C1.50388 6.68139 1.50388 6.68397 1.50388 6.68654C1.50388 6.68911 1.50388 6.69166 1.50388 6.69419C1.50388 6.69672 1.50388 6.69924 1.50388 6.70174C1.50388 6.70424 1.50388 6.70672 1.50388 6.70919C1.50388 6.71165 1.50388 6.7141 1.50388 6.71654C1.50388 6.71897 1.50388 6.72139 1.50388 6.72379C1.50388 6.72619 1.50388 6.72857 1.50388 6.73094C1.50388 6.73331 1.50388 6.73566 1.50388 6.73799C1.50388 6.74033 1.50388 6.74265 1.50388 6.74495C1.50388 6.74725 1.50388 6.74954 1.50388 6.75181C1.50388 6.75408 1.50388 6.75633 1.50388 6.75857C1.50388 6.76081 1.50388 6.76303 1.50388 6.76524C1.50388 6.76745 1.50388 6.76964 1.50388 6.77181C1.50388 6.77399 1.50388 6.77615 1.50388 6.77829C1.50388 6.78043 1.50388 6.78256 1.50388 6.78468C1.50388 6.78679 1.50388 6.78889 1.50388 6.79097C1.50388 6.79305 1.50388 6.79512 1.50388 6.79717C1.50388 6.79922 1.50388 6.80126 1.50388 6.80328C1.50388 6.8053 1.50388 6.80731 1.50388 6.8093C1.50388 6.81129 1.50388 6.81326 1.50388 6.81522C1.50388 6.81718 1.50388 6.81913 1.50388 6.82106C1.50388 6.82299 1.50388 6.82491 1.50388 6.82681C1.50388 6.82871 1.50388 6.8306 1.50388 6.83247C1.50388 6.83434 1.50388 6.8362 1.50388 6.83804C1.50388 6.83989 1.50388 6.84172 1.50388 6.84353C1.50388 6.84534 1.50388 6.84714 1.50388 6.84893C1.50388 6.85071 1.50388 6.85248 1.50388 6.85424C1.50388 6.856 1.50388 6.85774 1.50388 6.85947C1.50388 6.8612 1.50388 6.86291 1.50388 6.86461C1.50388 6.86631 1.50388 6.868 1.50388 6.86967C1.50388 6.87134 1.50388 6.873 1.50388 6.87465C1.50388 6.87629 1.50388 6.87792 1.50388 6.87954C1.50388 6.88116 1.50388 6.88276 1.50388 6.88435C1.50388 6.88594 1.50388 6.88752 1.50388 6.88908C1.50388 6.89064 1.50388 6.89219 1.50388 6.89373C1.50388 6.89526 1.50388 6.89679 1.50388 6.8983C1.50388 6.89981 1.50388 6.9013 1.50388 6.90278C1.50388 6.90427 1.50388 6.90574 1.50388 6.90719C1.50388 6.90865 1.50388 6.91009 1.50388 6.91153C1.50388 6.91296 1.50388 6.91437 1.50388 6.91578C1.50388 6.91718 1.50388 6.91858 1.50388 6.91996C1.50388 6.92133 1.50388 6.9227 1.50388 6.92406C1.50388 6.92541 1.50388 6.92675 1.50388 6.92808C1.50388 6.92941 1.50388 6.93072 1.50388 6.93203C1.50388 6.93333 1.50388 6.93462 1.50388 6.9359C1.50388 6.93718 1.50388 6.93845 1.50388 6.9397C1.50388 6.94096 1.50388 6.9422 1.50388 6.94343C1.50388 6.94466 1.50388 6.94588 1.50388 6.94709C1.50388 6.94829 1.50388 6.94949 1.50388 6.95067C1.50388 6.95185 1.50388 6.95302 1.50388 6.95418C1.50388 6.95534 1.50388 6.95648 1.50388 6.95762C1.50388 6.95875 1.50388 6.95988 1.50388 6.96099C1.50388 6.9621 1.50388 6.9632 1.50388 6.96429C1.50388 6.96538 1.50388 6.96646 1.50388 6.96752C1.50388 6.96859 1.50388 6.96964 1.50388 6.97069C1.50388 6.97173 1.50388 6.97276 1.50388 6.97378C1.50388 6.9748 1.50388 6.97581 1.50388 6.97681C1.50388 6.97781 1.50388 6.9788 1.50388 6.97977C1.50388 6.98075 1.50388 6.98171 1.50388 6.98267C1.50388 6.98362 1.50388 6.98457 1.50388 6.9855C1.50388 6.98643 1.50388 6.98736 1.50388 6.98827C1.50388 6.98918 1.50388 6.99008 1.50388 6.99097C1.50388 6.99186 1.50388 6.99274 1.50388 6.99361C1.50388 6.99448 1.50388 6.99534 1.50388 6.99619C1.50388 6.99704 1.50388 6.99788 1.50388 6.9987C1.50388 6.99953 1.50388 7.00035 1.50388 7.00116C1.50388 7.00197 1.50388 7.00277 1.50388 7.00355C1.50388 7.00434 1.50388 7.00512 1.50388 7.00589C1.50388 7.00665 1.50388 7.00741 1.50388 7.00816C1.50388 7.00891 1.50388 7.00965 1.50388 7.01038C1.50388 7.01111 1.50388 7.01182 1.50388 7.01253C1.50388 7.01324 1.50388 7.01394 1.50388 7.01463C1.50388 7.01532 1.50388 7.016 1.50388 7.01668C1.50388 7.01735 1.50388 7.01801 1.50388 7.01866C1.50388 7.01932 1.50388 7.01996 1.50388 7.02059C1.50388 7.02123 1.50388 7.02185 1.50388 7.02247C1.50388 7.02309 1.50388 7.02369 1.50388 7.02429C1.50388 7.02489 1.50388 7.02548 1.50388 7.02606C1.50388 7.02664 1.50388 7.02721 1.50388 7.02777C1.50388 7.02834 1.50388 7.02889 1.50388 7.02944C1.50388 7.02998 1.50388 7.03052 1.50388 7.03105C1.50388 7.03157 1.50388 7.03209 1.50388 7.03261C1.50388 7.03312 1.50388 7.03362 1.50388 7.03411C1.50388 7.03461 1.50388 7.03509 1.50388 7.03557C1.50388 7.03605 1.50388 7.03652 1.50388 7.03698C1.50388 7.03744 1.50388 7.0379 1.50388 7.03834C1.50388 7.03879 1.50388 7.03923 1.50388 7.03965C1.50388 7.04008 1.50388 7.04051 1.50388 7.04092C1.50388 7.04133 1.50388 7.04174 1.50388 7.04214C1.50388 7.04254 1.50388 7.04293 1.50388 7.04331C1.50388 7.04369 1.50388 7.04407 1.50388 7.04444C1.50388 7.0448 1.50388 7.04517 1.50388 7.04552C1.50388 7.04587 1.50388 7.04622 1.50388 7.04656C1.50388 7.04689 1.50388 7.04722 1.50388 7.04755C1.50388 7.04787 1.50388 7.04819 1.50388 7.0485C1.50388 7.04881 1.50388 7.04911 1.50388 7.04941C1.50388 7.0497 1.50388 7.04999 1.50388 7.05027C1.50388 7.05056 1.50388 7.05083 1.50388 7.0511C1.50388 7.05137 1.50388 7.05163 1.50388 7.05189C1.50388 7.05214 1.50388 7.05239 1.50388 7.05263C1.50388 7.05287 1.50388 7.05311 1.50388 7.05334C1.50388 7.05356 1.50388 7.05379 1.50388 7.054C1.50388 7.05422 1.50388 7.05443 1.50388 7.05463C1.50388 7.05484 1.50388 7.05503 1.50388 7.05522C1.50388 7.05542 1.50388 7.0556 1.50388 7.05578C1.50388 7.05596 1.50388 7.05613 1.50388 7.0563C1.50388 7.05647 1.50388 7.05663 1.50388 7.05678C1.50388 7.05694 1.50388 7.05709 1.50388 7.05723C1.50388 7.05737 1.50388 7.05751 1.50388 7.05765C1.50388 7.05778 1.50388 7.0579 1.50388 7.05803C1.50388 7.05815 1.50388 7.05826 1.50388 7.05837C1.50388 7.05849 1.50388 7.05859 1.50388 7.05869C1.50388 7.05879 1.50388 7.05889 1.50388 7.05897C1.50388 7.05906 1.50388 7.05915 1.50388 7.05923C1.50388 7.05931 1.50388 7.05938 1.50388 7.05945C1.50388 7.05952 1.50388 7.05958 1.50388 7.05964C1.50388 7.0597 1.50388 7.05976 1.50388 7.05981C1.50388 7.05986 1.50388 7.0599 1.50388 7.05994C1.50388 7.05998 1.50388 7.06002 1.50388 7.06005C1.50388 7.06008 1.50388 7.06011 1.50388 7.06013C1.50388 7.06015 1.50388 7.06017 1.50388 7.06018C1.50388 7.0602 1.50388 7.06021 1.50388 7.06021C1.50388 7.06022 4.50388 7.06022 7.50388 7.06021C7.50388 7.06021 7.50388 7.0602 7.50388 7.06019C7.50388 7.06018 7.50388 7.06016 7.50388 7.06014C7.50388 7.06012 7.50388 7.0601 7.50388 7.06007C7.50388 7.06005 7.50388 7.06002 7.50388 7.05998C7.50388 7.05995 7.50388 7.05991 7.50388 7.05987C7.50388 7.05982 7.50388 7.05978 7.50388 7.05973C7.50388 7.05968 7.50388 7.05963 7.50388 7.05957C7.50388 7.05952 7.50388 7.05946 7.50388 7.05939C7.50388 7.05933 7.50388 7.05927 7.50388 7.0592C7.50388 7.05913 7.50388 7.05905 7.50388 7.05898C7.50388 7.0589 7.50388 7.05883 7.50388 7.05874C7.50388 7.05866 7.50388 7.05858 7.50388 7.05849C7.50388 7.0584 7.50388 7.05831 7.50388 7.05822C7.50388 7.05813 7.50388 7.05803 7.50388 7.05793C7.50388 7.05784 7.50388 7.05774 7.50388 7.05763C7.50388 7.05753 7.50388 7.05742 7.50388 7.05731C7.50388 7.05721 7.50388 7.0571 7.50388 7.05698C7.50388 7.05687 7.50388 7.05675 7.50388 7.05664C7.50388 7.05652 7.50388 7.0564 7.50388 7.05628C7.50388 7.05615 7.50388 7.05603 7.50388 7.0559C7.50388 7.05578 7.50388 7.05565 7.50388 7.05552C7.50388 7.05539 7.50388 7.05526 7.50388 7.05512C7.50388 7.05499 7.50388 7.05485 7.50388 7.05472C7.50388 7.05458 7.50388 7.05444 7.50388 7.0543C7.50388 7.05416 7.50388 7.05402 7.50388 7.05387C7.50388 7.05373 7.50388 7.05358 7.50388 7.05344C7.50388 7.05329 7.50388 7.05314 7.50388 7.05299C7.50388 7.05284 7.50388 7.05269 7.50388 7.05254C7.50388 7.05239 7.50388 7.05224 7.50388 7.05208C7.50388 7.05193 7.50388 7.05177 7.50388 7.05162C7.50388 7.05146 7.50388 7.0513 7.50388 7.05115C7.50388 7.05099 7.50388 7.05083 7.50388 7.05067C7.50388 7.05051 7.50388 7.05035 7.50388 7.05019C7.50388 7.05003 7.50388 7.04987 7.50388 7.0497C7.50388 7.04954 7.50388 7.04938 7.50388 7.04922C7.50388 7.04905 7.50388 7.04889 7.50388 7.04873C7.50388 7.04856 7.50388 7.0484 7.50388 7.04823C7.50388 7.04807 7.50388 7.0479 7.50388 7.04774C7.50388 7.04757 7.50388 7.04741 7.50388 7.04724C7.50388 7.04708 7.50388 7.04691 7.50388 7.04675C7.50388 7.04658 7.50388 7.04642 7.50388 7.04626C7.50388 7.04609 7.50388 7.04593 7.50388 7.04576C7.50388 7.0456 7.50388 7.04543 7.50388 7.04527C7.50388 7.04511 7.50388 7.04494 7.50388 7.04478C7.50388 7.04462 7.50388 7.04446 7.50388 7.0443C7.50388 7.04413 7.50388 7.04397 7.50388 7.04381C7.50388 7.04365 7.50388 7.04349 7.50388 7.04333C7.50388 7.04318 7.50388 7.04302 7.50388 7.04286C7.50388 7.04271 7.50388 7.04255 7.50388 7.04239C7.50388 7.04224 7.50388 7.04209 7.50388 7.04193C7.50388 7.04178 7.50388 7.04163 7.50388 7.04148C7.50388 7.04133 7.50388 7.04118 7.50388 7.04103C7.50388 7.04088 7.50388 7.04074 7.50388 7.04059C7.50388 7.04045 7.50388 7.0403 7.50388 7.04016C7.50388 7.04002 7.50388 7.03988 7.50388 7.03974C7.50388 7.0396 7.50388 7.03946 7.50388 7.03933C7.50388 7.03919 7.50388 7.03906 7.50388 7.03893C7.50388 7.0388 7.50388 7.03867 7.50388 7.03854C7.50388 7.03841 7.50388 7.03829 7.50388 7.03816C7.50388 7.03804 7.50388 7.03792 7.50388 7.0378C7.50388 7.03768 7.50388 7.03756 7.50388 7.03745C7.50388 7.03733 7.50388 7.03722 7.50388 7.03711C7.50388 7.037 7.50388 7.03689 7.50388 7.03678C7.50388 7.03668 7.50388 7.03658 7.50388 7.03647C7.50388 7.03637 7.50388 7.03628 7.50388 7.03618C7.50388 7.03609 7.50388 7.03599 7.50388 7.0359C7.50388 7.03582 7.50388 7.03573 7.50388 7.03565C7.50388 7.03556 7.50388 7.03548 7.50388 7.0354C7.50388 7.03533 7.50388 7.03525 7.50388 7.03518C7.50388 7.03511 7.50388 7.03504 7.50388 7.03497C7.50388 7.03491 7.50388 7.03485 7.50388 7.03479C7.50388 7.03473 7.50388 7.03467 7.50388 7.03462C7.50388 7.03457 7.50388 7.03452 7.50388 7.03448C7.50388 7.03443 7.50388 7.03439 7.50388 7.03435C7.50388 7.03432 7.50388 7.03428 7.50388 7.03425C7.50388 7.03422 7.50388 7.03419 7.50388 7.03417C7.50388 7.03415 7.50388 7.03413 7.50388 7.03412C7.50388 7.0341 7.50388 7.03409 7.50388 7.03408C7.50388 7.03408 4.50388 7.03407 1.50388 7.03408C1.50388 7.03408 1.50388 7.03408 1.50388 7.03409C1.50388 7.0341 1.50388 7.03412 1.50388 7.03414C1.50388 7.03415 1.50388 7.03418 1.50388 7.03421C1.50388 7.03423 1.50388 7.03427 1.50388 7.0343C1.50388 7.03434 1.50388 7.03438 1.50388 7.03443C1.50388 7.03447 1.50388 7.03452 1.50388 7.03458C1.50388 7.03463 1.50388 7.03469 1.50388 7.03476C1.50388 7.03482 1.50388 7.03489 1.50388 7.03497C1.50388 7.03505 1.50388 7.03513 1.50388 7.03521C1.50388 7.0353 1.50388 7.03539 1.50388 7.03548C1.50388 7.03558 1.50388 7.03568 1.50388 7.03579C1.50388 7.03589 1.50388 7.036 1.50388 7.03612C1.50388 7.03624 1.50388 7.03636 1.50388 7.03649C1.50388 7.03662 1.50388 7.03675 1.50388 7.03689C1.50388 7.03703 1.50388 7.03717 1.50388 7.03732C1.50388 7.03748 1.50388 7.03763 1.50388 7.03779C1.50388 7.03796 1.50388 7.03813 1.50388 7.0383C1.50388 7.03847 1.50388 7.03865 1.50388 7.03884C1.50388 7.03903 1.50388 7.03922 1.50388 7.03942C1.50388 7.03962 1.50388 7.03982 1.50388 7.04003C1.50388 7.04024 1.50388 7.04046 1.50388 7.04068C1.50388 7.04091 1.50388 7.04114 1.50388 7.04137C1.50388 7.04161 1.50388 7.04185 1.50388 7.0421C1.50388 7.04235 1.50388 7.04261 1.50388 7.04287C1.50388 7.04313 1.50388 7.0434 1.50388 7.04368C1.50388 7.04396 1.50388 7.04424 1.50388 7.04453C1.50388 7.04482 1.50388 7.04512 1.50388 7.04542C1.50388 7.04573 1.50388 7.04604 1.50388 7.04636C1.50388 7.04667 1.50388 7.047 1.50388 7.04733C1.50388 7.04767 1.50388 7.048 1.50388 7.04835C1.50388 7.0487 1.50388 7.04905 1.50388 7.04942C1.50388 7.04978 1.50388 7.05015 1.50388 7.05052C1.50388 7.0509 1.50388 7.05129 1.50388 7.05168C1.50388 7.05207 1.50388 7.05247 1.50388 7.05288C1.50388 7.05329 1.50388 7.0537 1.50388 7.05412C1.50388 7.05455 1.50388 7.05498 1.50388 7.05542C1.50388 7.05586 1.50388 7.0563 1.50388 7.05676C1.50388 7.05721 1.50388 7.05768 1.50388 7.05815C1.50388 7.05862 1.50388 7.0591 1.50388 7.05959C1.50388 7.06008 1.50388 7.06057 1.50388 7.06108C1.50388 7.06158 1.50388 7.06209 1.50388 7.06261C1.50388 7.06314 1.50388 7.06367 1.50388 7.0642C1.50388 7.06474 1.50388 7.06529 1.50388 7.06585C1.50388 7.0664 1.50388 7.06697 1.50388 7.06754C1.50388 7.06811 1.50388 7.06869 1.50388 7.06929C1.50388 7.06988 1.50388 7.07048 1.50388 7.07109C1.50388 7.07169 1.50388 7.07231 1.50388 7.07294C1.50388 7.07357 1.50388 7.0742 1.50388 7.07485C1.50388 7.07549 1.50388 7.07615 1.50388 7.07681C1.50388 7.07748 1.50388 7.07815 1.50388 7.07883C1.50388 7.07952 1.50388 7.08021 1.50388 7.08091C1.50388 7.08161 1.50388 7.08232 1.50388 7.08304C1.50388 7.08377 1.50388 7.0845 1.50388 7.08524C1.50388 7.08598 1.50388 7.08673 1.50388 7.08749C1.50388 7.08825 1.50388 7.08902 1.50388 7.0898C1.50388 7.09058 1.50388 7.09137 1.50388 7.09217C1.50388 7.09297 1.50388 7.09378 1.50388 7.0946C1.50388 7.09542 1.50388 7.09625 1.50388 7.09709C1.50388 7.09793 1.50388 7.09878 1.50388 7.09964C1.50388 7.1005 1.50388 7.10137 1.50388 7.10226C1.50388 7.10314 1.50388 7.10403 1.50388 7.10493C1.50388 7.10584 1.50388 7.10675 1.50388 7.10768C1.50388 7.1086 1.50388 7.10953 1.50388 7.11048C1.50388 7.11143 1.50388 7.11238 1.50388 7.11335C1.50388 7.11432 1.50388 7.1153 1.50388 7.11629C1.50388 7.11728 1.50388 7.11828 1.50388 7.11929C1.50388 7.1203 1.50388 7.12132 1.50388 7.12236C1.50388 7.12339 1.50388 7.12444 1.50388 7.12549C1.50388 7.12655 1.50388 7.12762 1.50388 7.1287C1.50388 7.12978 1.50388 7.13087 1.50388 7.13197C1.50388 7.13308 1.50388 7.13419 1.50388 7.13531C1.50388 7.13644 1.50388 7.13758 1.50388 7.13873C1.50388 7.13988 1.50388 7.14104 1.50388 7.14221C1.50388 7.14338 1.50388 7.14457 1.50388 7.14576C1.50388 7.14696 1.50388 7.14817 1.50388 7.14939C1.50388 7.15061 1.50388 7.15184 1.50388 7.15309C1.50388 7.15433 1.50388 7.15559 1.50388 7.15686C1.50388 7.15813 1.50388 7.15941 1.50388 7.1607C1.50388 7.162 1.50388 7.1633 1.50388 7.16462C1.50388 7.16594 1.50388 7.16727 1.50388 7.16862C1.50388 7.16996 1.50388 7.17132 1.50388 7.17269C1.50388 7.17405 1.50388 7.17544 1.50388 7.17683C1.50388 7.17823 1.50388 7.17963 1.50388 7.18105C1.50388 7.18247 1.50388 7.18391 1.50388 7.18535C1.50388 7.1868 1.50388 7.18826 1.50388 7.18973C1.50388 7.1912 1.50388 7.19269 1.50388 7.19419C1.50388 7.19569 1.50388 7.1972 1.50388 7.19873C1.50388 7.20025 1.50388 7.20179 1.50388 7.20334C1.50388 7.20489 1.50388 7.20646 1.50388 7.20804C1.50388 7.20962 1.50388 7.21121 1.50388 7.21282C1.50388 7.21442 1.50388 7.21604 1.50388 7.21768C1.50388 7.21931 1.50388 7.22096 1.50388 7.22262C1.50388 7.22428 1.50388 7.22596 1.50388 7.22764C1.50388 7.22933 1.50388 7.23104 1.50388 7.23275C1.50388 7.23447 1.50388 7.2362 1.50388 7.23795C1.50388 7.23969 1.50388 7.24145 1.50388 7.24323C1.50388 7.245 1.50388 7.24679 1.50388 7.24859C1.50388 7.25039 1.50388 7.25221 1.50388 7.25404C1.50388 7.25587 1.50388 7.25772 1.50388 7.25958C1.50388 7.26144 1.50388 7.26331 1.50388 7.2652C1.50388 7.26709 1.50388 7.269 1.50388 7.27092C1.50388 7.27284 1.50388 7.27477 1.50388 7.27672C1.50388 7.27867 1.50388 7.28063 1.50388 7.28261C1.50388 7.28459 1.50388 7.28658 1.50388 7.28859C1.50388 7.2906 1.50388 7.29263 1.50388 7.29467C1.50388 7.29671 1.50388 7.29876 1.50388 7.30083C1.50388 7.3029 1.50388 7.30499 1.50388 7.30709C1.50388 7.30919 1.50388 7.3113 1.50388 7.31343C1.50388 7.31557 1.50388 7.31771 1.50388 7.31988C1.50388 7.32204 1.50388 7.32422 1.50388 7.32641C1.50388 7.32861 1.50388 7.33082 1.50388 7.33304C1.50388 7.33527 1.50388 7.33751 1.50388 7.33977C1.50388 7.34202 1.50388 7.3443 1.50388 7.34659C1.50388 7.34888 1.50388 7.35118 1.50388 7.3535C1.50388 7.35583 1.50388 7.35816 1.50388 7.36052C1.50388 7.36287 1.50388 7.36524 1.50388 7.36763C1.50388 7.37002 1.50388 7.37242 1.50388 7.37484C1.50388 7.37726 1.50388 7.3797 1.50388 7.38215C1.50388 7.3846 1.50388 7.38707 1.50388 7.38956C1.50388 7.39204 1.50388 7.39455 1.50388 7.39707C1.50388 7.39959 1.50388 7.40212 1.50388 7.40468C1.50388 7.40723 1.50388 7.4098 1.50388 7.41239C1.50388 7.41498 1.50388 7.41758 1.50388 7.4202C1.50388 7.42282 1.50388 7.42546 1.50388 7.42812C1.50388 7.43077 1.50388 7.43345 1.50388 7.43614C1.50388 7.43883 1.50388 7.44153 1.50388 7.44426C1.50388 7.44698 1.50388 7.44973 1.50388 7.45249C1.50388 7.45525 1.50388 7.45802 1.50388 7.46082C1.50388 7.46361 1.50388 7.46643 1.50388 7.46926C1.50388 7.47209 1.50388 7.47494 1.50388 7.4778C1.50388 7.48067 1.50388 7.48355 1.50388 7.48646C1.50388 7.48936 1.50388 7.49228 1.50388 7.49522C1.50388 7.49815 1.50388 7.50111 1.50388 7.50408C1.50388 7.50706 1.50388 7.51005 1.50388 7.51306C1.50388 7.51607 1.50388 7.5191 1.50388 7.52215C1.50388 7.5252 1.50388 7.52826 1.50388 7.53135C1.50388 7.53443 1.50388 7.53753 1.50388 7.54065C1.50388 7.54378 1.50388 7.54692 1.50388 7.55007C1.50388 7.55323 1.50388 7.55641 1.50388 7.55961C1.50388 7.5628 1.50388 7.56602 1.50388 7.56925C1.50388 7.57248 1.50388 7.57574 1.50388 7.57901C1.50388 7.58228 1.50388 7.58557 1.50388 7.58888C1.50388 7.59219 1.50388 7.59552 1.50388 7.59887C1.50388 7.60222 1.50388 7.60558 1.50388 7.60897C1.50388 7.61236 1.50388 7.61576 1.50388 7.61919C1.50388 7.62261 1.50388 7.62606 1.50388 7.62952C1.50388 7.63299 1.50388 7.63647 1.50388 7.63997C1.50388 7.64348 1.50388 7.647 1.50388 7.65054C1.50388 7.65409 1.50388 7.65765 1.50388 7.66123C1.50388 7.66481 1.50388 7.66842 1.50388 7.67204C1.50388 7.67566 1.50388 7.6793 1.50388 7.68297C1.50388 7.68663 1.50388 7.69031 1.50388 7.69401C1.50388 7.69772 1.50388 7.70144 1.50388 7.70518C1.50388 7.70892 1.50388 7.71269 1.50388 7.71647C1.50388 7.72025 1.50388 7.72406 1.50388 7.72788C1.50388 7.73171 1.50388 7.73555 1.50388 7.73942C1.50388 7.74328 1.50388 7.74717 1.50388 7.75108C1.50388 7.75498 1.50388 7.75891 1.50388 7.76286C1.50388 7.76681 1.50388 7.77078 1.50388 7.77477C1.50388 7.77876 1.50388 7.78277 1.50388 7.7868C1.50388 7.79083 1.50388 7.79489 1.50388 7.79896C1.50388 7.80303 1.50388 7.80713 1.50388 7.81124C1.50388 7.81536 1.50388 7.8195 1.50388 7.82366C1.50388 7.82782 1.50388 7.832 1.50388 7.8362C1.50388 7.8404 1.50388 7.84462 1.50388 7.84887C1.50388 7.85311 1.50388 7.85738 1.50388 7.86167C1.50388 7.86595 1.50388 7.87026 1.50388 7.87459C1.50388 7.87893 1.50388 7.88328 1.50388 7.88765C1.50388 7.89203 1.50388 7.89642 1.50388 7.90084C1.50388 7.90526 1.50388 7.9097 1.50388 7.91416C1.50388 7.91863 1.50388 7.92311 1.50388 7.92762C1.50388 7.93213 1.50388 7.93665 1.50388 7.94121C1.50388 7.94576 1.50388 7.95033 1.50388 7.95493C1.50388 7.95952 1.50388 7.96414 1.50388 7.96878C1.50388 7.97342 1.50388 7.97808 1.50388 7.98277C1.50388 7.98746 1.50388 7.99216 1.50388 7.9969C1.50388 8.00163 1.50388 8.00638 1.50388 8.01116C1.50388 8.01593 1.50388 8.02073 1.50388 8.02555C1.50388 8.03038 1.50388 8.03522 1.50388 8.04009C1.50388 8.04496 1.50388 8.04985 1.50388 8.05476C1.50388 8.05968 1.50388 8.06461 1.50388 8.06958C1.50388 8.07454 1.50388 8.07952 1.50388 8.08453C1.50388 8.08953 1.50388 8.09456 1.50388 8.09962C1.50388 8.10467 1.50388 8.10975 1.50388 8.11485C1.50388 8.11995 1.50388 8.12507 1.50388 8.13022C1.50388 8.13537 1.50388 8.14054 1.50388 8.14574C1.50388 8.15093 1.50388 8.15615 1.50388 8.16139C1.50388 8.16664 1.50388 8.1719 1.50388 8.17719C1.50388 8.18249 1.50388 8.1878 1.50388 8.19314C1.50388 8.19848 1.50388 8.20384 1.50388 8.20923C1.50388 8.21461 1.50388 8.22002 1.50388 8.22546C1.50388 8.2309 1.50388 8.23635 1.50388 8.24184C1.50388 8.24732 1.50388 8.25283 1.50388 8.25836C1.50388 8.2639 1.50388 8.26945 1.50388 8.27504C1.50388 8.28062 1.50388 8.28622 1.50388 8.29185C1.50388 8.29749 1.50388 8.30314 1.50388 8.30882C1.50388 8.3145 1.50388 8.32021 1.50388 8.32594C1.50388 8.33167 1.50388 8.33742 1.50388 8.3432C1.50388 8.34898 1.50388 8.35479 1.50388 8.36062C1.50388 8.36645 1.50388 8.37231 1.50388 8.37819C1.50388 8.38407 1.50388 8.38997 1.50388 8.3959C1.50388 8.40183 1.50388 8.40779 1.50388 8.41377C1.50388 8.41975 1.50388 8.42576 1.50388 8.43179C1.50388 8.43783 1.50388 8.44389 1.50388 8.44997H7.50388C7.50388 8.44389 7.50388 8.43783 7.50388 8.43179C7.50388 8.42576 7.50388 8.41975 7.50388 8.41377C7.50388 8.40779 7.50388 8.40183 7.50388 8.3959C7.50388 8.38997 7.50388 8.38407 7.50388 8.37819C7.50388 8.37231 7.50388 8.36645 7.50388 8.36062C7.50388 8.35479 7.50388 8.34898 7.50388 8.3432C7.50388 8.33742 7.50388 8.33167 7.50388 8.32594C7.50388 8.32021 7.50388 8.3145 7.50388 8.30882C7.50388 8.30314 7.50388 8.29749 7.50388 8.29185C7.50388 8.28622 7.50388 8.28062 7.50388 8.27504C7.50388 8.26945 7.50388 8.2639 7.50388 8.25836C7.50388 8.25283 7.50388 8.24732 7.50388 8.24184C7.50388 8.23635 7.50388 8.2309 7.50388 8.22546C7.50388 8.22002 7.50388 8.21461 7.50388 8.20923C7.50388 8.20384 7.50388 8.19848 7.50388 8.19314C7.50388 8.1878 7.50388 8.18249 7.50388 8.17719C7.50388 8.1719 7.50388 8.16664 7.50388 8.16139C7.50388 8.15615 7.50388 8.15093 7.50388 8.14574C7.50388 8.14054 7.50388 8.13537 7.50388 8.13022C7.50388 8.12507 7.50388 8.11995 7.50388 8.11485C7.50388 8.10975 7.50388 8.10467 7.50388 8.09962C7.50388 8.09456 7.50388 8.08953 7.50388 8.08453C7.50388 8.07952 7.50388 8.07454 7.50388 8.06958C7.50388 8.06461 7.50388 8.05968 7.50388 8.05476C7.50388 8.04985 7.50388 8.04496 7.50388 8.04009C7.50388 8.03522 7.50388 8.03038 7.50388 8.02555C7.50388 8.02073 7.50388 8.01593 7.50388 8.01116C7.50388 8.00638 7.50388 8.00163 7.50388 7.9969C7.50388 7.99216 7.50388 7.98746 7.50388 7.98277C7.50388 7.97808 7.50388 7.97342 7.50388 7.96878C7.50388 7.96414 7.50388 7.95952 7.50388 7.95493C7.50388 7.95033 7.50388 7.94576 7.50388 7.94121C7.50388 7.93665 7.50388 7.93213 7.50388 7.92762C7.50388 7.92311 7.50388 7.91863 7.50388 7.91416C7.50388 7.9097 7.50388 7.90526 7.50388 7.90084C7.50388 7.89642 7.50388 7.89203 7.50388 7.88765C7.50388 7.88328 7.50388 7.87893 7.50388 7.87459C7.50388 7.87026 7.50388 7.86595 7.50388 7.86167C7.50388 7.85738 7.50388 7.85311 7.50388 7.84887C7.50388 7.84462 7.50388 7.8404 7.50388 7.8362C7.50388 7.832 7.50388 7.82782 7.50388 7.82366C7.50388 7.8195 7.50388 7.81536 7.50388 7.81124C7.50388 7.80713 7.50388 7.80303 7.50388 7.79896C7.50388 7.79489 7.50388 7.79083 7.50388 7.7868C7.50388 7.78277 7.50388 7.77876 7.50388 7.77477C7.50388 7.77078 7.50388 7.76681 7.50388 7.76286C7.50388 7.75891 7.50388 7.75498 7.50388 7.75108C7.50388 7.74717 7.50388 7.74328 7.50388 7.73942C7.50388 7.73555 7.50388 7.73171 7.50388 7.72788C7.50388 7.72406 7.50388 7.72025 7.50388 7.71647C7.50388 7.71269 7.50388 7.70892 7.50388 7.70518C7.50388 7.70144 7.50388 7.69772 7.50388 7.69401C7.50388 7.69031 7.50388 7.68663 7.50388 7.68297C7.50388 7.6793 7.50388 7.67566 7.50388 7.67204C7.50388 7.66842 7.50388 7.66481 7.50388 7.66123C7.50388 7.65765 7.50388 7.65409 7.50388 7.65054C7.50388 7.647 7.50388 7.64348 7.50388 7.63997C7.50388 7.63647 7.50388 7.63299 7.50388 7.62952C7.50388 7.62606 7.50388 7.62261 7.50388 7.61919C7.50388 7.61576 7.50388 7.61236 7.50388 7.60897C7.50388 7.60558 7.50388 7.60222 7.50388 7.59887C7.50388 7.59552 7.50388 7.59219 7.50388 7.58888C7.50388 7.58557 7.50388 7.58228 7.50388 7.57901C7.50388 7.57574 7.50388 7.57248 7.50388 7.56925C7.50388 7.56602 7.50388 7.5628 7.50388 7.55961C7.50388 7.55641 7.50388 7.55323 7.50388 7.55007C7.50388 7.54692 7.50388 7.54378 7.50388 7.54065C7.50388 7.53753 7.50388 7.53443 7.50388 7.53135C7.50388 7.52826 7.50388 7.5252 7.50388 7.52215C7.50388 7.5191 7.50388 7.51607 7.50388 7.51306C7.50388 7.51005 7.50388 7.50706 7.50388 7.50408C7.50388 7.50111 7.50388 7.49815 7.50388 7.49522C7.50388 7.49228 7.50388 7.48936 7.50388 7.48646C7.50388 7.48355 7.50388 7.48067 7.50388 7.4778C7.50388 7.47494 7.50388 7.47209 7.50388 7.46926C7.50388 7.46643 7.50388 7.46361 7.50388 7.46082C7.50388 7.45802 7.50388 7.45525 7.50388 7.45249C7.50388 7.44973 7.50388 7.44698 7.50388 7.44426C7.50388 7.44153 7.50388 7.43883 7.50388 7.43614C7.50388 7.43345 7.50388 7.43077 7.50388 7.42812C7.50388 7.42546 7.50388 7.42282 7.50388 7.4202C7.50388 7.41758 7.50388 7.41498 7.50388 7.41239C7.50388 7.4098 7.50388 7.40723 7.50388 7.40468C7.50388 7.40212 7.50388 7.39959 7.50388 7.39707C7.50388 7.39455 7.50388 7.39204 7.50388 7.38956C7.50388 7.38707 7.50388 7.3846 7.50388 7.38215C7.50388 7.3797 7.50388 7.37726 7.50388 7.37484C7.50388 7.37242 7.50388 7.37002 7.50388 7.36763C7.50388 7.36524 7.50388 7.36287 7.50388 7.36052C7.50388 7.35816 7.50388 7.35583 7.50388 7.3535C7.50388 7.35118 7.50388 7.34888 7.50388 7.34659C7.50388 7.3443 7.50388 7.34202 7.50388 7.33977C7.50388 7.33751 7.50388 7.33527 7.50388 7.33304C7.50388 7.33082 7.50388 7.32861 7.50388 7.32641C7.50388 7.32422 7.50388 7.32204 7.50388 7.31988C7.50388 7.31771 7.50388 7.31557 7.50388 7.31343C7.50388 7.3113 7.50388 7.30919 7.50388 7.30709C7.50388 7.30499 7.50388 7.3029 7.50388 7.30083C7.50388 7.29876 7.50388 7.29671 7.50388 7.29467C7.50388 7.29263 7.50388 7.2906 7.50388 7.28859C7.50388 7.28658 7.50388 7.28459 7.50388 7.28261C7.50388 7.28063 7.50388 7.27867 7.50388 7.27672C7.50388 7.27477 7.50388 7.27284 7.50388 7.27092C7.50388 7.269 7.50388 7.26709 7.50388 7.2652C7.50388 7.26331 7.50388 7.26144 7.50388 7.25958C7.50388 7.25772 7.50388 7.25587 7.50388 7.25404C7.50388 7.25221 7.50388 7.25039 7.50388 7.24859C7.50388 7.24679 7.50388 7.245 7.50388 7.24323C7.50388 7.24145 7.50388 7.23969 7.50388 7.23795C7.50388 7.2362 7.50388 7.23447 7.50388 7.23275C7.50388 7.23104 7.50388 7.22933 7.50388 7.22764C7.50388 7.22596 7.50388 7.22428 7.50388 7.22262C7.50388 7.22096 7.50388 7.21931 7.50388 7.21768C7.50388 7.21604 7.50388 7.21442 7.50388 7.21282C7.50388 7.21121 7.50388 7.20962 7.50388 7.20804C7.50388 7.20646 7.50388 7.20489 7.50388 7.20334C7.50388 7.20179 7.50388 7.20025 7.50388 7.19873C7.50388 7.1972 7.50388 7.19569 7.50388 7.19419C7.50388 7.19269 7.50388 7.1912 7.50388 7.18973C7.50388 7.18826 7.50388 7.1868 7.50388 7.18535C7.50388 7.18391 7.50388 7.18247 7.50388 7.18105C7.50388 7.17963 7.50388 7.17823 7.50388 7.17683C7.50388 7.17544 7.50388 7.17405 7.50388 7.17269C7.50388 7.17132 7.50388 7.16996 7.50388 7.16862C7.50388 7.16727 7.50388 7.16594 7.50388 7.16462C7.50388 7.1633 7.50388 7.162 7.50388 7.1607C7.50388 7.15941 7.50388 7.15813 7.50388 7.15686C7.50388 7.15559 7.50388 7.15433 7.50388 7.15309C7.50388 7.15184 7.50388 7.15061 7.50388 7.14939C7.50388 7.14817 7.50388 7.14696 7.50388 7.14576C7.50388 7.14457 7.50388 7.14338 7.50388 7.14221C7.50388 7.14104 7.50388 7.13988 7.50388 7.13873C7.50388 7.13758 7.50388 7.13644 7.50388 7.13531C7.50388 7.13419 7.50388 7.13308 7.50388 7.13197C7.50388 7.13087 7.50388 7.12978 7.50388 7.1287C7.50388 7.12762 7.50388 7.12655 7.50388 7.12549C7.50388 7.12444 7.50388 7.12339 7.50388 7.12236C7.50388 7.12132 7.50388 7.1203 7.50388 7.11929C7.50388 7.11828 7.50388 7.11728 7.50388 7.11629C7.50388 7.1153 7.50388 7.11432 7.50388 7.11335C7.50388 7.11238 7.50388 7.11143 7.50388 7.11048C7.50388 7.10953 7.50388 7.1086 7.50388 7.10768C7.50388 7.10675 7.50388 7.10584 7.50388 7.10493C7.50388 7.10403 7.50388 7.10314 7.50388 7.10226C7.50388 7.10137 7.50388 7.1005 7.50388 7.09964C7.50388 7.09878 7.50388 7.09793 7.50388 7.09709C7.50388 7.09625 7.50388 7.09542 7.50388 7.0946C7.50388 7.09378 7.50388 7.09297 7.50388 7.09217C7.50388 7.09137 7.50388 7.09058 7.50388 7.0898C7.50388 7.08902 7.50388 7.08825 7.50388 7.08749C7.50388 7.08673 7.50388 7.08598 7.50388 7.08524C7.50388 7.0845 7.50388 7.08377 7.50388 7.08304C7.50388 7.08232 7.50388 7.08161 7.50388 7.08091C7.50388 7.08021 7.50388 7.07952 7.50388 7.07883C7.50388 7.07815 7.50388 7.07748 7.50388 7.07681C7.50388 7.07615 7.50388 7.07549 7.50388 7.07485C7.50388 7.0742 7.50388 7.07357 7.50388 7.07294C7.50388 7.07231 7.50388 7.07169 7.50388 7.07109C7.50388 7.07048 7.50388 7.06988 7.50388 7.06929C7.50388 7.06869 7.50388 7.06811 7.50388 7.06754C7.50388 7.06697 7.50388 7.0664 7.50388 7.06585C7.50388 7.06529 7.50388 7.06474 7.50388 7.0642C7.50388 7.06367 7.50388 7.06314 7.50388 7.06261C7.50388 7.06209 7.50388 7.06158 7.50388 7.06108C7.50388 7.06057 7.50388 7.06008 7.50388 7.05959C7.50388 7.0591 7.50388 7.05862 7.50388 7.05815C7.50388 7.05768 7.50388 7.05721 7.50388 7.05676C7.50388 7.0563 7.50388 7.05586 7.50388 7.05542C7.50388 7.05498 7.50388 7.05455 7.50388 7.05412C7.50388 7.0537 7.50388 7.05329 7.50388 7.05288C7.50388 7.05247 7.50388 7.05207 7.50388 7.05168C7.50388 7.05129 7.50388 7.0509 7.50388 7.05052C7.50388 7.05015 7.50388 7.04978 7.50388 7.04942C7.50388 7.04905 7.50388 7.0487 7.50388 7.04835C7.50388 7.048 7.50388 7.04767 7.50388 7.04733C7.50388 7.047 7.50388 7.04667 7.50388 7.04636C7.50388 7.04604 7.50388 7.04573 7.50388 7.04542C7.50388 7.04512 7.50388 7.04482 7.50388 7.04453C7.50388 7.04424 7.50388 7.04396 7.50388 7.04368C7.50388 7.0434 7.50388 7.04313 7.50388 7.04287C7.50388 7.04261 7.50388 7.04235 7.50388 7.0421C7.50388 7.04185 7.50388 7.04161 7.50388 7.04137C7.50388 7.04114 7.50388 7.04091 7.50388 7.04068C7.50388 7.04046 7.50388 7.04024 7.50388 7.04003C7.50388 7.03982 7.50388 7.03962 7.50388 7.03942C7.50388 7.03922 7.50388 7.03903 7.50388 7.03884C7.50388 7.03865 7.50388 7.03847 7.50388 7.0383C7.50388 7.03813 7.50388 7.03796 7.50388 7.03779C7.50388 7.03763 7.50388 7.03748 7.50388 7.03732C7.50388 7.03717 7.50388 7.03703 7.50388 7.03689C7.50388 7.03675 7.50388 7.03662 7.50388 7.03649C7.50388 7.03636 7.50388 7.03624 7.50388 7.03612C7.50388 7.036 7.50388 7.03589 7.50388 7.03579C7.50388 7.03568 7.50388 7.03558 7.50388 7.03548C7.50388 7.03539 7.50388 7.0353 7.50388 7.03521C7.50388 7.03513 7.50388 7.03505 7.50388 7.03497C7.50388 7.03489 7.50388 7.03482 7.50388 7.03476C7.50388 7.03469 7.50388 7.03463 7.50388 7.03458C7.50388 7.03452 7.50388 7.03447 7.50388 7.03443C7.50388 7.03438 7.50388 7.03434 7.50388 7.0343C7.50388 7.03427 7.50388 7.03423 7.50388 7.03421C7.50388 7.03418 7.50388 7.03415 7.50388 7.03414C7.50388 7.03412 7.50388 7.0341 7.50388 7.03409C7.50388 7.03408 7.50388 7.03408 7.50388 7.03408C4.50388 7.03407 1.50388 7.03408 1.50388 7.03408C1.50388 7.03409 1.50388 7.0341 1.50388 7.03412C1.50388 7.03413 1.50388 7.03415 1.50388 7.03417C1.50388 7.03419 1.50388 7.03422 1.50388 7.03425C1.50388 7.03428 1.50388 7.03432 1.50388 7.03435C1.50388 7.03439 1.50388 7.03443 1.50388 7.03448C1.50388 7.03452 1.50388 7.03457 1.50388 7.03462C1.50388 7.03467 1.50388 7.03473 1.50388 7.03479C1.50388 7.03485 1.50388 7.03491 1.50388 7.03497C1.50388 7.03504 1.50388 7.03511 1.50388 7.03518C1.50388 7.03525 1.50388 7.03533 1.50388 7.0354C1.50388 7.03548 1.50388 7.03556 1.50388 7.03565C1.50388 7.03573 1.50388 7.03582 1.50388 7.0359C1.50388 7.03599 1.50388 7.03609 1.50388 7.03618C1.50388 7.03628 1.50388 7.03637 1.50388 7.03647C1.50388 7.03658 1.50388 7.03668 1.50388 7.03678C1.50388 7.03689 1.50388 7.037 1.50388 7.03711C1.50388 7.03722 1.50388 7.03733 1.50388 7.03745C1.50388 7.03756 1.50388 7.03768 1.50388 7.0378C1.50388 7.03792 1.50388 7.03804 1.50388 7.03816C1.50388 7.03829 1.50388 7.03841 1.50388 7.03854C1.50388 7.03867 1.50388 7.0388 1.50388 7.03893C1.50388 7.03906 1.50388 7.03919 1.50388 7.03933C1.50388 7.03946 1.50388 7.0396 1.50388 7.03974C1.50388 7.03988 1.50388 7.04002 1.50388 7.04016C1.50388 7.0403 1.50388 7.04045 1.50388 7.04059C1.50388 7.04074 1.50388 7.04088 1.50388 7.04103C1.50388 7.04118 1.50388 7.04133 1.50388 7.04148C1.50388 7.04163 1.50388 7.04178 1.50388 7.04193C1.50388 7.04209 1.50388 7.04224 1.50388 7.04239C1.50388 7.04255 1.50388 7.04271 1.50388 7.04286C1.50388 7.04302 1.50388 7.04318 1.50388 7.04333C1.50388 7.04349 1.50388 7.04365 1.50388 7.04381C1.50388 7.04397 1.50388 7.04413 1.50388 7.0443C1.50388 7.04446 1.50388 7.04462 1.50388 7.04478C1.50388 7.04494 1.50388 7.04511 1.50388 7.04527C1.50388 7.04543 1.50388 7.0456 1.50388 7.04576C1.50388 7.04593 1.50388 7.04609 1.50388 7.04626C1.50388 7.04642 1.50388 7.04658 1.50388 7.04675C1.50388 7.04691 1.50388 7.04708 1.50388 7.04724C1.50388 7.04741 1.50388 7.04757 1.50388 7.04774C1.50388 7.0479 1.50388 7.04807 1.50388 7.04823C1.50388 7.0484 1.50388 7.04856 1.50388 7.04873C1.50388 7.04889 1.50388 7.04905 1.50388 7.04922C1.50388 7.04938 1.50388 7.04954 1.50388 7.0497C1.50388 7.04987 1.50388 7.05003 1.50388 7.05019C1.50388 7.05035 1.50388 7.05051 1.50388 7.05067C1.50388 7.05083 1.50388 7.05099 1.50388 7.05115C1.50388 7.0513 1.50388 7.05146 1.50388 7.05162C1.50388 7.05177 1.50388 7.05193 1.50388 7.05208C1.50388 7.05224 1.50388 7.05239 1.50388 7.05254C1.50388 7.05269 1.50388 7.05284 1.50388 7.05299C1.50388 7.05314 1.50388 7.05329 1.50388 7.05344C1.50388 7.05358 1.50388 7.05373 1.50388 7.05387C1.50388 7.05402 1.50388 7.05416 1.50388 7.0543C1.50388 7.05444 1.50388 7.05458 1.50388 7.05472C1.50388 7.05485 1.50388 7.05499 1.50388 7.05512C1.50388 7.05526 1.50388 7.05539 1.50388 7.05552C1.50388 7.05565 1.50388 7.05578 1.50388 7.0559C1.50388 7.05603 1.50388 7.05615 1.50388 7.05628C1.50388 7.0564 1.50388 7.05652 1.50388 7.05664C1.50388 7.05675 1.50388 7.05687 1.50388 7.05698C1.50388 7.0571 1.50388 7.05721 1.50388 7.05731C1.50388 7.05742 1.50388 7.05753 1.50388 7.05763C1.50388 7.05774 1.50388 7.05784 1.50388 7.05793C1.50388 7.05803 1.50388 7.05813 1.50388 7.05822C1.50388 7.05831 1.50388 7.0584 1.50388 7.05849C1.50388 7.05858 1.50388 7.05866 1.50388 7.05874C1.50388 7.05883 1.50388 7.0589 1.50388 7.05898C1.50388 7.05905 1.50388 7.05913 1.50388 7.0592C1.50388 7.05927 1.50388 7.05933 1.50388 7.05939C1.50388 7.05946 1.50388 7.05952 1.50388 7.05957C1.50388 7.05963 1.50388 7.05968 1.50388 7.05973C1.50388 7.05978 1.50388 7.05982 1.50388 7.05987C1.50388 7.05991 1.50388 7.05995 1.50388 7.05998C1.50388 7.06002 1.50388 7.06005 1.50388 7.06007C1.50388 7.0601 1.50388 7.06012 1.50388 7.06014C1.50388 7.06016 1.50388 7.06018 1.50388 7.06019C1.50388 7.0602 1.50388 7.06021 1.50388 7.06021C4.50388 7.06022 7.50388 7.06022 7.50388 7.06021C7.50388 7.06021 7.50388 7.0602 7.50388 7.06018C7.50388 7.06017 7.50388 7.06015 7.50388 7.06013C7.50388 7.06011 7.50388 7.06008 7.50388 7.06005C7.50388 7.06002 7.50388 7.05998 7.50388 7.05994C7.50388 7.0599 7.50388 7.05986 7.50388 7.05981C7.50388 7.05976 7.50388 7.0597 7.50388 7.05964C7.50388 7.05958 7.50388 7.05952 7.50388 7.05945C7.50388 7.05938 7.50388 7.05931 7.50388 7.05923C7.50388 7.05915 7.50388 7.05906 7.50388 7.05897C7.50388 7.05889 7.50388 7.05879 7.50388 7.05869C7.50388 7.05859 7.50388 7.05849 7.50388 7.05837C7.50388 7.05826 7.50388 7.05815 7.50388 7.05803C7.50388 7.0579 7.50388 7.05778 7.50388 7.05765C7.50388 7.05751 7.50388 7.05737 7.50388 7.05723C7.50388 7.05709 7.50388 7.05694 7.50388 7.05678C7.50388 7.05663 7.50388 7.05647 7.50388 7.0563C7.50388 7.05613 7.50388 7.05596 7.50388 7.05578C7.50388 7.0556 7.50388 7.05542 7.50388 7.05522C7.50388 7.05503 7.50388 7.05484 7.50388 7.05463C7.50388 7.05443 7.50388 7.05422 7.50388 7.054C7.50388 7.05379 7.50388 7.05356 7.50388 7.05334C7.50388 7.05311 7.50388 7.05287 7.50388 7.05263C7.50388 7.05239 7.50388 7.05214 7.50388 7.05189C7.50388 7.05163 7.50388 7.05137 7.50388 7.0511C7.50388 7.05083 7.50388 7.05056 7.50388 7.05027C7.50388 7.04999 7.50388 7.0497 7.50388 7.04941C7.50388 7.04911 7.50388 7.04881 7.50388 7.0485C7.50388 7.04819 7.50388 7.04787 7.50388 7.04755C7.50388 7.04722 7.50388 7.04689 7.50388 7.04656C7.50388 7.04622 7.50388 7.04587 7.50388 7.04552C7.50388 7.04517 7.50388 7.0448 7.50388 7.04444C7.50388 7.04407 7.50388 7.04369 7.50388 7.04331C7.50388 7.04293 7.50388 7.04254 7.50388 7.04214C7.50388 7.04174 7.50388 7.04133 7.50388 7.04092C7.50388 7.04051 7.50388 7.04008 7.50388 7.03965C7.50388 7.03923 7.50388 7.03879 7.50388 7.03834C7.50388 7.0379 7.50388 7.03744 7.50388 7.03698C7.50388 7.03652 7.50388 7.03605 7.50388 7.03557C7.50388 7.03509 7.50388 7.03461 7.50388 7.03411C7.50388 7.03362 7.50388 7.03312 7.50388 7.03261C7.50388 7.03209 7.50388 7.03157 7.50388 7.03105C7.50388 7.03052 7.50388 7.02998 7.50388 7.02944C7.50388 7.02889 7.50388 7.02834 7.50388 7.02777C7.50388 7.02721 7.50388 7.02664 7.50388 7.02606C7.50388 7.02548 7.50388 7.02489 7.50388 7.02429C7.50388 7.02369 7.50388 7.02309 7.50388 7.02247C7.50388 7.02185 7.50388 7.02123 7.50388 7.02059C7.50388 7.01996 7.50388 7.01932 7.50388 7.01866C7.50388 7.01801 7.50388 7.01735 7.50388 7.01668C7.50388 7.016 7.50388 7.01532 7.50388 7.01463C7.50388 7.01394 7.50388 7.01324 7.50388 7.01253C7.50388 7.01182 7.50388 7.01111 7.50388 7.01038C7.50388 7.00965 7.50388 7.00891 7.50388 7.00816C7.50388 7.00741 7.50388 7.00665 7.50388 7.00589C7.50388 7.00512 7.50388 7.00434 7.50388 7.00355C7.50388 7.00277 7.50388 7.00197 7.50388 7.00116C7.50388 7.00035 7.50388 6.99953 7.50388 6.9987C7.50388 6.99788 7.50388 6.99704 7.50388 6.99619C7.50388 6.99534 7.50388 6.99448 7.50388 6.99361C7.50388 6.99274 7.50388 6.99186 7.50388 6.99097C7.50388 6.99008 7.50388 6.98918 7.50388 6.98827C7.50388 6.98736 7.50388 6.98643 7.50388 6.9855C7.50388 6.98457 7.50388 6.98362 7.50388 6.98267C7.50388 6.98171 7.50388 6.98075 7.50388 6.97977C7.50388 6.9788 7.50388 6.97781 7.50388 6.97681C7.50388 6.97581 7.50388 6.9748 7.50388 6.97378C7.50388 6.97276 7.50388 6.97173 7.50388 6.97069C7.50388 6.96964 7.50388 6.96859 7.50388 6.96752C7.50388 6.96646 7.50388 6.96538 7.50388 6.96429C7.50388 6.9632 7.50388 6.9621 7.50388 6.96099C7.50388 6.95988 7.50388 6.95875 7.50388 6.95762C7.50388 6.95648 7.50388 6.95534 7.50388 6.95418C7.50388 6.95302 7.50388 6.95185 7.50388 6.95067C7.50388 6.94949 7.50388 6.94829 7.50388 6.94709C7.50388 6.94588 7.50388 6.94466 7.50388 6.94343C7.50388 6.9422 7.50388 6.94096 7.50388 6.9397C7.50388 6.93845 7.50388 6.93718 7.50388 6.9359C7.50388 6.93462 7.50388 6.93333 7.50388 6.93203C7.50388 6.93072 7.50388 6.92941 7.50388 6.92808C7.50388 6.92675 7.50388 6.92541 7.50388 6.92406C7.50388 6.9227 7.50388 6.92133 7.50388 6.91996C7.50388 6.91858 7.50388 6.91718 7.50388 6.91578C7.50388 6.91437 7.50388 6.91296 7.50388 6.91153C7.50388 6.91009 7.50388 6.90865 7.50388 6.90719C7.50388 6.90574 7.50388 6.90427 7.50388 6.90278C7.50388 6.9013 7.50388 6.89981 7.50388 6.8983C7.50388 6.89679 7.50388 6.89526 7.50388 6.89373C7.50388 6.89219 7.50388 6.89064 7.50388 6.88908C7.50388 6.88752 7.50388 6.88594 7.50388 6.88435C7.50388 6.88276 7.50388 6.88116 7.50388 6.87954C7.50388 6.87792 7.50388 6.87629 7.50388 6.87465C7.50388 6.873 7.50388 6.87134 7.50388 6.86967C7.50388 6.868 7.50388 6.86631 7.50388 6.86461C7.50388 6.86291 7.50388 6.8612 7.50388 6.85947C7.50388 6.85774 7.50388 6.856 7.50388 6.85424C7.50388 6.85248 7.50388 6.85071 7.50388 6.84893C7.50388 6.84714 7.50388 6.84534 7.50388 6.84353C7.50388 6.84172 7.50388 6.83989 7.50388 6.83804C7.50388 6.8362 7.50388 6.83434 7.50388 6.83247C7.50388 6.8306 7.50388 6.82871 7.50388 6.82681C7.50388 6.82491 7.50388 6.82299 7.50388 6.82106C7.50388 6.81913 7.50388 6.81718 7.50388 6.81522C7.50388 6.81326 7.50388 6.81129 7.50388 6.8093C7.50388 6.80731 7.50388 6.8053 7.50388 6.80328C7.50388 6.80126 7.50388 6.79922 7.50388 6.79717C7.50388 6.79512 7.50388 6.79305 7.50388 6.79097C7.50388 6.78889 7.50388 6.78679 7.50388 6.78468C7.50388 6.78256 7.50388 6.78043 7.50388 6.77829C7.50388 6.77615 7.50388 6.77399 7.50388 6.77181C7.50388 6.76964 7.50388 6.76745 7.50388 6.76524C7.50388 6.76303 7.50388 6.76081 7.50388 6.75857C7.50388 6.75633 7.50388 6.75408 7.50388 6.75181C7.50388 6.74954 7.50388 6.74725 7.50388 6.74495C7.50388 6.74265 7.50388 6.74033 7.50388 6.73799C7.50388 6.73566 7.50388 6.73331 7.50388 6.73094C7.50388 6.72857 7.50388 6.72619 7.50388 6.72379C7.50388 6.72139 7.50388 6.71897 7.50388 6.71654C7.50388 6.7141 7.50388 6.71165 7.50388 6.70919C7.50388 6.70672 7.50388 6.70424 7.50388 6.70174C7.50388 6.69924 7.50388 6.69672 7.50388 6.69419C7.50388 6.69166 7.50388 6.68911 7.50388 6.68654C7.50388 6.68397 7.50388 6.68139 7.50388 6.67879C7.50388 6.67619 7.50388 6.67357 7.50388 6.67093C7.50388 6.6683 7.50388 6.66565 7.50388 6.66298C7.50388 6.66031 7.50388 6.65762 7.50388 6.65492C7.50388 6.65221 7.50388 6.64949 7.50388 6.64675C7.50388 6.64401 7.50388 6.64126 7.50388 6.63848C7.50388 6.63571 7.50388 6.63292 7.50388 6.63011C7.50388 6.6273 7.50388 6.62447 7.50388 6.62163C7.50388 6.61878 7.50388 6.61592 7.50388 6.61304C7.50388 6.61016 7.50388 6.60726 7.50388 6.60434C7.50388 6.60143 7.50388 6.59849 7.50388 6.59554C7.50388 6.59259 7.50388 6.58962 7.50388 6.58663C7.50388 6.58364 7.50388 6.58063 7.50388 6.57761C7.50388 6.57458 7.50388 6.57154 7.50388 6.56848C7.50388 6.56541 7.50388 6.56233 7.50388 6.55923C7.50388 6.55613 7.50388 6.55302 7.50388 6.54988C7.50388 6.54675 7.50388 6.54359 7.50388 6.54042C7.50388 6.53724 7.50388 6.53405 7.50388 6.53084C7.50388 6.52763 7.50388 6.5244 7.50388 6.52115C7.50388 6.5179 7.50388 6.51463 7.50388 6.51135C7.50388 6.50806 7.50388 6.50475 7.50388 6.50143C7.50388 6.4981 7.50388 6.49476 7.50388 6.4914C7.50388 6.48803 7.50388 6.48465 7.50388 6.48125C7.50388 6.47784 7.50388 6.47442 7.50388 6.47098C7.50388 6.46754 7.50388 6.46408 7.50388 6.4606C7.50388 6.45712 7.50388 6.45362 7.50388 6.4501C7.50388 6.44658 7.50388 6.44304 7.50388 6.43949C7.50388 6.43593 7.50388 6.43235 7.50388 6.42875C7.50388 6.42515 7.50388 6.42153 7.50388 6.41789C7.50388 6.41426 7.50388 6.4106 7.50388 6.40692C7.50388 6.40324 7.50388 6.39954 7.50388 6.39582C7.50388 6.3921 7.50388 6.38837 7.50388 6.38461C7.50388 6.38085 7.50388 6.37707 7.50388 6.37327C7.50388 6.36947 7.50388 6.36565 7.50388 6.36181C7.50388 6.35797 7.50388 6.3541 7.50388 6.35022C7.50388 6.34634 7.50388 6.34244 7.50388 6.33851C7.50388 6.33459 7.50388 6.33065 7.50388 6.32668C7.50388 6.32272 7.50388 6.31873 7.50388 6.31472C7.50388 6.31072 7.50388 6.30669 7.50388 6.30264C7.50388 6.29859 7.50388 6.29452 7.50388 6.29043C7.50388 6.28634 7.50388 6.28223 7.50388 6.2781C7.50388 6.27396 7.50388 6.26981 7.50388 6.26563C7.50388 6.26146 7.50388 6.25726 7.50388 6.25304C7.50388 6.24882 7.50388 6.24458 7.50388 6.24032C7.50388 6.23606 7.50388 6.23177 7.50388 6.22747C7.50388 6.22316 7.50388 6.21884 7.50388 6.21449C7.50388 6.21014 7.50388 6.20577 7.50388 6.20138C7.50388 6.19698 7.50388 6.19257 7.50388 6.18813C7.50388 6.1837 7.50388 6.17924 7.50388 6.17476C7.50388 6.17028 7.50388 6.16578 7.50388 6.16125C7.50388 6.15673 7.50388 6.15218 7.50388 6.14761C7.50388 6.14304 7.50388 6.13845 7.50388 6.13384C7.50388 6.12922 7.50388 6.12459 7.50388 6.11993C7.50388 6.11527 7.50388 6.11059 7.50388 6.10589C7.50388 6.10118 7.50388 6.09646 7.50388 6.09171C7.50388 6.08696 7.50388 6.08218 7.50388 6.07739C7.50388 6.0726 7.50388 6.06778 7.50388 6.06294C7.50388 6.0581 7.50388 6.05323 7.50388 6.04835C7.50388 6.04346 7.50388 6.03855 7.50388 6.03362C7.50388 6.02869 7.50388 6.02373 7.50388 6.01875C7.50388 6.01377 7.50388 6.00877 7.50388 6.00374C7.50388 5.99872 7.50388 5.99367 7.50388 5.9886C7.50388 5.98352 7.50388 5.97843 7.50388 5.97331C7.50388 5.96819 7.50388 5.96304 7.50388 5.95788C7.50388 5.95271 7.50388 5.94752 7.50388 5.94231C7.50388 5.93709 7.50388 5.93185 7.50388 5.92659C7.50388 5.92133 7.50388 5.91604 7.50388 5.91073C7.50388 5.90542 7.50388 5.90009 7.50388 5.89473C7.50388 5.88937 7.50388 5.88399 7.50388 5.87859C7.50388 5.87318 7.50388 5.86775 7.50388 5.8623C7.50388 5.85684 7.50388 5.85136 7.50388 5.84586C7.50388 5.84035 7.50388 5.83483 7.50388 5.82927C7.50388 5.82372 7.50388 5.81815 7.50388 5.81254C7.50388 5.80694 7.50388 5.80132 7.50388 5.79566C7.50388 5.79001 7.50388 5.78434 7.50388 5.77864C7.50388 5.77294 7.50388 5.76721 7.50388 5.76146C7.50388 5.75571 7.50388 5.74994 7.50388 5.74414C7.50388 5.73834 7.50388 5.73251 7.50388 5.72666C7.50388 5.72081 7.50388 5.71494 7.50388 5.70903C7.50388 5.70313 7.50388 5.69721 7.50388 5.69126C7.50388 5.6853 7.50388 5.67933 7.50388 5.67333C7.50388 5.66732 7.50388 5.6613 7.50388 5.65524C7.50388 5.64919 7.50388 5.64311 7.50388 5.63701C7.50388 5.6309 7.50388 5.62477 7.50388 5.61862C7.50388 5.61246 7.50388 5.60628 7.50388 5.60007C7.50388 5.59386 7.50388 5.58763 7.50388 5.58137C7.50388 5.57511 7.50388 5.56883 7.50388 5.56251C7.50388 5.5562 7.50388 5.54986 7.50388 5.5435C7.50388 5.53714 7.50388 5.53075 7.50388 5.52433C7.50388 5.51791 7.50388 5.51147 7.50388 5.505C7.50388 5.49853 7.50388 5.49204 7.50388 5.48552C7.50388 5.47899 7.50388 5.47245 7.50388 5.46587C7.50388 5.4593 7.50388 5.45269 7.50388 5.44606C7.50388 5.43944 7.50388 5.43278 7.50388 5.4261C7.50388 5.41942 7.50388 5.41271 7.50388 5.40597C7.50388 5.39924 7.50388 5.39247 7.50388 5.38568C7.50388 5.37889 7.50388 5.37208 7.50388 5.36523C7.50388 5.35839 7.50388 5.35152 7.50388 5.34462C7.50388 5.33772 7.50388 5.3308 7.50388 5.32384C7.50388 5.31689 7.50388 5.30991 7.50388 5.3029C7.50388 5.2959 7.50388 5.28886 7.50388 5.2818C7.50388 5.27473 7.50388 5.26764 7.50388 5.26053C7.50388 5.25341 7.50388 5.24626 7.50388 5.23909C7.50388 5.23192 7.50388 5.22471 7.50388 5.21748C7.50388 5.21026 7.50388 5.203 7.50388 5.19571C7.50388 5.18843 7.50388 5.18112 7.50388 5.17377C7.50388 5.16643 7.50388 5.15906 7.50388 5.15167H1.50388ZM1.50388 8.44997C1.50388 9.62091 2.38782 11.5789 4.61059 11.5789V5.57895C6.7155 5.57895 7.50388 7.42148 7.50388 8.44997H1.50388ZM4.61059 11.5789C6.83337 11.5789 7.7173 9.62089 7.7173 8.44997H1.7173C1.7173 7.42149 2.50567 5.57895 4.61059 5.57895V11.5789ZM7.7173 8.44997V6.33535H1.7173V8.44997H7.7173ZM4.7173 9.33535H5.83725V3.33535H4.7173V9.33535ZM5.83725 9.33535C8.10109 9.33535 9.68012 7.6684 10.1431 5.91923L4.34277 4.3841C4.44278 4.00622 4.88935 3.33535 5.83725 3.33535V9.33535ZM7.24291 8.15167H7.61257V2.15167H7.24291V8.15167ZM7.61257 8.15167C9.83536 8.15167 10.7193 6.19359 10.7193 5.02269H4.71928C4.71928 3.99423 5.50763 2.15167 7.61257 2.15167V8.15167ZM10.7193 5.02269C10.7193 3.85177 9.83536 1.89371 7.61257 1.89371V7.89371C5.50764 7.89371 4.71928 6.05115 4.71928 5.02269H10.7193ZM7.61257 1.89371H7.29096V7.89371H7.61257V1.89371ZM10.2714 5.23541C10.3062 4.93225 10.3245 4.56979 10.2746 4.11531L4.31049 4.77045C4.30783 4.7462 4.30459 4.7018 4.30541 4.64488C4.30623 4.589 4.31061 4.5509 4.31048 4.55201L10.2714 5.23541ZM7.29256 7.44288H7.61257V1.44288H7.29256V7.44288ZM7.61134 7.44288C9.83546 7.44379 10.7193 5.48435 10.7193 4.3139H4.7193C4.7193 3.28595 5.50757 1.44201 7.6138 1.44288L7.61134 7.44288ZM4.7173 6.25914H5.92583V0.259143H4.7173V6.25914ZM5.92583 6.25914C4.81558 6.25914 4.27656 5.47532 4.14819 5.04796L9.89455 3.32188C9.4255 1.76034 7.99558 0.259143 5.92583 0.259143V6.25914ZM7.02137 1.18492H4.71728V7.18492H7.02137V1.18492ZM7.71728 4.18498L7.7173 3.25921L1.7173 3.25908L1.71728 4.18486L7.71728 4.18498ZM5.83727 3.0774H4.71732V9.0774H5.83727V3.0774ZM7.71732 6.0774V5.15169H1.71732V6.0774H7.71732ZM4.71732 8.15169H7.01717V2.15169H4.71732V8.15169ZM4.16283 4.22823C4.32034 3.74139 4.86627 3.0774 5.83727 3.0774V9.0774C7.88513 9.0774 9.36419 7.64321 9.8715 6.07515L4.16283 4.22823ZM7.07595 1.89371H4.7173V7.89371H7.07595V1.89371ZM7.7173 4.89371V4.44288H1.7173V4.89371H7.7173ZM4.7173 7.44288H7.07587V1.44288H4.7173V7.44288ZM4.1013 4.83264C4.0959 4.79143 4.09115 4.73406 4.09148 4.6651C4.09182 4.59555 4.09724 4.53352 4.10403 4.48426L10.0479 5.30316C10.1027 4.90502 10.1083 4.49427 10.0504 4.05311L4.1013 4.83264Z" fill="black" mask="url(#path-3-inside-1_925_1209)"/>
</svg>
