<svg width="6" height="8" viewBox="0 0 6 8" fill="none" xmlns="http://www.w3.org/2000/svg">
<path d="M4.32098 0H0.916737C0.515522 0 0.187256 0.316406 0.187256 0.703125V6.79688C0.187256 7.18359 0.515522 7.5 0.916737 7.5H4.32098C4.7222 7.5 5.05046 7.18359 5.05046 6.79688V0.703125C5.05046 0.316406 4.7222 0 4.32098 0ZM2.61886 7.03125C2.34992 7.03125 2.13254 6.82172 2.13254 6.5625C2.13254 6.30328 2.34992 6.09375 2.61886 6.09375C2.88779 6.09375 3.10518 6.30328 3.10518 6.5625C3.10518 6.82172 2.88779 7.03125 2.61886 7.03125ZM4.56414 5.625H0.673576V0.9375H4.56414V5.625Z" fill="black"/>
</svg>
