<svg width="9" height="9" viewBox="0 0 9 9" fill="none" xmlns="http://www.w3.org/2000/svg">
<path d="M3.33333 4.58333H0.416667C0.30616 4.58333 0.200179 4.62723 0.122039 4.70537C0.0438987 4.78351 0 4.88949 0 5V7.91667C0 8.02717 0.0438987 8.13315 0.122039 8.21129C0.200179 8.28943 0.30616 8.33333 0.416667 8.33333H3.33333C3.44384 8.33333 3.54982 8.28943 3.62796 8.21129C3.7061 8.13315 3.75 8.02717 3.75 7.91667V5C3.75 4.88949 3.7061 4.78351 3.62796 4.70537C3.54982 4.62723 3.44384 4.58333 3.33333 4.58333ZM2.91667 7.5H0.833333V5.41667H2.91667V7.5ZM7.91667 0H5C4.88949 0 4.78351 0.0438987 4.70537 0.122039C4.62723 0.200179 4.58333 0.30616 4.58333 0.416667V3.33333C4.58333 3.44384 4.62723 3.54982 4.70537 3.62796C4.78351 3.7061 4.88949 3.75 5 3.75H7.91667C8.02717 3.75 8.13315 3.7061 8.21129 3.62796C8.28943 3.54982 8.33333 3.44384 8.33333 3.33333V0.416667C8.33333 0.30616 8.28943 0.200179 8.21129 0.122039C8.13315 0.0438987 8.02717 0 7.91667 0ZM7.5 2.91667H5.41667V0.833333H7.5V2.91667ZM7.91667 4.58333H5C4.88949 4.58333 4.78351 4.62723 4.70537 4.70537C4.62723 4.78351 4.58333 4.88949 4.58333 5V7.91667C4.58333 8.02717 4.62723 8.13315 4.70537 8.21129C4.78351 8.28943 4.88949 8.33333 5 8.33333H7.91667C8.02717 8.33333 8.13315 8.28943 8.21129 8.21129C8.28943 8.13315 8.33333 8.02717 8.33333 7.91667V5C8.33333 4.88949 8.28943 4.78351 8.21129 4.70537C8.13315 4.62723 8.02717 4.58333 7.91667 4.58333ZM7.5 7.5H5.41667V5.41667H7.5V7.5ZM3.33333 0H0.416667C0.30616 0 0.200179 0.0438987 0.122039 0.122039C0.0438987 0.200179 0 0.30616 0 0.416667V3.33333C0 3.44384 0.0438987 3.54982 0.122039 3.62796C0.200179 3.7061 0.30616 3.75 0.416667 3.75H3.33333C3.44384 3.75 3.54982 3.7061 3.62796 3.62796C3.7061 3.54982 3.75 3.44384 3.75 3.33333V0.416667C3.75 0.30616 3.7061 0.200179 3.62796 0.122039C3.54982 0.0438987 3.44384 0 3.33333 0ZM2.91667 2.91667H0.833333V0.833333H2.91667V2.91667Z" fill="black"/>
</svg>
