<svg width="10" height="10" viewBox="0 0 10 10" fill="none" xmlns="http://www.w3.org/2000/svg">
<path fill-rule="evenodd" clip-rule="evenodd" d="M6.59231 0.103106C6.62491 0.0704228 6.66364 0.0444923 6.70628 0.0267997C6.74892 0.00910711 6.79463 0 6.84079 0C6.88695 0 6.93266 0.00910711 6.9753 0.0267997C7.01794 0.0444923 7.05666 0.0704228 7.08926 0.103106L9.89689 2.91074C9.92958 2.94334 9.95551 2.98206 9.9732 3.0247C9.99089 3.06734 10 3.11305 10 3.15921C10 3.20537 9.99089 3.25108 9.9732 3.29372C9.95551 3.33636 9.92958 3.37509 9.89689 3.40769L8.56187 4.74271L7.97999 7.06813C7.93574 7.2452 7.84622 7.40772 7.72021 7.53976C7.5942 7.67179 7.43604 7.76881 7.26123 7.82128L0 10L2.17872 2.73807C2.23124 2.56347 2.32819 2.40551 2.46009 2.27964C2.59199 2.15377 2.75431 2.06431 2.93117 2.02002L5.25658 1.43884L6.59231 0.103106ZM5.32888 2.14425L3.10173 2.70087C3.04261 2.71562 2.98835 2.74551 2.94429 2.78761C2.90023 2.8297 2.86789 2.88253 2.85045 2.94092L1.04654 8.95275L7.05978 7.14885C7.11782 7.13126 7.17032 7.09894 7.21214 7.05502C7.25396 7.0111 7.2837 6.9571 7.29843 6.89827L7.85575 4.67042L5.32888 2.14355V2.14425Z" fill="black"/>
<path fill-rule="evenodd" clip-rule="evenodd" d="M1.10776 8.93447L4.73521 5.9668C4.87404 5.9668 5.00975 5.92564 5.12517 5.84851C5.2406 5.77138 5.33057 5.66176 5.38369 5.5335C5.43682 5.40525 5.45072 5.26412 5.42364 5.12796C5.39655 4.9918 5.3297 4.86674 5.23154 4.76857C5.13337 4.67041 5.00831 4.60356 4.87215 4.57648C4.73599 4.54939 4.59486 4.56329 4.46661 4.61642C4.33835 4.66954 4.22873 4.75951 4.1516 4.87494C4.07447 4.99037 4.03331 5.12607 4.03331 5.2649L1.06564 8.89235L1.04739 8.95272L1.10776 8.93447V8.93447Z" fill="black"/>
</svg>
