<svg width="12" height="12" viewBox="0 0 10 10" fill="none" xmlns="http://www.w3.org/2000/svg">
<path d="M8.45238 1.42857C9.30711 1.42857 10 2.12146 10 2.97619V8.45238C10 9.30711 9.30711 10 8.45238 10H2.97619C2.12146 10 1.42857 9.30711 1.42857 8.45238V5.47708C1.65441 5.57124 1.89375 5.63942 2.1429 5.67789L2.14286 8.45238C2.14286 8.55162 2.1602 8.64681 2.19203 8.73508L4.96466 6.02047C5.36136 5.63204 5.98451 5.61357 6.40275 5.96504L6.46389 6.02053L9.23637 8.73555C9.2683 8.64715 9.28571 8.5518 9.28571 8.45238V2.97619C9.28571 2.51595 8.91262 2.14286 8.45238 2.14286L5.67789 2.1429C5.63942 1.89375 5.57124 1.65441 5.47708 1.42857H8.45238ZM5.50419 6.49714L5.46438 6.53085L2.69926 9.2386C2.78591 9.26911 2.87911 9.28571 2.97619 9.28571H8.45238C8.54928 9.28571 8.64232 9.26918 8.72883 9.23877L5.96413 6.53087C5.83791 6.40726 5.64292 6.39602 5.50419 6.49714ZM7.26291 3.09524C7.8552 3.09524 8.33535 3.57538 8.33535 4.16767C8.33535 4.75996 7.8552 5.24011 7.26291 5.24011C6.67062 5.24011 6.19048 4.75996 6.19048 4.16767C6.19048 3.57538 6.67062 3.09524 7.26291 3.09524ZM2.61905 0C4.06551 0 5.2381 1.17259 5.2381 2.61905C5.2381 4.06551 4.06551 5.2381 2.61905 5.2381C1.17259 5.2381 0 4.06551 0 2.61905C0 1.17259 1.17259 0 2.61905 0ZM7.26291 3.80952C7.06511 3.80952 6.90476 3.96987 6.90476 4.16767C6.90476 4.36547 7.06511 4.52582 7.26291 4.52582C7.46071 4.52582 7.62106 4.36547 7.62106 4.16767C7.62106 3.96987 7.46071 3.80952 7.26291 3.80952ZM2.61905 0.952017L2.57625 0.955853C2.47906 0.973493 2.40243 1.05013 2.38479 1.14731L2.38095 1.19011L2.38079 2.38059L1.18936 2.38095L1.14656 2.38479C1.04937 2.40243 0.972738 2.47906 0.955098 2.57625L0.951262 2.61905L0.955098 2.66185C0.972738 2.75903 1.04937 2.83567 1.14656 2.85331L1.18936 2.85714L2.38126 2.85678L2.38148 4.04928L2.38532 4.09208C2.40296 4.18926 2.47959 4.2659 2.57678 4.28354L2.61958 4.28737L2.66237 4.28354C2.75956 4.2659 2.83619 4.18926 2.85383 4.09208L2.85767 4.04928L2.85745 2.85678L4.04979 2.85714L4.09259 2.85331C4.18978 2.83567 4.26641 2.75903 4.28405 2.66185L4.28789 2.61905L4.28405 2.57625C4.26641 2.47906 4.18978 2.40243 4.09259 2.38479L4.04979 2.38095L2.85698 2.38059L2.85714 1.19011L2.85331 1.14731C2.83567 1.05013 2.75903 0.973493 2.66185 0.955853L2.61905 0.952017Z" fill="#C1171A"/>
</svg>
