<svg width="14" height="11" viewBox="0 0 14 11" fill="none" xmlns="http://www.w3.org/2000/svg">
<path d="M7.0625 5.45C7.39599 5.16133 7.66347 4.8043 7.8468 4.40314C8.03012 4.00198 8.125 3.56607 8.125 3.125C8.125 2.2962 7.79576 1.50134 7.20971 0.915291C6.62366 0.32924 5.8288 1.11819e-07 5 1.11819e-07C4.1712 1.11819e-07 3.37634 0.32924 2.79029 0.915291C2.20424 1.50134 1.875 2.2962 1.875 3.125C1.875 3.56607 1.96988 4.00198 2.1532 4.40314C2.33653 4.8043 2.60401 5.16133 2.9375 5.45C2.06259 5.84618 1.32029 6.48596 0.799363 7.29284C0.278434 8.09972 0.000919909 9.03957 0 10C0 10.1658 0.065848 10.3247 0.183058 10.4419C0.300268 10.5592 0.45924 10.625 0.625 10.625C0.79076 10.625 0.949732 10.5592 1.06694 10.4419C1.18415 10.3247 1.25 10.1658 1.25 10C1.25 9.00544 1.64509 8.05161 2.34835 7.34835C3.05161 6.64509 4.00544 6.25 5 6.25C5.99456 6.25 6.94839 6.64509 7.65165 7.34835C8.35491 8.05161 8.75 9.00544 8.75 10C8.75 10.1658 8.81585 10.3247 8.93306 10.4419C9.05027 10.5592 9.20924 10.625 9.375 10.625C9.54076 10.625 9.69973 10.5592 9.81694 10.4419C9.93415 10.3247 10 10.1658 10 10C9.99908 9.03957 9.72157 8.09972 9.20064 7.29284C8.67971 6.48596 7.93741 5.84618 7.0625 5.45V5.45ZM5 5C4.62916 5 4.26665 4.89003 3.95831 4.68401C3.64996 4.47798 3.40964 4.18514 3.26773 3.84253C3.12581 3.49992 3.08868 3.12292 3.16103 2.75921C3.23338 2.39549 3.41195 2.0614 3.67417 1.79917C3.9364 1.53695 4.27049 1.35838 4.63421 1.28603C4.99792 1.21368 5.37492 1.25081 5.71753 1.39273C6.06014 1.53464 6.35298 1.77496 6.55901 2.08331C6.76503 2.39165 6.875 2.75416 6.875 3.125C6.875 3.62228 6.67746 4.09919 6.32583 4.45083C5.97419 4.80246 5.49728 5 5 5ZM11.0875 5.2C11.4875 4.74958 11.7488 4.19316 11.8399 3.59771C11.931 3.00226 11.8481 2.39317 11.6011 1.84375C11.3541 1.29433 10.9536 0.827997 10.4478 0.500889C9.94197 0.173781 9.35238 -0.000161 8.75 1.11819e-07C8.58424 1.11819e-07 8.42527 0.0658481 8.30806 0.183058C8.19085 0.300269 8.125 0.45924 8.125 0.625C8.125 0.79076 8.19085 0.949732 8.30806 1.06694C8.42527 1.18415 8.58424 1.25 8.75 1.25C9.24728 1.25 9.72419 1.44754 10.0758 1.79917C10.4275 2.15081 10.625 2.62772 10.625 3.125C10.6241 3.45327 10.5371 3.77556 10.3725 4.05964C10.208 4.34371 9.9718 4.57961 9.6875 4.74375C9.59484 4.7972 9.51744 4.87354 9.46273 4.96546C9.40801 5.05738 9.37781 5.16181 9.375 5.26875C9.37239 5.37485 9.39683 5.47987 9.44604 5.57391C9.49525 5.66795 9.56759 5.74791 9.65625 5.80625L9.9 5.96875L9.98125 6.0125C10.7346 6.36982 11.3702 6.93499 11.8131 7.64145C12.256 8.3479 12.4878 9.16621 12.4812 10C12.4812 10.1658 12.5471 10.3247 12.6643 10.4419C12.7815 10.5592 12.9405 10.625 13.1062 10.625C13.272 10.625 13.431 10.5592 13.5482 10.4419C13.6654 10.3247 13.7312 10.1658 13.7312 10C13.7364 9.04089 13.4961 8.09641 13.0334 7.25629C12.5707 6.41617 11.9008 5.70832 11.0875 5.2V5.2Z" fill="#C1171A"/>
</svg>
