<svg width="14" height="15" viewBox="0 0 14 15" fill="none" xmlns="http://www.w3.org/2000/svg">
<path d="M13.8034 13.7354L11.208 10.975C12.2154 9.62807 12.7033 7.91846 12.5713 6.19767C12.4393 4.47689 11.6974 2.87574 10.4983 1.72344C9.29906 0.571149 7.7337 -0.0446995 6.12404 0.00252864C4.51437 0.0497567 2.98276 0.756472 1.84413 1.97736C0.705504 3.19824 0.0464044 4.8405 0.00235827 6.56645C-0.0416878 8.2924 0.532668 9.97085 1.60733 11.2567C2.68198 12.5425 4.17526 13.338 5.7801 13.4795C7.38495 13.6211 8.97938 13.0979 10.2355 12.0177L12.81 14.7781C12.8751 14.8484 12.9524 14.9042 13.0377 14.9423C13.1229 14.9804 13.2144 15 13.3067 15C13.3991 15 13.4905 14.9804 13.5758 14.9423C13.661 14.9042 13.7384 14.8484 13.8034 14.7781C13.9295 14.6382 14 14.4513 14 14.2568C14 14.0622 13.9295 13.8753 13.8034 13.7354ZM6.31088 12.0177C5.34233 12.0177 4.39552 11.7097 3.5902 11.1327C2.78488 10.5558 2.15721 9.73568 1.78656 8.77621C1.41591 7.81674 1.31893 6.76097 1.50789 5.7424C1.69684 4.72383 2.16324 3.78822 2.84811 3.05387C3.53298 2.31952 4.40556 1.81943 5.3555 1.61682C6.30545 1.41421 7.29009 1.5182 8.18491 1.91562C9.07974 2.31305 9.84456 2.98607 10.3827 3.84957C10.9208 4.71307 11.208 5.72827 11.208 6.76679C11.208 8.15941 10.692 9.49499 9.77364 10.4797C8.85526 11.4644 7.60967 12.0177 6.31088 12.0177Z" fill="#F7A440"/>
</svg>
