<svg width="23" height="20" viewBox="0 0 23 20" fill="none" xmlns="http://www.w3.org/2000/svg">
<path d="M22.258 8.77276L1.48284 0.0762287C1.07477 -0.0976583 0.614751 0.0327547 0.310514 0.398C0.00632787 0.76328 -0.0827086 1.31117 0.0805101 1.78947L2.24619 8.14732C2.35877 8.47773 2.63171 8.69451 2.93527 8.69451H8.65026C9.26611 8.69451 9.76322 9.27716 9.76322 9.99899C9.76322 10.7208 9.26611 11.3035 8.65026 11.3035H2.93527C2.63171 11.3035 2.35877 11.5202 2.24619 11.8507L0.0805101 18.2085C-0.0827012 18.6868 0.00632787 19.2347 0.310521 19.5999C0.525715 19.8608 0.815054 20 1.11186 20C1.23798 20 1.36415 19.9739 1.48284 19.9217L11.8704 15.5734L22.258 11.2252C22.7032 11.0426 23 10.5469 23 9.99899C23 9.45111 22.7032 8.9554 22.258 8.77276Z" fill="#600C0D"/>
</svg>


